<svg xmlns="http://www.w3.org/2000/svg" fill="none" viewBox="0 0 121 116"><path fill="#57B9A6" d="M6.13 54.436c7.407 14.627 24.616 20.649 35.245 32.92 6.27 7.241 7.881 28.169 7.881 28.169l20.628-.176s-.29-22.301 8.047-26.381c8.336-4.08 33.24-8.305 37.929-32.28.145-.744.29-1.498.424-2.252H6.131ZM117.41 47.309c3.068-22.064 2.851-46.09 2.851-46.09s-18.542.227-28.788 14.916C83.147 28.075 81.38 39.428 81.38 39.428S80.317 18.593 63.346 6.61C52.427-1.095 40.517.134 40.517.134l-.093 33.458S23.05 6.869.129 6.869c0 0-1.136 24.264 3.326 40.44H117.41Z"/></svg>