<svg xmlns="http://www.w3.org/2000/svg" fill="none" viewBox="0 0 519 132"><path fill="#FD504C" d="m487.116 63.31-.114-.156 31.195-31.195-8.171-8.17-29.924 29.934-9.792-13.355 16.579-16.58L463.1 0l-23.799 23.789 16.134 16.145-10.35 14.14-29.934-29.944-8.171 8.17 31.009 31.01h49.127ZM433.113 70.436l-24.801 33.902 13.346 20.442 79.444-.538 16.775-18.933-25.535-34.873h-59.229Z"/><path fill="#57B9A6" d="M6.13 70.436c7.407 14.627 24.616 20.649 35.245 32.92 6.27 7.241 7.881 28.169 7.881 28.169l20.628-.176s-.29-22.301 8.047-26.381c8.336-4.081 33.24-8.305 37.929-32.28.145-.744.29-1.498.424-2.252H6.131ZM117.41 63.309c3.068-22.064 2.851-46.09 2.851-46.09s-18.542.227-28.788 14.916C83.147 44.075 81.38 55.428 81.38 55.428S80.317 34.593 63.346 22.61c-10.919-7.706-22.828-6.477-22.828-6.477l-.093 33.458S23.05 22.869.129 22.869c0 0-1.136 24.264 3.326 40.44H117.41Z"/><path fill="#7E775E" d="M269.733 63.31c1.87-48.301-57.845-53.125-57.845-53.125v38.498c-11.404-29.945-38.498-31.37-38.498-31.37l5.341 31.731c-15.825-25.028-43.415-23.158-43.415-23.158v37.423h134.417ZM135.327 70.437v32.114s24.026-8.356 38.074-18.954v33.839s29.346-22.839 37.868-47h-75.942ZM211.898 70.437v46.689s41.896 5.237 54.25-34.325c1.364-4.38 2.314-8.49 2.892-12.364h-57.152.01Z"/><path fill="#98C8CD" d="M396.382 63.31 341.295 1.755 290.96 63.31h105.422ZM285.134 70.437l-.041.051L343.464 132l54.705-61.563H285.134Z"/></svg>