<svg xmlns="http://www.w3.org/2000/svg" fill="none" viewBox="0 0 167 177"><path fill="#7E775E" d="M166.974 134.237c1.148-29.661-35.521-32.623-35.521-32.623v23.641c-7.003-18.389-23.641-19.264-23.641-19.264l3.28 19.486c-9.718-15.369-26.66-14.221-26.66-14.221v22.981h82.542ZM84.439 138.614v19.72s14.754-5.131 23.38-11.639v20.78s18.021-14.025 23.254-28.861H84.438ZM131.459 138.614v28.67s25.728 3.216 33.314-21.078c.838-2.689 1.421-5.214 1.776-7.592h-35.096.006Z"/><path fill="#57B9A6" d="M3.766 139.015c4.548 8.982 15.115 12.68 21.642 20.216 3.85 4.446 4.84 17.297 4.84 17.297l12.667-.108s-.178-13.694 4.941-16.2c5.12-2.505 20.412-5.1 23.292-19.822.089-.457.178-.92.26-1.383H3.766ZM72.099 134.638c1.884-13.548 1.75-28.302 1.75-28.302s-11.385.139-17.678 9.159c-5.112 7.333-6.197 14.304-6.197 14.304s-.653-12.794-11.075-20.152c-6.705-4.732-14.018-3.977-14.018-3.977l-.057 20.545s-10.67-16.41-24.745-16.41c0 0-.697 14.9 2.043 24.833h69.977Z"/><path fill="#FD504C" d="m133.442 38.877-.07-.095 19.156-19.156-5.017-5.018-18.376 18.382-6.013-8.201 10.18-10.18L118.694 0 104.08 14.608l9.908 9.914-6.356 8.684L89.25 14.817l-5.018 5.018 19.042 19.042h30.168ZM100.281 43.253l-15.23 20.818 8.195 12.553 48.785-.33 10.301-11.626-15.68-21.415h-36.371Z"/><path fill="#98C8CD" d="M71.014 37.798 37.186 0 6.276 37.798h64.738ZM2.7 42.175l-.026.032L38.519 79.98l33.593-37.805H2.699Z"/></svg>