<svg xmlns="http://www.w3.org/2000/svg" fill="none" viewBox="0 0 1319 1210"><path fill="#FD504C" d="M1295.82 622.423a2889.3 2889.3 0 0 0 17.12-543.17S1092.39 93.336 1033.25 251.5c-59.149 158.163-149.925 197.595-149.925 197.595S895.024 215.1 700.473 75.786A414.431 414.431 0 0 0 439.195.605l30.113 449.572S162.75 50.654 19.761 81.853c0 0-56.545 362.041 21.665 539.704l1254.394.866ZM90.606 697.389C209.546 833.452 454.358 923.8 511.553 1000.71c64.995 89.27 36.18 208.43 36.18 208.43h202.568s-42.03-142.99 53.296-190.88c95.325-47.878 422.032-48.961 479.872-320.871H90.605Z"/></svg>