<svg xmlns="http://www.w3.org/2000/svg" fill="none" viewBox="0 0 274 74"><g clip-path="url(#a)"><path fill="#151515" d="m104.682 21.584 1.361 11.214h-1.283l-.961-8.267-3.682 8.267h-.639l-3.714-8.312-.961 8.312h-1.251l1.36-11.214h.897l4.005 8.983 4.004-8.983h.864ZM115.619 27.594V31.6h4.805v1.2h-6.088V21.583h5.926v1.2h-4.643v3.604h4.489v1.2h-4.489v.006ZM134.747 28.033c.341.477.509 1.031.509 1.676s-.155 1.193-.471 1.683c-.316.49-.754.877-1.322 1.155-.567.277-1.219.419-1.954.419-.735 0-1.354-.136-1.921-.406a3.31 3.31 0 0 1-1.348-1.155c-.329-.496-.516-1.07-.561-1.722h1.283c.052.633.31 1.136.767 1.516.458.38 1.052.567 1.78.567.729 0 1.296-.187 1.748-.567.451-.38.671-.884.671-1.516 0-.631-.22-1.109-.665-1.463-.445-.355-1.044-.536-1.799-.536h-1.038v-1.2h1.038c.664 0 1.187-.18 1.567-.534.387-.355.574-.82.574-1.387 0-.567-.193-1.025-.574-1.386-.387-.355-.909-.535-1.567-.535-.658 0-1.212.18-1.612.535a2.06 2.06 0 0 0-.697 1.302h-1.283a3.122 3.122 0 0 1 .529-1.534c.31-.458.729-.826 1.264-1.097a3.898 3.898 0 0 1 1.793-.406c.664 0 1.257.129 1.786.393.529.265.941.626 1.238 1.09.297.465.452 1 .452 1.612 0 .555-.142 1.039-.42 1.451-.277.413-.683.742-1.218.987.619.245 1.102.606 1.444 1.083l.007-.025ZM144.6 27.594V31.6h4.804v1.2h-6.088V21.583h5.927v1.2H144.6v3.604h4.488v1.2H144.6v.006ZM164.907 26.388v-4.804h1.283v11.214h-1.283v-5.204h-5.926v5.204h-1.284V21.584h1.284v4.804h5.926ZM184.659 35.52h-1.283v-2.722h-8.409V21.584h1.283v10.008h5.688V21.584h1.283v10.008h1.445v3.928h-.007ZM193.675 27.594V31.6h4.804v1.2h-6.087V21.583h5.926v1.2h-4.643v3.604h4.488v1.2h-4.488v.006ZM213.157 27.826c.361.484.541 1.051.541 1.69a3.01 3.01 0 0 1-.483 1.683 3.263 3.263 0 0 1-1.348 1.18c-.574.284-1.232.426-1.973.426h-3.122V21.59h2.967c.716 0 1.335.123 1.857.374.522.252.922.6 1.2 1.052.277.45.419.96.419 1.534 0 .471-.136.91-.407 1.316-.27.406-.632.716-1.083.928.587.2 1.064.549 1.425 1.032h.007Zm-5.095-5.036v3.52h1.683c.665 0 1.187-.167 1.567-.496.387-.329.574-.754.574-1.264s-.193-.935-.574-1.264c-.387-.329-.909-.496-1.567-.496h-1.683Zm1.838 8.809c.735 0 1.335-.2 1.786-.6.452-.4.684-.896.684-1.483 0-.587-.226-1.084-.684-1.483-.457-.4-1.051-.6-1.786-.6h-1.844v4.166h1.844ZM230.323 32.798h-1.38l-1.2-3.044h-4.965l-1.2 3.044h-1.348l4.566-11.214h.961l4.566 11.214Zm-3.057-4.243-2.006-5.062-1.999 5.062h4.005ZM44.67 53.125h-.613v-1.31H40.02v-5.384h.613v4.804h2.728v-4.804h.613v4.804h.69v1.883l.006.007ZM46.746 49.32v1.922h2.31v.574h-2.922V46.43h2.844v.574h-2.232v1.728H48.9v.574h-2.154v.013ZM54.24 48.74v-2.31h.612v5.386h-.612V49.32h-2.844v2.495h-.613v-5.384h.613v2.308h2.844ZM58.277 51.816h-.612V47.01h-1.387v-.574h3.386v.574h-1.387v4.804ZM62.662 46.43c.342 0 .645.065.91.2.264.136.47.317.612.549.142.232.22.496.22.787 0 .29-.071.554-.22.786-.148.232-.348.42-.612.548-.265.136-.568.2-.91.2h-.96v2.309h-.613v-5.385h1.573v.007Zm0 2.503c.336 0 .607-.084.806-.264.2-.175.297-.407.297-.697s-.097-.522-.297-.697c-.2-.174-.47-.264-.806-.264h-.96v1.922h.96ZM69.71 51.816h-.664l-.574-1.464h-2.386l-.574 1.464h-.645l2.193-5.385h.464l2.193 5.385h-.007Zm-1.47-2.038-.961-2.431-.96 2.43h1.92ZM71.665 46.43h3.23v5.386h-.612V47.01h-2.038l-.213 2.999c-.045.677-.187 1.154-.432 1.431-.238.278-.574.413-1.006.413h-.187v-.6h.13c.29 0 .496-.096.631-.283.136-.187.213-.51.245-.961l.252-3.573v-.006ZM78.39 48.507c.361 0 .684.071.968.213.283.142.503.335.657.587.155.251.233.535.233.851 0 .316-.078.6-.233.851a1.575 1.575 0 0 1-.657.587 2.134 2.134 0 0 1-.968.213h-1.534v-5.385h.612v2.077h.922v.006Zm0 2.735c.374 0 .67-.097.89-.297.22-.2.33-.458.33-.78 0-.323-.11-.58-.33-.78-.22-.2-.516-.297-.89-.297h-.922v2.154h.922ZM85.246 48.74v-2.31h.612v5.386h-.612V49.32h-2.844v2.495h-.613v-5.384h.613v2.308h2.844ZM89.27 48.507c.36 0 .683.071.967.213.284.142.503.335.658.587.155.251.232.535.232.851 0 .316-.077.6-.232.851a1.576 1.576 0 0 1-.658.587 2.133 2.133 0 0 1-.967.213h-1.445v-5.385h.613v2.077h.832v.006Zm0 2.735c.374 0 .67-.097.89-.297.219-.2.329-.458.329-.78 0-.323-.11-.58-.33-.78-.219-.2-.515-.297-.89-.297h-.831v2.154h.832Zm2.624.574V46.43h.613v5.385h-.613ZM95.086 50.687l3.534-4.25h.387v5.385h-.613v-4.25l-3.533 4.25h-.387v-5.385h.612v4.25Zm.852-4.985a1.09 1.09 0 0 1-.368-.767h.548c.02.193.09.341.213.445.122.103.277.148.47.148a.734.734 0 0 0 .471-.148c.123-.097.194-.245.213-.445h.548c-.019.31-.142.567-.367.767-.226.2-.51.297-.864.297-.355 0-.645-.097-.865-.297ZM107.081 48.74v-2.31h.612v5.386h-.612V49.32h-2.844v2.495h-.613v-5.384h.613v2.308h2.844ZM113.923 51.816h-.664l-.574-1.464h-2.386l-.574 1.464h-.645l2.193-5.385h.464l2.193 5.385h-.007Zm-1.47-2.038-.961-2.431-.961 2.43h1.922ZM116.476 49.565l1.432-3.128h.645l-2.457 5.385h-.645l.716-1.56-1.89-3.825h.684l1.522 3.128h-.007ZM122.893 46.43h.613v5.386h-.613v-2.27a2.78 2.78 0 0 1-.593.193 3.197 3.197 0 0 1-.696.077c-.561 0-1-.16-1.316-.49-.309-.322-.471-.793-.471-1.393v-1.496h.613v1.496c0 .413.103.729.303.961.2.232.503.348.903.348a2.914 2.914 0 0 0 1.257-.27V46.43ZM128.929 48.74v-2.31h.613v5.386h-.613V49.32h-2.844v2.495h-.612v-5.384h.612v2.308h2.844ZM132.573 51.525a2.687 2.687 0 0 1-1.006-1.006 2.744 2.744 0 0 1-.368-1.393c0-.503.123-.967.368-1.393a2.748 2.748 0 0 1 2.405-1.373 2.752 2.752 0 0 1 2.406 1.373c.245.426.367.89.367 1.393a2.743 2.743 0 0 1-2.773 2.767c-.509 0-.974-.123-1.399-.368Zm2.47-.503c.322-.193.586-.458.774-.793.193-.335.29-.703.29-1.11 0-.405-.097-.773-.29-1.108a2.183 2.183 0 0 0-.774-.794 2.056 2.056 0 0 0-1.071-.29 2.05 2.05 0 0 0-1.07.29 2.122 2.122 0 0 0-.774.794 2.24 2.24 0 0 0-.29 1.109c0 .406.096.774.29 1.11.193.334.451.599.774.792.322.194.683.29 1.07.29s.748-.096 1.071-.29ZM140.053 50.132h-1.999v-.554h1.999v.554ZM142.285 50.687l3.533-4.25h.387v5.385h-.612v-4.25l-3.534 4.25h-.387v-5.385h.613v4.25ZM149.217 51.525a2.66 2.66 0 0 1-.993-1.006 2.744 2.744 0 0 1-.368-1.393c0-.503.123-.967.368-1.393a2.704 2.704 0 0 1 2.367-1.373c.567 0 1.07.155 1.496.464.432.31.754.729.967 1.264h-.651a2.197 2.197 0 0 0-.742-.845 1.858 1.858 0 0 0-1.07-.31c-.4 0-.729.098-1.051.291a2.106 2.106 0 0 0-.768.793 2.235 2.235 0 0 0-.284 1.11c0 .406.097.773.284 1.109.187.335.445.6.768.793.322.193.67.29 1.051.29.412 0 .78-.103 1.096-.31.316-.206.567-.49.748-.844h.651a2.776 2.776 0 0 1-.973 1.264c-.432.31-.942.464-1.529.464-.496 0-.954-.123-1.373-.368h.006ZM155.685 51.525a2.654 2.654 0 0 1-.993-1.006 2.744 2.744 0 0 1-.368-1.393c0-.503.123-.967.368-1.393a2.704 2.704 0 0 1 2.366-1.373c.568 0 1.071.155 1.497.464.432.31.754.729.967 1.264h-.651a2.197 2.197 0 0 0-.742-.845 1.861 1.861 0 0 0-1.071-.31c-.399 0-.728.098-1.051.291-.322.194-.58.458-.767.793a2.235 2.235 0 0 0-.284 1.11c0 .406.097.773.284 1.109.187.335.445.6.767.793.323.193.671.29 1.051.29.413 0 .781-.103 1.097-.31.316-.206.567-.49.748-.844h.651a2.784 2.784 0 0 1-.974 1.264c-.432.31-.941.464-1.528.464-.497 0-.954-.123-1.374-.368h.007ZM161.43 46.43h3.231v5.386h-.612V47.01h-2.038l-.213 2.999c-.045.677-.187 1.154-.432 1.431-.239.278-.574.413-1.006.413h-.187v-.6h.129c.29 0 .496-.096.632-.283.135-.187.213-.51.245-.961l.251-3.573v-.006ZM167.235 49.32v1.922h2.308v.574h-2.921V46.43h2.844v.574h-2.231v1.728h2.154v.574h-2.154v.013ZM174.999 51.242h.69v1.883h-.612v-1.31h-3.882v1.31h-.613v-1.883a.906.906 0 0 0 .645-.394c.161-.225.258-.541.29-.948l.297-3.456h3.185v4.804-.006Zm-.612 0v-4.23h-2.006l-.251 2.882a4.285 4.285 0 0 1-.149.864 1.04 1.04 0 0 1-.316.484h2.728-.006ZM178.223 51.525a2.743 2.743 0 0 1-1.373-2.399 2.744 2.744 0 0 1 2.773-2.766 2.75 2.75 0 0 1 2.405 1.373c.245.426.368.89.368 1.393s-.123.968-.368 1.393a2.75 2.75 0 0 1-2.405 1.374c-.51 0-.974-.123-1.4-.368Zm2.47-.503c.323-.193.587-.458.774-.793.193-.335.29-.703.29-1.11 0-.405-.097-.773-.29-1.108a2.175 2.175 0 0 0-.774-.794 2.052 2.052 0 0 0-1.07-.29c-.387 0-.748.097-1.071.29a2.13 2.13 0 0 0-.774.794 2.24 2.24 0 0 0-.29 1.109c0 .406.097.774.29 1.11.194.334.452.599.774.792.323.194.684.29 1.071.29.386 0 .748-.096 1.07-.29ZM187.109 49.43c.175.232.265.502.265.812 0 .31-.078.568-.232.806a1.585 1.585 0 0 1-.645.568 2.132 2.132 0 0 1-.948.206h-1.496v-5.385h1.425c.342 0 .638.058.89.18.251.123.445.291.574.504.135.213.2.464.2.735 0 .226-.065.438-.194.632a1.28 1.28 0 0 1-.516.445 1.4 1.4 0 0 1 .684.496h-.007Zm-2.444-2.419v1.69h.806c.316 0 .568-.078.755-.239a.761.761 0 0 0 .277-.606.752.752 0 0 0-.277-.606c-.187-.161-.439-.239-.755-.239h-.806Zm.884 4.23c.355 0 .638-.096.858-.29a.914.914 0 0 0 .328-.709.914.914 0 0 0-.328-.71c-.22-.193-.503-.29-.858-.29h-.884v2h.884ZM193.101 51.816h-.664l-.574-1.464h-2.386l-.574 1.464h-.645l2.192-5.385h.465l2.192 5.385h-.006Zm-1.47-2.038-.961-2.431-.961 2.43h1.922ZM195.48 51.816h-.613V47.01h-1.387v-.574h3.386v.574h-1.386v4.804ZM198.905 49.32v1.922h2.308v.574h-2.921V46.43h2.844v.574h-2.231v1.728h2.154v.574h-2.154v.013ZM203.431 46.43h3.231v5.386h-.612V47.01h-2.038l-.213 2.999c-.045.677-.187 1.154-.432 1.431-.239.278-.574.413-1.006.413h-.187v-.6h.129c.29 0 .496-.096.632-.283.135-.187.213-.51.245-.961l.251-3.573v-.006ZM210.158 48.507c.361 0 .683.071.967.213.284.142.503.335.658.587.155.251.232.535.232.851 0 .316-.077.6-.232.851a1.576 1.576 0 0 1-.658.587 2.133 2.133 0 0 1-.967.213h-1.535v-5.385h.613v2.077h.922v.006Zm0 2.735c.374 0 .67-.097.89-.297.219-.2.329-.458.329-.78 0-.323-.11-.58-.329-.78-.22-.2-.516-.297-.89-.297h-.922v2.154h.922ZM214.607 51.525a2.654 2.654 0 0 1-.993-1.006 2.744 2.744 0 0 1-.368-1.393c0-.503.123-.967.368-1.393a2.704 2.704 0 0 1 2.366-1.373c.568 0 1.071.155 1.496.464.433.31.755.729.968 1.264h-.652a2.186 2.186 0 0 0-.741-.845 1.861 1.861 0 0 0-1.071-.31c-.399 0-.728.098-1.051.291-.322.194-.58.458-.767.793a2.235 2.235 0 0 0-.284 1.11c0 .406.097.773.284 1.109.187.335.445.6.767.793.323.193.671.29 1.051.29.413 0 .781-.103 1.097-.31.316-.206.567-.49.748-.844h.651a2.784 2.784 0 0 1-.974 1.264c-.432.31-.941.464-1.528.464-.497 0-.955-.123-1.374-.368h.007ZM221.287 49.042l2.535 2.773h-.813l-2.373-2.605v2.605h-.613v-5.384h.613v2.495l2.257-2.495h.755l-2.361 2.605v.006ZM225.711 50.687l3.534-4.25h.387v5.385h-.613v-4.25l-3.533 4.25h-.387v-5.385h.612v4.25ZM232.205 50.687l3.534-4.25h.387v5.385h-.612v-4.25l-3.534 4.25h-.387v-5.385h.612v4.25Zm.852-4.985a1.09 1.09 0 0 1-.368-.767h.548c.02.193.09.341.213.445.123.103.277.148.471.148a.737.737 0 0 0 .471-.148c.122-.097.193-.245.212-.445h.548c-.019.31-.141.567-.367.767-.226.2-.51.297-.864.297-.355 0-.645-.097-.864-.297ZM26.71 59.07l3.534-4.25h.387v5.385h-.613v-4.25l-3.533 4.25h-.387v-5.384h.612v4.25ZM36.048 57.123v-2.309h.613V60.2h-.613v-2.496h-2.844V60.2h-.612v-5.385h.612v2.309h2.844ZM39.679 59.909a2.657 2.657 0 0 1-.993-1.006 2.743 2.743 0 0 1-.368-1.393c0-.503.123-.968.368-1.393a2.705 2.705 0 0 1 2.367-1.374c.567 0 1.07.155 1.496.465.432.309.754.728.967 1.263h-.651a2.192 2.192 0 0 0-.742-.844 1.86 1.86 0 0 0-1.07-.31c-.4 0-.73.097-1.051.29-.323.194-.58.458-.768.794a2.235 2.235 0 0 0-.284 1.109c0 .406.097.773.284 1.109.187.335.445.6.767.793a2 2 0 0 0 1.052.29c.412 0 .78-.103 1.096-.31.316-.206.567-.49.748-.844h.651a2.782 2.782 0 0 1-.974 1.264c-.431.31-.941.464-1.528.464-.496 0-.954-.122-1.373-.367h.006ZM46.321 60.199h-.612v-4.804h-1.387v-.574h3.386v.574H46.32v4.804ZM49.739 59.07l3.534-4.25h.386v5.385h-.612v-4.25l-3.534 4.25h-.387v-5.384h.613v4.25ZM57.084 60.199h-.613v-4.804h-1.386v-.574h3.386v.574h-1.387v4.804ZM61.52 57.948l1.432-3.127h.645l-2.457 5.384h-.645l.716-1.56-1.89-3.824h.684l1.522 3.127h-.007ZM66.48 60.199h-.613v-4.804H64.48v-.574h3.385v.574H66.48v4.804ZM75.12 55.11c.42.246.755.581.994 1.007.245.425.367.89.367 1.393s-.122.967-.367 1.393a2.703 2.703 0 0 1-2.367 1.373c-.587 0-1.096-.155-1.528-.464-.432-.31-.755-.729-.974-1.264h.651c.181.355.426.632.748.845.323.212.684.31 1.103.31.361 0 .697-.085 1.006-.252.303-.168.555-.394.742-.69.187-.29.303-.62.335-.987h-2.534V57.2h2.534a2.165 2.165 0 0 0-.355-.967 2.039 2.039 0 0 0-.735-.67 2.077 2.077 0 0 0-.993-.246c-.4 0-.754.103-1.07.31-.316.206-.561.49-.742.844h-.651a2.77 2.77 0 0 1 .967-1.263c.432-.31.929-.465 1.496-.465.497 0 .955.123 1.374.368ZM79.403 57.426l2.534 2.773h-.813l-2.373-2.605v2.605h-.612v-5.385h.612v2.496l2.257-2.496h.755l-2.36 2.605v.007ZM83.95 59.909a2.657 2.657 0 0 1-.994-1.006 2.743 2.743 0 0 1-.367-1.393c0-.503.122-.968.367-1.393a2.705 2.705 0 0 1 2.367-1.374c.568 0 1.07.155 1.496.465.432.309.755.728.968 1.263h-.652a2.192 2.192 0 0 0-.741-.844 1.86 1.86 0 0 0-1.07-.31c-.4 0-.73.097-1.052.29-.323.194-.58.458-.767.794a2.235 2.235 0 0 0-.284 1.109c0 .406.097.773.284 1.109.187.335.445.6.767.793a2 2 0 0 0 1.051.29c.413 0 .78-.103 1.096-.31.316-.206.568-.49.749-.844h.65a2.782 2.782 0 0 1-.973 1.264c-.432.31-.942.464-1.528.464-.497 0-.955-.122-1.374-.367h.007ZM89.979 60.199h-.613v-5.385h4.037V60.2h-.613v-4.804h-2.805v4.804h-.006ZM95.976 57.703v1.922h2.309v.574h-2.922v-5.385h2.844v.574h-2.231v1.728h2.154v.574h-2.154v.013ZM101.586 54.814c.342 0 .645.065.909.2.265.136.471.316.613.548.142.232.219.497.219.787 0 .29-.071.555-.219.787-.148.232-.348.419-.613.548-.264.135-.567.2-.909.2h-.961v2.308h-.612v-5.384h1.573v.006Zm0 2.502c.336 0 .606-.084.806-.264.2-.174.297-.406.297-.697 0-.29-.097-.522-.297-.696-.2-.174-.47-.264-.806-.264h-.961v1.921h.961ZM105.45 57.703v1.922h2.308v.574h-2.921v-5.385h2.844v.574h-2.231v1.728h2.153v.574h-2.153v.013ZM114.594 54.814l.651 5.385h-.613l-.464-3.966-1.767 3.966h-.309l-1.787-3.992-.464 3.992h-.6l.652-5.385h.432l1.921 4.314 1.922-4.314h.426ZM117.592 57.703v1.922h2.309v.574h-2.922v-5.385h2.844v.574h-2.231v1.728h2.154v.574h-2.154v.013ZM125.085 57.123v-2.309h.613V60.2h-.613v-2.496h-2.843V60.2h-.613v-5.385h.613v2.309h2.843ZM129.122 60.199h-.612v-4.804h-1.387v-.574h3.386v.574h-1.387v4.804ZM135.739 60.199h-.664l-.574-1.464h-2.386l-.574 1.464h-.645l2.193-5.385h.464l2.193 5.385h-.007Zm-1.47-2.038-.961-2.431-.961 2.431h1.922ZM137.687 54.814h3.231V60.2h-.613v-4.804h-2.037l-.213 2.998c-.045.677-.187 1.154-.432 1.432-.239.277-.574.412-1.006.412h-.187v-.6h.129c.29 0 .496-.096.632-.283.135-.187.212-.51.245-.96l.251-3.573v-.007ZM144.419 56.89c.361 0 .683.072.967.213.284.142.503.336.658.587.154.252.232.536.232.852 0 .316-.078.6-.232.85a1.576 1.576 0 0 1-.658.588 2.133 2.133 0 0 1-.967.212h-1.535v-5.384h.612v2.076h.923v.007Zm0 2.735c.374 0 .67-.097.89-.297.219-.2.328-.458.328-.78s-.109-.58-.328-.78c-.22-.2-.516-.297-.89-.297h-.923v2.154h.923ZM151.274 57.123v-2.309h.613V60.2h-.613v-2.496h-2.844V60.2h-.613v-5.385h.613v2.309h2.844ZM154.918 59.909a2.687 2.687 0 0 1-1.006-1.006 2.734 2.734 0 0 1-.368-1.393c0-.503.122-.968.368-1.393a2.746 2.746 0 0 1 2.405-1.373 2.748 2.748 0 0 1 2.773 2.766c0 .503-.123.967-.368 1.393a2.748 2.748 0 0 1-2.405 1.374c-.51 0-.974-.123-1.399-.368Zm2.469-.503c.323-.194.587-.458.774-.794.194-.335.29-.703.29-1.109s-.096-.774-.29-1.109a2.167 2.167 0 0 0-.774-.793 2.05 2.05 0 0 0-1.07-.29c-.387 0-.748.096-1.071.29a2.127 2.127 0 0 0-.773.793 2.241 2.241 0 0 0-.291 1.11c0 .406.097.773.291 1.108.193.336.451.6.773.794.323.193.684.29 1.071.29.387 0 .748-.097 1.07-.29ZM161.361 60.199h-.613v-5.385h2.805v.574h-2.192v4.811ZM165.655 59.909a2.687 2.687 0 0 1-1.006-1.006 2.744 2.744 0 0 1-.368-1.393c0-.503.123-.968.368-1.393a2.748 2.748 0 0 1 2.405-1.373 2.752 2.752 0 0 1 2.406 1.373c.245.425.367.89.367 1.393a2.743 2.743 0 0 1-2.773 2.766c-.509 0-.974-.122-1.399-.367Zm2.476-.503c.323-.194.587-.458.774-.794.193-.335.29-.703.29-1.109s-.097-.774-.29-1.109a2.167 2.167 0 0 0-.774-.793 2.05 2.05 0 0 0-1.07-.29c-.387 0-.748.096-1.071.29a2.13 2.13 0 0 0-.774.793 2.24 2.24 0 0 0-.29 1.11c0 .406.097.773.29 1.108.194.336.452.6.774.794.323.193.684.29 1.071.29.387 0 .748-.097 1.07-.29ZM174.754 60.199h-.612v-5.385h4.036V60.2h-.612v-4.804h-2.805v4.804h-.007ZM181.712 54.814c.342 0 .645.065.909.2.265.136.471.316.613.548.142.232.219.497.219.787 0 .29-.071.555-.219.787-.148.232-.348.419-.613.548-.264.135-.567.2-.909.2h-.961v2.308h-.612v-5.384h1.573v.006Zm0 2.502c.335 0 .606-.084.806-.264.2-.174.297-.406.297-.697 0-.29-.097-.522-.297-.696-.2-.174-.471-.264-.806-.264h-.961v1.921h.961ZM186.02 59.909a2.687 2.687 0 0 1-1.006-1.006 2.744 2.744 0 0 1-.368-1.393c0-.503.123-.968.368-1.393a2.75 2.75 0 0 1 2.405-1.373 2.752 2.752 0 0 1 2.406 1.373c.245.425.367.89.367 1.393a2.743 2.743 0 0 1-2.773 2.766 2.75 2.75 0 0 1-1.399-.367Zm2.476-.503c.323-.194.587-.458.774-.794.194-.335.29-.703.29-1.109s-.096-.774-.29-1.109a2.167 2.167 0 0 0-.774-.793 2.05 2.05 0 0 0-1.07-.29c-.387 0-.748.096-1.071.29a2.127 2.127 0 0 0-.773.793 2.241 2.241 0 0 0-.291 1.11c0 .406.097.773.291 1.108.193.336.451.6.773.794.323.193.684.29 1.071.29.387 0 .748-.097 1.07-.29ZM192.462 57.703v1.922h2.309v.574h-2.921v-5.385h2.844v.574h-2.232v1.728h2.154v.574h-2.154v.013ZM197.77 57.426l2.534 2.773h-.812l-2.374-2.605v2.605h-.612v-5.385h.612v2.496l2.258-2.496h.754l-2.36 2.605v.007ZM202.884 60.199h-.613v-4.804h-1.386v-.574h3.385v.574h-1.386v4.804ZM206.301 59.07l3.534-4.25h.387v5.385h-.613v-4.25l-3.534 4.25h-.387v-5.384h.613v4.25ZM213.762 54.814c.342 0 .645.065.909.2.265.136.471.316.613.548.142.232.219.497.219.787 0 .29-.071.555-.219.787-.148.232-.348.419-.613.548-.264.135-.567.2-.909.2h-.961v2.308h-.613v-5.384h1.574v.006Zm0 2.502c.335 0 .606-.084.806-.264.2-.174.297-.406.297-.697 0-.29-.097-.522-.297-.696-.2-.174-.471-.264-.806-.264h-.961v1.921h.961ZM218.07 59.909a2.687 2.687 0 0 1-1.006-1.006 2.744 2.744 0 0 1-.368-1.393c0-.503.123-.968.368-1.393a2.748 2.748 0 0 1 2.405-1.373 2.752 2.752 0 0 1 2.406 1.373c.245.425.367.89.367 1.393a2.743 2.743 0 0 1-2.773 2.766c-.509 0-.974-.122-1.399-.367Zm2.476-.503c.323-.194.587-.458.774-.794.193-.335.29-.703.29-1.109s-.097-.774-.29-1.109a2.167 2.167 0 0 0-.774-.793 2.05 2.05 0 0 0-1.07-.29c-.387 0-.748.096-1.071.29a2.13 2.13 0 0 0-.774.793 2.24 2.24 0 0 0-.29 1.11c0 .406.097.773.29 1.108.194.336.452.6.774.794.323.193.684.29 1.071.29.387 0 .748-.097 1.07-.29ZM226.963 57.813c.174.232.264.503.264.812 0 .31-.077.568-.232.806a1.58 1.58 0 0 1-.645.568 2.132 2.132 0 0 1-.948.206h-1.496v-5.384h1.425c.342 0 .639.058.89.18.252.123.445.29.574.503.136.213.2.464.2.735 0 .226-.064.439-.193.632a1.28 1.28 0 0 1-.516.445c.284.097.509.265.683.497h-.006Zm-2.451-2.419v1.69h.807c.316 0 .567-.077.754-.239a.761.761 0 0 0 .277-.606.752.752 0 0 0-.277-.606c-.187-.161-.438-.239-.754-.239h-.807Zm.884 4.23c.355 0 .638-.096.858-.29a.914.914 0 0 0 .328-.709.914.914 0 0 0-.328-.71c-.22-.193-.503-.29-.858-.29h-.884v2h.884ZM232.947 60.199h-.664l-.574-1.464h-2.386l-.574 1.464h-.645l2.193-5.385h.464l2.193 5.385h-.007Zm-1.47-2.038-.961-2.431-.961 2.431h1.922ZM237.79 57.123v-2.309h.613V60.2h-.613v-2.496h-2.843V60.2h-.613v-5.385h.613v2.309h2.843ZM240.982 59.07l3.534-4.25h.387v5.385h-.613v-4.25l-3.534 4.25h-.387v-5.384h.613v4.25ZM250.055 54.814V60.2h-.612V57.89h-.729l-1.638 2.309h-.748l1.709-2.354c-.393-.077-.709-.251-.948-.529a1.41 1.41 0 0 1-.355-.967c0-.284.071-.548.22-.78.148-.233.348-.42.612-.555.265-.135.561-.206.903-.206h1.593l-.007.006Zm-.619 2.502v-1.921h-.973c-.329 0-.594.09-.794.27a.892.892 0 0 0-.296.69c0 .278.097.51.296.69.2.181.465.271.794.271h.973ZM89.34 72.387a2.742 2.742 0 0 1-1.374-2.399 2.743 2.743 0 0 1 2.774-2.766 2.75 2.75 0 0 1 2.405 1.373c.245.426.368.89.368 1.393a2.742 2.742 0 0 1-1.374 2.399 2.75 2.75 0 0 1-1.4.368 2.75 2.75 0 0 1-1.399-.368Zm2.47-.497c.323-.193.587-.457.774-.793.194-.335.29-.703.29-1.109s-.096-.774-.29-1.11a2.174 2.174 0 0 0-.774-.792 2.051 2.051 0 0 0-1.07-.29c-.387 0-.748.096-1.07.29a2.124 2.124 0 0 0-.775.793 2.24 2.24 0 0 0-.29 1.11c0 .405.097.773.29 1.108.194.336.452.6.774.793.323.194.684.29 1.07.29.388 0 .749-.096 1.071-.29ZM96.511 72.387a2.657 2.657 0 0 1-.993-1.006 2.742 2.742 0 0 1-.368-1.393c0-.503.123-.967.368-1.393a2.703 2.703 0 0 1 2.367-1.373c.567 0 1.07.154 1.496.464.432.31.754.729.967 1.264h-.651a2.192 2.192 0 0 0-.742-.845 1.86 1.86 0 0 0-1.07-.31c-.4 0-.73.097-1.052.29-.322.194-.58.459-.767.794a2.235 2.235 0 0 0-.284 1.11c0 .405.097.773.284 1.108.187.336.445.6.767.793a2 2 0 0 0 1.052.29c.412 0 .78-.103 1.096-.309.316-.206.567-.49.748-.845h.651a2.776 2.776 0 0 1-.974 1.264c-.431.31-.941.465-1.528.465-.496 0-.954-.123-1.373-.368h.006ZM105.675 69.608v-2.309h.613v5.385h-.613v-2.496h-2.844v2.496h-.612v-5.385h.612v2.309h2.844ZM109.615 72.387a2.687 2.687 0 0 1-1.006-1.006 2.744 2.744 0 0 1-.368-1.393c0-.503.123-.967.368-1.393a2.748 2.748 0 0 1 2.405-1.374 2.752 2.752 0 0 1 2.406 1.374c.245.426.367.89.367 1.393a2.743 2.743 0 0 1-2.773 2.767c-.509 0-.974-.123-1.399-.368Zm2.47-.497c.322-.193.586-.457.773-.793a2.17 2.17 0 0 0 .291-1.109 2.17 2.17 0 0 0-.291-1.11 2.172 2.172 0 0 0-.773-.792 2.055 2.055 0 0 0-1.071-.29c-.387 0-.748.096-1.07.29a2.121 2.121 0 0 0-.774.793 2.24 2.24 0 0 0-.29 1.11c0 .405.096.773.29 1.108.193.336.451.6.774.793.322.194.683.29 1.07.29s.748-.096 1.071-.29ZM118.792 70.291c.174.232.264.503.264.813 0 .31-.077.567-.232.806a1.573 1.573 0 0 1-.645.567 2.132 2.132 0 0 1-.948.207h-1.496v-5.385h1.426c.341 0 .638.058.889.18.252.123.445.29.574.504.136.212.2.464.2.735 0 .225-.064.438-.193.632a1.279 1.279 0 0 1-.516.445c.284.096.509.264.683.496h-.006Zm-2.444-2.418v1.69h.806c.316 0 .568-.078.755-.24a.761.761 0 0 0 .277-.605.752.752 0 0 0-.277-.606c-.187-.162-.439-.24-.755-.24h-.806Zm.883 4.23c.355 0 .639-.096.858-.29a.915.915 0 0 0 .329-.71.915.915 0 0 0-.329-.709c-.219-.193-.503-.29-.858-.29h-.883v2h.883ZM125.072 72.677h-.664l-.574-1.464h-2.386l-.574 1.464h-.645l2.193-5.385h.464l2.193 5.385h-.007Zm-1.47-2.031-.961-2.431-.961 2.43h1.922ZM130.206 69.608v-2.309h.612v5.385h-.612v-2.496h-2.844v2.496h-.613v-5.385h.613v2.309h2.844ZM139.079 70.291c.174.232.265.503.265.813 0 .31-.078.567-.233.806a1.576 1.576 0 0 1-.644.567 2.139 2.139 0 0 1-.948.207h-1.497v-5.385h1.426c.341 0 .638.058.89.18.251.123.445.29.573.504.136.212.2.464.2.735 0 .225-.064.438-.193.632a1.279 1.279 0 0 1-.516.445c.284.096.509.264.684.496h-.007Zm-2.444-2.418v1.69h.806c.316 0 .568-.078.755-.24a.761.761 0 0 0 .277-.605.752.752 0 0 0-.277-.606c-.187-.162-.439-.24-.755-.24h-.806Zm.884 4.23c.354 0 .638-.096.857-.29a.912.912 0 0 0 .329-.71.912.912 0 0 0-.329-.709c-.219-.193-.503-.29-.857-.29h-.884v2h.884ZM143.387 67.912l1.348-.613h.425v5.385h-.613v-4.695l-1.154.529v-.6l-.006-.006ZM149.829 67.467a1.782 1.782 0 0 1 .813 2.16c-.071.2-.194.432-.368.696l-1.528 2.36h-.716l1.309-1.973c-.193.065-.387.09-.587.09-.29 0-.567-.077-.832-.232a1.773 1.773 0 0 1-.87-1.534 1.782 1.782 0 0 1 .916-1.567c.283-.162.593-.245.928-.245.335 0 .645.077.929.245h.006Zm-.316 2.63a1.214 1.214 0 0 0 .6-1.07c0-.225-.052-.432-.161-.625a1.166 1.166 0 0 0-.439-.445 1.17 1.17 0 0 0-.606-.161c-.219 0-.426.051-.606.16a1.214 1.214 0 0 0-.6 1.071 1.214 1.214 0 0 0 .6 1.07c.187.11.387.162.606.162.219 0 .426-.052.606-.161ZM154.827 69.414c.264.155.471.368.632.639.161.27.238.567.238.896 0 .329-.083.632-.245.91a1.777 1.777 0 0 1-.67.657 1.854 1.854 0 0 1-.929.245c-.335 0-.645-.077-.928-.245a1.782 1.782 0 0 1-.813-2.16c.071-.2.193-.432.368-.697l1.528-2.36h.716l-1.309 1.973c.193-.064.387-.09.586-.09.291 0 .568.077.832.232h-.006Zm-.368 2.605a1.213 1.213 0 0 0 .6-1.07c0-.226-.052-.432-.161-.626a1.167 1.167 0 0 0-.439-.445 1.17 1.17 0 0 0-.606-.16c-.219 0-.425.05-.606.16a1.214 1.214 0 0 0-.6 1.07 1.213 1.213 0 0 0 .6 1.07c.187.111.387.163.606.163.219 0 .426-.052.606-.162ZM160.064 70.897h.806v.555h-.806v1.232h-.593v-1.232h-2.522v-.387l2.689-3.766h.426v3.598Zm-.593-2.463-1.722 2.457h1.722v-2.457ZM165.912 72.677h-.612v-5.385h2.805v.574h-2.193v4.811ZM170.504 72.387a2.743 2.743 0 0 1-1.373-2.399 2.744 2.744 0 0 1 2.773-2.766 2.748 2.748 0 0 1 2.773 2.766c0 .503-.123.967-.368 1.393a2.748 2.748 0 0 1-2.405 1.374c-.51 0-.974-.123-1.4-.368Zm2.47-.497a2.12 2.12 0 0 0 .774-.793c.194-.335.29-.703.29-1.109s-.096-.774-.29-1.11a2.167 2.167 0 0 0-.774-.792 2.049 2.049 0 0 0-1.07-.29c-.387 0-.748.096-1.071.29a2.128 2.128 0 0 0-.774.793 2.24 2.24 0 0 0-.29 1.11c0 .405.097.773.29 1.108.194.336.452.6.774.793.323.194.684.29 1.071.29.387 0 .748-.096 1.07-.29ZM180.197 72.103h.69v1.883h-.613v-1.309h-3.882v1.31h-.613v-1.884a.918.918 0 0 0 .645-.393c.161-.226.258-.542.29-.948l.297-3.457h3.186v4.805-.007Zm-.619 0v-4.23h-2.006l-.251 2.882c-.033.368-.078.658-.149.865a1.006 1.006 0 0 1-.322.483h2.728ZM184.118 70.427l1.431-3.128h.645l-2.463 5.385h-.645l.716-1.561-1.89-3.824h.684l1.522 3.128Z"/><path stroke="#151515" stroke-linejoin="bevel" stroke-width=".638" d="M58.116.316H39.11l-9.499 16.457 9.5 16.457h19.004l9.499-16.457-9.5-16.457Z"/><path stroke="#151515" stroke-linejoin="bevel" stroke-width=".761" d="m39.24.8 9.287 4.778 9.305-4.81.465 10.427 8.802 5.623-8.822 5.65-.161 10.762-9.635-5.107-9.305 4.817-.464-10.434-8.803-5.617 8.828-5.655L39.24.8ZM39.111.316l18.663 32.327M58.116.316 39.176 32.94"/><path fill="#151515" d="M67.099 16.773H29.612l8.938 5.533h19.54l9.009-5.533Z"/><path fill="#151515" d="m38.712 22.506 19.585-11.311-9.815 16.928-9.744-16.89 19.54 11.234"/><path fill="#151515" d="m48.553 5.443-6.05 11.51 12.789-.077-6.74-11.433Z"/><path stroke="#151515" stroke-linejoin="bevel" stroke-width=".761" d="M38.737 11.234h19.56"/><path stroke="#151515" stroke-linejoin="bevel" stroke-width=".582" d="M26.448 38.834h223.22"/><path fill="#151515" d="m71.697 32.07 2.96-3.702h.6v4.92h-.755v-3.701l-2.96 3.701h-.6v-4.92h.755v3.701ZM82.737 28.368l.4 4.92h-.755l-.22-3.553-1.753 3.553h-.361l-1.767-3.585-.232 3.585h-.736l.4-4.92h.645l1.877 3.824 1.876-3.824h.626ZM86.09 33.282h-.896v-.974h.897v.974Z"/></g><defs><clipPath id="a"><path fill="#fff" d="M0 0h274v73.986H0z"/></clipPath></defs></svg>