<svg xmlns="http://www.w3.org/2000/svg" fill="none" viewBox="0 0 94 108"><g fill="#3A5C78" clip-path="url(#a)"><path d="m24.29 89.93-5.746-7.69a5.572 5.572 0 0 1-.323-.422c-.102-.145-.21-.296-.323-.452h-.018l.048 6.053c0 .26 0 .518-.006.777-.006.26-.018.5-.036.717.173-.018.37-.036.58-.036.21 0 .395-.012.55-.024v.855h-3.062v-.687c.287 0 .509-.054.658-.168a.894.894 0 0 0 .311-.452c.054-.187.084-.404.084-.657V80.15c0-.204 0-.391.018-.542-.168.012-.347.018-.55.03-.204.012-.377.018-.533.03v-.855h2.04l5.441 7.21c.174.229.335.44.473.638.137.199.275.386.406.56h.018l.018-6.396c0-.229 0-.452.018-.663.012-.21.018-.397.03-.554-.185.012-.383.018-.586.03-.203.012-.389.018-.538.03v-.855h3.062v.687c-.33.012-.568.078-.718.21-.15.133-.24.32-.275.56-.036.242-.054.56-.054.958l-.018 8.704h-.968ZM31.073 89.96c-.724 0-1.37-.168-1.938-.505a3.542 3.542 0 0 1-1.352-1.434c-.329-.614-.496-1.349-.496-2.186 0-.729.162-1.403.485-2.042a4.024 4.024 0 0 1 1.369-1.536c.586-.391 1.268-.584 2.04-.584.43 0 .842.066 1.225.205.389.132.73.343 1.035.632.304.283.544.657.717 1.102.174.446.263 1 .263 1.645l-5.316.096c0 .705.078 1.331.24 1.885.16.549.418.976.777 1.277.358.302.83.452 1.405.452.275 0 .574-.048.891-.15.317-.097.61-.241.897-.428.281-.187.52-.41.718-.669l.478.422c-.311.47-.664.831-1.065 1.096a4.13 4.13 0 0 1-1.225.56 4.615 4.615 0 0 1-1.154.163h.006Zm-1.902-5.42h3.57a3.32 3.32 0 0 0-.162-1.066 1.609 1.609 0 0 0-.502-.753c-.227-.187-.514-.277-.867-.277-.544 0-.993.175-1.346.524-.352.35-.58.873-.693 1.578v-.006ZM38.23 89.756l-1.96-5.788c-.085-.229-.15-.416-.204-.566a5.663 5.663 0 0 1-.126-.392c-.03-.108-.053-.21-.077-.3l-.742.047v-.825h3.415v.639c-.413.012-.646.156-.694.445-.048.29 0 .645.138 1.084l.645 2.084c.072.247.144.5.216.753.071.253.143.506.215.753.084-.259.167-.53.245-.807.084-.277.174-.578.275-.903l1.286-4.048h.987l1.453 4.451c.072.23.15.464.227.71.078.248.15.483.227.712.072-.23.15-.458.227-.687.078-.229.15-.452.21-.669l.879-2.632c.084-.24.155-.451.227-.632.066-.18.15-.343.24-.488l-.898.06v-.825h2.781v.639c-.245.012-.454.06-.616.15-.167.09-.305.199-.424.325-.12.133-.216.277-.288.434-.071.157-.131.32-.185.476l-2.069 5.806h-.957l-1.327-3.939-.168-.536c-.06-.193-.125-.392-.191-.602-.066-.211-.132-.404-.192-.59a10.35 10.35 0 0 1-.19.692c-.079.241-.15.476-.228.699l-.186.584-1.25 3.692h-.908l-.012-.006ZM51.458 89.714v-.699c.311 0 .544-.084.712-.247.167-.168.305-.391.419-.674.113-.283.239-.603.37-.958l3.122-8.607h.616l3.384 8.734c.084.198.174.463.275.8.102.338.15.627.138.862.173-.018.347-.036.52-.036.168 0 .335-.012.485-.024v.855h-3.756v-.687c.36-.012.598-.09.718-.24a.704.704 0 0 0 .137-.555 3 3 0 0 0-.161-.656l-.466-1.26-3.786.091-.448 1.356c-.06.21-.132.403-.204.59-.071.186-.143.367-.215.542a6.02 6.02 0 0 1 .598-.036c.21 0 .4-.012.562-.024v.873h-3.032.012Zm3.014-4.144h3.247l-.974-2.632a25.72 25.72 0 0 1-.353-1.018 35.781 35.781 0 0 1-.311-.976h-.018c-.084.26-.174.542-.281.856-.102.313-.221.65-.353 1.011l-.957 2.753v.006ZM65.618 93.93c-.908 0-1.638-.102-2.188-.301-.55-.205-.945-.464-1.19-.777-.24-.32-.365-.65-.365-1.006 0-.283.066-.542.191-.777.132-.24.3-.452.52-.632.216-.181.461-.325.724-.428-.359-.114-.634-.277-.82-.488-.184-.21-.274-.476-.274-.789 0-.331.131-.656.395-.982.263-.319.64-.542 1.136-.656a2.583 2.583 0 0 1-1.112-.903 2.437 2.437 0 0 1-.431-1.404c-.012-.62.15-1.168.472-1.632a3.371 3.371 0 0 1 1.25-1.09 3.495 3.495 0 0 1 1.597-.392c.317 0 .652.042.987.133.334.09.651.222.926.415a3.32 3.32 0 0 1 .449-.825 2.19 2.19 0 0 1 .658-.59c.25-.145.52-.217.795-.217.3 0 .526.078.682.235.155.157.233.361.233.62a.808.808 0 0 1-.072.301.65.65 0 0 1-.239.302c-.114.084-.269.126-.466.126a.67.67 0 0 1-.443-.163.691.691 0 0 1-.24-.397.814.814 0 0 0-.531.38c-.138.21-.228.427-.27.644.27.24.479.524.629.85.149.324.227.674.227 1.047 0 .59-.156 1.114-.473 1.572a3.305 3.305 0 0 1-1.226 1.072 3.537 3.537 0 0 1-2.135.356 3.308 3.308 0 0 0-.508-.037c-.329 0-.598.079-.813.235-.21.157-.293.344-.24.56.054.23.27.38.653.452.382.073.932.127 1.65.157.795.03 1.477.126 2.045.289.568.163 1.017.41 1.328.74.31.332.472.784.472 1.356 0 .428-.113.801-.347 1.138a2.833 2.833 0 0 1-.927.831c-.388.223-.819.392-1.291.507a6.012 6.012 0 0 1-1.424.168h.007Zm.138-.765c.837 0 1.483-.156 1.938-.47.454-.313.687-.662.687-1.06 0-.33-.113-.59-.34-.77-.228-.181-.545-.314-.951-.392a8.7 8.7 0 0 0-1.43-.133c-.269-.018-.544-.036-.819-.048a5.774 5.774 0 0 1-.771-.078c-.24.168-.419.367-.55.608-.132.241-.198.488-.21.747 0 .476.221.861.664 1.15.443.29 1.035.434 1.776.434l.006.012Zm-.203-6.318c.353 0 .64-.09.873-.271.233-.18.406-.428.526-.729.12-.307.18-.638.18-1.006 0-.427-.06-.825-.186-1.198a2.242 2.242 0 0 0-.538-.904c-.24-.229-.538-.343-.915-.343-.502 0-.897.205-1.172.608-.275.404-.419.892-.419 1.464 0 .458.066.861.192 1.222.125.362.317.639.562.85.245.205.544.313.897.313v-.006ZM74.212 89.96c-.724 0-1.37-.168-1.937-.505a3.541 3.541 0 0 1-1.352-1.434c-.329-.614-.496-1.349-.496-2.186 0-.729.161-1.403.484-2.042a4.024 4.024 0 0 1 1.37-1.536c.586-.391 1.267-.584 2.039-.584.43 0 .843.066 1.226.205.388.132.73.343 1.034.632.305.283.544.657.718 1.102.173.446.263 1 .263 1.645l-5.316.096c0 .705.077 1.331.239 1.885.161.549.419.976.777 1.277.36.302.832.452 1.406.452.275 0 .574-.048.89-.15a3.5 3.5 0 0 0 .898-.428c.28-.187.52-.41.717-.669l.479.422a3.79 3.79 0 0 1-1.065 1.096c-.4.265-.813.452-1.226.56a4.615 4.615 0 0 1-1.154.163h.006Zm-1.901-5.42h3.57c0-.391-.054-.747-.162-1.066a1.61 1.61 0 0 0-.502-.753c-.227-.187-.514-.277-.867-.277-.544 0-.993.175-1.346.524-.353.35-.58.873-.694 1.578v-.006ZM5.86 103.934c-.424-.975-.843-1.951-1.267-2.927-.425-.976-.838-1.957-1.25-2.939-.126-.29-.251-.608-.389-.952-.131-.343-.269-.704-.4-1.09-.132-.385-.264-.77-.39-1.168v1.493c-.011.32-.017.7-.03 1.127l-.035 1.36c-.018.477-.024.953-.03 1.428-.006.476-.012.928-.024 1.362 0 .247 0 .494-.018.728a7.566 7.566 0 0 1-.048.621c.186-.018.383-.036.598-.036.21 0 .401-.012.563-.024v.855H0v-.687c.287-.012.508-.066.664-.168a.766.766 0 0 0 .317-.47c.054-.211.09-.464.101-.765l.216-6.728c.012-.229.018-.458.03-.687.012-.228.018-.427.03-.608-.186.012-.383.018-.587.024-.209 0-.388.012-.538.024v-.843h2.703l2.548 6.132c.125.277.245.578.37.897.126.319.252.626.377.934.132.307.245.596.347.861h.03c.114-.313.24-.657.389-1.03.143-.374.269-.705.37-.994.443-1.12.891-2.24 1.352-3.36.46-1.121.909-2.266 1.351-3.44h2.721v.687c-.245 0-.454.042-.628.132-.167.09-.293.247-.37.476-.078.229-.108.554-.084.982l.34 6.709c.019.211.03.41.025.609 0 .199-.012.361-.024.5.185-.012.382-.018.598-.024.21 0 .394-.012.55-.024v.855H9.46v-.687c.3-.012.527-.072.688-.187.162-.114.263-.295.317-.536.054-.241.066-.56.048-.957l-.245-4.53c-.012-.156-.018-.337-.03-.554l-.036-.668c-.012-.235-.03-.458-.036-.675-.03.072-.06.15-.096.229-.03.078-.06.163-.095.259l-3.325 8.468h-.79v.006ZM18.95 103.778c-.023-.169-.035-.313-.047-.434-.012-.126-.024-.253-.048-.391-.353.355-.724.62-1.13.801-.407.18-.82.271-1.25.271-.742 0-1.304-.187-1.675-.554a1.867 1.867 0 0 1-.562-1.38c0-.475.138-.891.419-1.246a3.14 3.14 0 0 1 1.094-.862 6.065 6.065 0 0 1 1.483-.5 7.94 7.94 0 0 1 1.579-.162v-.916c0-.331-.03-.638-.09-.927a1.35 1.35 0 0 0-.376-.699c-.192-.18-.485-.271-.892-.271a1.791 1.791 0 0 0-.8.15c-.27.109-.473.29-.617.537.084.084.138.18.162.289.024.108.042.21.042.3 0 .145-.06.308-.186.489-.125.18-.335.265-.634.259-.245 0-.436-.085-.562-.26a.948.948 0 0 1-.191-.596c0-.373.137-.704.406-.993.276-.29.646-.518 1.119-.687.472-.169 1.004-.247 1.59-.247.886 0 1.55.235 1.986.699.436.464.658 1.204.658 2.21v1.072c0 .344 0 .687-.006 1.03 0 .344-.006.705-.006 1.09 0 .157 0 .332-.018.53-.012.199-.024.404-.048.621.173-.012.353-.018.538-.03.185-.012.359-.018.526-.018v.825h-2.463Zm-.143-3.735c-.329.019-.67.067-1.01.139a3.565 3.565 0 0 0-.934.325 1.886 1.886 0 0 0-.67.56 1.369 1.369 0 0 0-.256.826c.018.355.137.614.346.777.21.168.46.246.748.246.359 0 .682-.072.957-.21a3.71 3.71 0 0 0 .819-.585 3.327 3.327 0 0 1-.018-.349v-.379c0-.091 0-.265.006-.524 0-.253.006-.53.006-.832l.006.006ZM22.413 103.778v-.657c.311 0 .526-.072.652-.216.126-.145.197-.35.221-.609.024-.259.042-.56.042-.903l.018-3.24c0-.17 0-.344.006-.537 0-.192.024-.38.054-.566-.185.012-.37.018-.562.024-.192 0-.371.012-.533.024v-.825c.467 0 .826-.024 1.089-.072.263-.048.466-.103.604-.163.137-.06.245-.132.317-.205h.556c.012.097.018.181.024.265 0 .085.012.17.018.266 0 .096.012.21.024.355.227-.187.472-.355.741-.5.27-.145.55-.265.843-.35a3.06 3.06 0 0 1 .844-.132c.915 0 1.578.283 1.985.843.407.56.61 1.44.61 2.632v2.632c0 .187 0 .374-.018.567a10.05 10.05 0 0 1-.048.584c.168-.012.335-.018.503-.024.167 0 .328-.012.472-.024v.825H27.43v-.657c.311 0 .527-.072.652-.216.126-.145.198-.35.221-.609.024-.259.042-.56.042-.903v-2.18c-.012-.82-.143-1.44-.394-1.856-.252-.415-.658-.614-1.214-.608-.33 0-.652.084-.975.247a2.855 2.855 0 0 0-.801.608v4.234c0 .187 0 .374-.018.567a10.05 10.05 0 0 1-.048.584c.167-.012.335-.018.502-.024.168 0 .33-.012.473-.024v.825h-3.445l-.012.018ZM36.508 103.778c-.024-.169-.036-.313-.048-.434a4.946 4.946 0 0 0-.047-.391c-.353.355-.724.62-1.13.801-.407.18-.82.271-1.25.271-.742 0-1.304-.187-1.675-.554a1.867 1.867 0 0 1-.562-1.38c0-.475.137-.891.419-1.246a3.142 3.142 0 0 1 1.094-.862 6.065 6.065 0 0 1 1.483-.5 7.94 7.94 0 0 1 1.579-.162v-.916c0-.331-.03-.638-.09-.927a1.349 1.349 0 0 0-.377-.699c-.191-.18-.484-.271-.89-.271a1.791 1.791 0 0 0-.802.15c-.27.109-.473.29-.616.537.084.084.137.18.161.289.024.108.042.21.042.3 0 .145-.06.308-.185.489-.126.18-.335.265-.634.259-.245 0-.437-.085-.562-.26a.948.948 0 0 1-.191-.596c0-.373.137-.704.406-.993.275-.29.646-.518 1.118-.687.473-.169 1.005-.247 1.591-.247.885 0 1.549.235 1.985.699.437.464.658 1.204.658 2.21v1.072c0 .344 0 .687-.006 1.03 0 .344-.006.705-.006 1.09 0 .157 0 .332-.018.53-.012.199-.024.404-.047.621.173-.012.352-.018.538-.03.185-.012.358-.018.526-.018v.825h-2.464Zm-.143-3.735c-.33.019-.67.067-1.011.139a3.565 3.565 0 0 0-.933.325 1.885 1.885 0 0 0-.67.56 1.368 1.368 0 0 0-.257.826c.018.355.138.614.347.777.21.168.46.246.748.246.358 0 .681-.072.956-.21.276-.139.55-.338.82-.585a3.327 3.327 0 0 1-.018-.349v-.379c0-.091 0-.265.006-.524 0-.253.006-.53.006-.832l.006.006ZM43.552 108c-.909 0-1.638-.102-2.189-.301-.55-.205-.944-.464-1.19-.777-.239-.319-.364-.651-.364-1.006 0-.283.065-.542.191-.777.132-.241.299-.452.52-.632.215-.181.46-.326.724-.428-.359-.114-.634-.277-.82-.488-.185-.211-.274-.476-.274-.789 0-.331.131-.656.394-.982.263-.319.64-.542 1.136-.656a2.582 2.582 0 0 1-1.112-.904c-.275-.391-.424-.86-.43-1.403-.012-.62.149-1.168.472-1.632a3.371 3.371 0 0 1 1.25-1.09 3.494 3.494 0 0 1 1.596-.392c.317 0 .652.042.987.133.335.09.652.222.927.415.114-.301.263-.578.449-.825a2.19 2.19 0 0 1 .657-.59c.252-.145.52-.217.796-.217.299 0 .526.078.681.235.156.156.234.361.234.62a.807.807 0 0 1-.072.301.648.648 0 0 1-.24.302c-.113.084-.269.126-.466.126a.67.67 0 0 1-.442-.163.691.691 0 0 1-.24-.397.813.813 0 0 0-.532.38c-.137.21-.227.427-.269.644.27.24.479.524.628.849.15.325.227.675.227 1.048 0 .59-.155 1.114-.472 1.572a3.304 3.304 0 0 1-1.226 1.072 3.537 3.537 0 0 1-2.135.356 3.194 3.194 0 0 0-.508-.037c-.33 0-.598.079-.813.235-.21.157-.294.344-.24.56.054.229.27.38.652.452.383.072.933.127 1.65.157.796.03 1.478.126 2.046.289.568.163 1.016.409 1.327.741.311.331.473.783.473 1.355 0 .428-.114.801-.347 1.138a2.815 2.815 0 0 1-.927.831c-.389.223-.82.392-1.292.506a5.982 5.982 0 0 1-1.423.169h.006Zm.144-.765c.837 0 1.483-.156 1.937-.47.455-.313.688-.662.688-1.06 0-.331-.114-.59-.341-.771-.227-.18-.544-.313-.95-.391a8.729 8.729 0 0 0-1.43-.133c-.27-.018-.544-.036-.82-.048a5.78 5.78 0 0 1-.77-.078c-.24.168-.42.367-.55.608a1.692 1.692 0 0 0-.21.747c0 .476.221.861.664 1.15.442.29 1.034.434 1.776.434l.006.012Zm-.204-6.318c.353 0 .64-.09.873-.271a1.69 1.69 0 0 0 .527-.729c.12-.307.179-.638.179-1.006 0-.427-.06-.825-.185-1.198a2.239 2.239 0 0 0-.539-.904c-.239-.229-.538-.343-.915-.343-.502 0-.897.205-1.172.608-.275.404-.418.892-.418 1.464 0 .458.066.861.191 1.222.126.362.317.639.562.85.245.205.544.313.897.313v-.006ZM52.146 104.031c-.724 0-1.37-.169-1.938-.506a3.537 3.537 0 0 1-1.351-1.434c-.33-.614-.497-1.349-.497-2.186 0-.729.162-1.403.485-2.042a4.023 4.023 0 0 1 1.37-1.536c.585-.391 1.267-.584 2.038-.584.43 0 .843.066 1.226.205.389.132.73.343 1.035.632.305.283.544.657.717 1.103.174.445.264 1 .264 1.644l-5.317.096c0 .705.078 1.331.24 1.885.16.548.418.976.777 1.277.359.301.831.452 1.405.452.275 0 .574-.048.891-.151.317-.096.61-.241.897-.427.281-.187.52-.41.718-.669l.478.422c-.31.47-.664.831-1.064 1.096-.4.265-.814.452-1.226.56a4.594 4.594 0 0 1-1.154.163h.006Zm-1.902-5.421h3.57c0-.391-.054-.747-.161-1.066a1.608 1.608 0 0 0-.503-.753c-.227-.187-.514-.277-.867-.277-.544 0-.992.175-1.345.524-.353.35-.58.873-.694 1.578v-.006ZM56.798 103.778v-.657c.311 0 .527-.072.652-.217.126-.144.198-.349.221-.608.024-.259.042-.56.042-.903v-3.24c0-.17 0-.344.006-.537 0-.192.024-.38.054-.566-.173.012-.359.018-.556.024-.197 0-.377.012-.544.024v-.825c.466 0 .825-.024 1.088-.072.263-.048.467-.103.604-.163.138-.06.245-.132.317-.205h.556c.018.103.036.23.036.368 0 .138.012.289.024.446a4.041 4.041 0 0 1 1.088-.657 3.069 3.069 0 0 1 1.184-.247c.503 0 .927.09 1.262.271.335.18.598.44.796.771a4.993 4.993 0 0 1 1.22-.747 3.296 3.296 0 0 1 1.327-.295c.873 0 1.525.265 1.95.79.424.523.627 1.396.615 2.62l-.017 2.691c0 .187 0 .374-.006.567 0 .192-.024.385-.054.584.167-.012.335-.018.508-.024.173 0 .335-.012.478-.024v.825h-3.402v-.657c.287 0 .49-.072.61-.217.12-.144.191-.349.215-.608a9.96 9.96 0 0 0 .036-.903v-2.24c-.012-.82-.144-1.422-.4-1.808-.258-.385-.647-.578-1.173-.578-.299 0-.592.066-.879.193a3.364 3.364 0 0 0-.771.488c.054.174.09.373.113.584.024.21.036.434.036.662a67.74 67.74 0 0 0-.018 1.566v1.578c0 .187 0 .374-.018.567-.012.192-.023.385-.047.584.167-.012.334-.018.502-.024.167 0 .329-.012.472-.024v.825h-3.432v-.657c.31 0 .526-.072.64-.217.12-.144.191-.349.215-.608a9.96 9.96 0 0 0 .036-.903v-2.259c.012-.82-.108-1.421-.347-1.813-.245-.391-.628-.578-1.154-.566-.3 0-.586.066-.867.193-.275.132-.52.295-.724.487 0 .127 0 .253.006.392 0 .133.006.283.006.434v3.577c0 .187 0 .374-.018.567a10.05 10.05 0 0 1-.048.584c.168-.012.33-.018.497-.024.167 0 .317-.012.466-.024v.825H56.77l.03.03ZM74.463 104.031c-.723 0-1.37-.169-1.937-.506a3.537 3.537 0 0 1-1.352-1.434c-.329-.614-.496-1.349-.496-2.186 0-.729.161-1.403.484-2.042a4.023 4.023 0 0 1 1.37-1.536c.586-.391 1.267-.584 2.039-.584.43 0 .843.066 1.226.205.388.132.73.343 1.034.632.305.283.544.657.718 1.103.173.445.263 1 .263 1.644l-5.316.096c0 .705.077 1.331.239 1.885.161.548.418.976.777 1.277.36.301.832.452 1.406.452.275 0 .574-.048.89-.151.317-.096.61-.241.898-.427.28-.187.52-.41.717-.669l.479.422a3.79 3.79 0 0 1-1.065 1.096c-.4.265-.813.452-1.226.56a4.594 4.594 0 0 1-1.154.163h.006Zm-1.896-5.421h3.57c0-.391-.053-.747-.161-1.066a1.608 1.608 0 0 0-.502-.753c-.228-.187-.515-.277-.867-.277-.545 0-.993.175-1.346.524-.353.35-.58.873-.694 1.578v-.006ZM79.115 103.778v-.657c.311 0 .527-.072.652-.216.126-.145.198-.35.221-.609.024-.259.042-.56.042-.903l.018-3.24c0-.17 0-.344.006-.537 0-.192.024-.38.054-.566-.185.012-.37.018-.562.024-.192 0-.37.012-.532.024v-.825c.466 0 .825-.024 1.088-.072a2.89 2.89 0 0 0 .604-.163c.138-.06.245-.132.317-.205h.556c.012.097.018.181.024.265 0 .085.012.17.018.266 0 .096.012.21.024.355a4.58 4.58 0 0 1 .741-.5 4.3 4.3 0 0 1 .844-.35 3.06 3.06 0 0 1 .843-.132c.915 0 1.579.283 1.985.843.407.56.61 1.44.61 2.632v2.632c0 .187 0 .374-.018.567-.012.192-.024.385-.048.584.168-.012.335-.018.503-.024.167 0 .328-.012.472-.024v.825h-3.444v-.657c.31 0 .526-.072.651-.216.126-.145.198-.35.222-.609.024-.259.041-.56.041-.903v-2.18c-.011-.82-.143-1.44-.394-1.856-.251-.415-.658-.614-1.214-.608-.329 0-.652.084-.975.247a2.855 2.855 0 0 0-.801.608v4.234c0 .187 0 .374-.018.567-.012.192-.024.385-.048.584.168-.012.335-.018.502-.024.168 0 .33-.012.473-.024v.825h-3.445l-.012.018ZM91.483 104.031c-.258 0-.52-.036-.778-.103a1.645 1.645 0 0 1-.717-.403c-.216-.205-.39-.494-.509-.879-.125-.386-.185-.892-.185-1.524l.03-4.253h-1.142v-.873c.28-.012.562-.114.849-.313a2.92 2.92 0 0 0 .76-.795c.215-.332.364-.693.448-1.072h.723v2.18h2.38v.807l-2.38.03-.03 4.156c0 .398.036.741.102 1.036.066.295.18.524.341.687.161.162.377.241.658.241.239 0 .484-.073.735-.217.251-.145.49-.386.718-.717l.526.47c-.245.361-.496.65-.741.855a2.913 2.913 0 0 1-.712.458c-.227.096-.43.163-.616.187a3.66 3.66 0 0 1-.448.036l-.012.006ZM52.869 23.285H40.065L19.512 43.619V11.69h45.083l9.132-9.034H10.542v62.513l42.327-41.884ZM37.943 48.985H50.74l19.34-19.141v30.23H26.723l-9.131 9.035h61.456V8.305l-41.106 40.68Z"/></g><defs><clipPath id="a"><path fill="#fff" d="M0 0h94v108H0z"/></clipPath></defs></svg>