<svg xmlns="http://www.w3.org/2000/svg" fill="none" viewBox="0 0 91 91"><g fill="#30454F" clip-path="url(#a)"><path d="M91 53.477H0v5.328h91v-5.328ZM0 91h5.576v-6.032h31.872V64.15H0v26.866V91Zm5.576-21.538h26.312V79.64H5.576V69.462ZM42.896 84.951h21.087v6.033h5.801V84.95h21.2V64.134H42.88V84.95h.016ZM69.8 69.462h15.64v10.177H69.8V69.462Zm-21.328 0H64v10.177H48.472V69.462ZM48.297 0H26.889v48.228h21.408V0Zm-5.593 42.884H32.481V5.344h10.223v37.54ZM59.353 16.05l10.24-10.706v42.884h5.592V16.05L85.408 5.344v42.884H91V0H83.15l-7.964 8.305V0h-7.852L53.761 14.017v34.211h5.592V16.05ZM15.816 48.228h5.592V0h-7.852L0 14.017v34.211h15.816ZM5.592 16.05 15.816 5.344v37.524H5.592V16.049Z"/></g><defs><clipPath id="a"><path fill="#fff" d="M0 0h91v91H0z"/></clipPath></defs></svg>