<svg xmlns="http://www.w3.org/2000/svg" fill="none" viewBox="0 0 51 40"><path stroke="#676767" stroke-miterlimit="10" stroke-width="2.22" d="M32.583 37.792H18.356c-2.046 0-3.712-1.68-3.712-3.753V5.754C14.645 3.68 16.305 2 18.357 2h13.381a4.35 4.35 0 0 1 3.405 1.639l6.196 7.74c.619.772.957 1.734.957 2.723v9.172"/><path stroke="#7E775E" stroke-miterlimit="10" stroke-width="2.22" d="M42.295 26.356v11.912M49.501 31.062l-7.206 7.206-7.2-7.206"/><path fill="#7E775E" d="M25.388 11.775H0v11.209h25.388V11.775Z"/><path stroke="#676767" stroke-miterlimit="10" stroke-width="2.115" d="M31.743 2v8.37a3.183 3.183 0 0 0 3.182 3.182h7.37"/><path fill="#fff" d="M3 14.01h3.44c.43 0 .81.06 1.15.19.34.13.63.3.87.53.24.23.42.49.56.79.13.3.2.64.2.99s-.07.67-.2.98c-.13.3-.32.57-.56.79-.24.22-.53.4-.87.53-.34.13-.73.19-1.15.19H5.12v1.6H3V14v.01Zm3.25 3.2c.27 0 .47-.06.61-.19.13-.13.2-.3.2-.51 0-.21-.07-.39-.2-.52-.14-.13-.34-.19-.61-.19H5.13v1.41h1.12ZM10.03 14.01h2.78c.55 0 1.06.09 1.51.26.45.17.84.41 1.16.7a3.114 3.114 0 0 1 1 2.34c0 .47-.09.9-.26 1.3-.18.4-.42.75-.74 1.04-.32.3-.71.53-1.16.7-.45.17-.96.26-1.51.26h-2.78v-6.6Zm2.72 4.76c.24 0 .45-.03.64-.1s.35-.16.48-.29c.13-.13.23-.28.3-.46.07-.18.1-.38.1-.61 0-.23-.03-.43-.1-.61a1.31 1.31 0 0 0-.3-.46 1.17 1.17 0 0 0-.48-.29c-.19-.06-.4-.1-.64-.1h-.6v2.92h.6ZM17.33 14.01h5.23v1.79h-3.11v1.08h2.36v1.56h-2.36v2.17h-2.12v-6.6Z"/></svg>