<svg xmlns="http://www.w3.org/2000/svg" width="469" height="85" viewBox="0 0 469 85"><g clip-path="url(#a)"><path d="M199.462 64.478V21.203h25.705c4.801 0 8.469.963 10.971 2.902 2.513 1.938 3.764 4.475 3.764 7.6 0 2.807-1.215 5.157-3.633 7.048-1.168.87-2.359 1.504-3.574 1.915v.622c1.632.458 3.097 1.093 4.384 1.915 2.93 1.973 4.383 4.84 4.383 8.599 0 3.759-1.489 6.801-4.455 9.15-2.966 2.35-7.23 3.524-12.793 3.524H199.45h.012Zm15.675-26.888h5.015c1.251 0 2.144-.212 2.668-.646.525-.435.787-1.14.787-2.138s-.262-1.703-.787-2.138c-.524-.435-1.405-.646-2.668-.646h-5.015v5.568Zm0 16.07h6.266c2.716 0 4.074-1.128 4.074-3.395 0-2.267-1.358-3.395-4.074-3.395h-6.266v6.801-.011ZM246.728 64.478V21.203h36.044v12.37h-20.381v4.017h15.986v10.513h-15.986v4.018h20.381v12.37h-36.044v-.013ZM289.419 64.478V21.203h23.823c5.682 0 10.244 1.563 13.663 4.699 3.431 3.136 5.146 7.13 5.146 11.993s-1.715 8.87-5.146 11.994c-3.43 3.136-7.981 4.699-13.663 4.699h-8.147v9.89h-15.676Zm15.676-22.26h6.265c1.382 0 2.514-.41 3.383-1.233.882-.822 1.322-1.856 1.322-3.09 0-1.233-.44-2.267-1.322-3.09-.881-.821-2.001-1.233-3.383-1.233h-6.265v8.658-.012ZM336.125 64.478V21.203h36.045v12.37h-20.381v4.017h15.985v10.513h-15.985v4.018h20.381v12.37h-36.045v-.013ZM376.648 37.273c0-4.734 1.644-8.599 4.92-11.594 3.275-2.984 7.707-4.488 13.257-4.488h24.455v43.276h-15.676V52.72h-5.324l-6.266 11.747h-15.985l8.147-14.837a12.024 12.024 0 0 1-3.764-2.725c-2.513-2.478-3.764-5.685-3.764-9.644v.012Zm15.986 0c0 1.116.369 2.008 1.096 2.69.726.681 1.727 1.022 2.978 1.022h6.896V33.56h-6.896c-1.215 0-2.192.376-2.943 1.116-.75.74-1.131 1.61-1.131 2.596ZM426.356 64.478V21.203h23.824c5.682 0 10.244 1.563 13.663 4.699 3.43 3.136 5.146 7.13 5.146 11.993s-1.716 8.87-5.146 11.994c-3.431 3.136-7.981 4.699-13.663 4.699h-8.148v9.89h-15.676Zm15.676-22.26h6.266c1.382 0 2.513-.41 3.383-1.233.881-.822 1.322-1.856 1.322-3.09 0-1.233-.441-2.267-1.322-3.09-.882-.821-2.001-1.233-3.383-1.233h-6.266v8.658-.012ZM178.509 39.634V0l-33.305 32.844-20.953-23.4-27.028 30.19h81.286ZM97.223 45.366l27.028 30.19 20.953-23.4L178.509 85V45.366H97.223ZM46.086 30.002c-6.908 0-12.733 4.087-14.496 9.632h1.882c1.727-4.558 6.73-7.87 12.614-7.87 5.885 0 10.888 3.312 12.615 7.87h1.882C58.82 34.089 52.995 30 46.086 30Z"/><path d="M52.519 18.384c-.691-.106-8.636-.693-9.446-.693-.667 0-1.37 0-2.097-.012-6.313-.059-14.174-.118-18.332 3.09-4.216 3.265-6.575 9.608-7.04 18.865h1.787c.441-8.681 2.573-14.555 6.35-17.48 3.168-2.455 9.457-2.725 14.806-2.725.833 0 1.643 0 2.406.012.738 0 1.44.012 2.108.012.667 0 8.576.575 9.16.67 11.936 1.914 20.631 9.714 22.323 19.51h1.81c-1.691-10.677-11.006-19.194-23.847-21.25h.012Z"/><path d="M1.787 39.634C1.87 29.203 2.62 15.67 9.922 9.879c3.252-2.584 9.292-3.171 15.51-3.171 2.81 0 5.67.117 8.314.234 2.287.094 4.455.2 6.253.188l14.509.834c18.582 0 33.913 13.92 35.711 31.67h1.787C90.207 20.909 74.08 6.202 54.556 6.202l-14.509-.834c-1.822 0-3.966-.094-6.23-.188-8.802-.375-19.761-.834-25.014 3.325C.88 14.789.083 28.85 0 39.634h1.787ZM39.773 74.11c.13 0 13.436-.105 13.936-.175 17.475-2.808 29.482-14.144 30.614-28.557h-1.787C81.297 60.848 67.3 69.964 53.47 72.184c-.667.059-12.96.165-13.686.165-15.89 0-28.946-11.912-30.137-26.971H7.861C9.053 61.412 22.918 74.11 39.797 74.11h-.024Z"/><path d="M43.978 62.2c1.191 0 6.67-.259 7.898-.53 9.303-2.02 15.806-8.433 16.855-16.304H66.92c-1.048 7.025-6.98 12.745-15.426 14.578-1 .223-6.3.493-7.516.493-9.6 0-17.534-6.578-18.749-15.07h-1.81c1.215 9.467 9.958 16.832 20.56 16.832Z"/><path d="M46.086 56.255c7.421 0 13.592-4.71 14.818-10.877h-1.81c-1.215 5.192-6.587 9.115-13.008 9.115-6.42 0-11.78-3.923-13.007-9.115h-1.81c1.226 6.167 7.396 10.877 14.817 10.877Z"/><path d="M90.315 45.366c-1.191 18.349-16.796 32.927-35.807 32.927H37.677c-19.023 0-34.628-14.578-35.807-32.927H.06C1.25 64.69 17.653 80.055 37.665 80.055h16.831c20.012 0 36.414-15.365 37.605-34.689h-1.786ZM53.567 12.299c-.357-.047-11.578-.764-12.007-.764-1.31 0-2.787-.035-4.348-.082-7.504-.211-16.831-.458-21.489 3.195-6.277 4.934-7.694 15.048-7.92 24.997h1.786c.214-9.515 1.525-19.123 7.254-23.61 3.11-2.444 8.934-2.914 14.7-2.914 1.917 0 3.823.047 5.622.106 1.584.047 3.06.082 4.395.082.548.012 11.304.705 11.757.752 15.866 2.255 27.337 12.546 29.088 25.596h1.799c-1.74-13.943-13.841-24.95-30.625-27.335l-.012-.023Z"/><path d="M51.483 24.468c-1.037-.2-5.742-.622-6.91-.622-5.11 0-11.434.34-15.02 3.054-4.217 3.184-5.634 8.705-6.087 12.734h1.799c.429-3.689 1.715-8.576 5.372-11.336 3.157-2.385 9.1-2.69 13.937-2.69 1.036 0 5.634.411 6.563.6 8.029 1.55 13.973 6.848 15.545 13.426h1.834c-1.584-7.436-8.147-13.439-17.045-15.154l.012-.012ZM41.881 68.155c.453 0 10.006-.188 10.911-.352 13.39-2.42 22.657-11.29 23.764-22.425h-1.798C73.555 57.09 62.965 64.173 52.47 66.076c-.715.117-9.458.329-10.59.329-12.757 0-23.263-9.245-24.454-21.027h-1.8c1.204 12.757 12.52 22.789 26.254 22.789v-.012Z"/></g><defs><clipPath id="a"><path d="M0 0h469v85H0z"/></clipPath></defs></svg>