<svg xmlns="http://www.w3.org/2000/svg" fill="none" viewBox="0 0 152 60"><path fill="#CF9329" fill-rule="evenodd" d="M4.639 7.304h3.648v2.581l4.711 2.654v2.829H33.81l-3.648-1.81V9.94l4.779 2.412v-4.68h3.733v4.65l4.493-2.509v3.619l-4.62 2.533v1.659l4.62-2.545v3.618l-4.615 2.534v1.688l4.615-2.563v3.456l-4.615 2.527v1.659l4.615-2.527v3.564l-4.609 2.527v1.653l4.609-2.521v3.685l-4.602 2.527v1.635l4.602-2.522v3.565l-4.596 2.521v1.653l4.596-2.515v3.48L38.089 47.6C34.8 54.45 29.414 58.969 21.54 59.06c-8.28-.03-15.35-5.93-16.792-14.018L0 47.6v-3.62l4.657-2.55v-1.623L0 42.347v-3.565l4.645-2.551v-1.653L.03 37.123v-3.679l4.627-2.533v-1.659L.043 31.785v-3.564l4.614-2.533v-1.653L.061 26.538v-3.462l4.596-2.521v-1.634L.073 21.44v-3.618l4.584-2.515v-1.671L.091 16.146v-3.68l4.536-2.532v-2.63h.012ZM18.786 0l2.779 2.684L24.373 0v4.765h4.81l-2.7 2.75 2.7 2.787H24.38v4.777l-2.81-2.672-2.784 2.671v-4.764h-4.803l2.706-2.78-2.706-2.77h4.803V0Zm.924 7.533 1.867-1.851 1.872 1.851-1.872 1.852-1.867-1.852ZM8.274 13.565v1.809h3.399l-3.399-1.81Z" clip-rule="evenodd"/><path fill="#00923F" fill-rule="evenodd" d="M34.898 41.81v.12c0 8.685-6.834 13.643-13.248 13.613-7.515-.133-13.503-6.279-13.376-13.733h26.623Z" clip-rule="evenodd"/><path fill="#0093DD" fill-rule="evenodd" d="M34.916 30.157V41.87H8.244V30.157h26.672Z" clip-rule="evenodd"/><path fill="#DA251D" fill-rule="evenodd" d="M8.232 18.927h26.696l-.012 11.206H8.238l-.006-11.206Z" clip-rule="evenodd"/><path fill="#CF9329" fill-rule="evenodd" d="M19.242 23.788c.17.506.383.995.645 1.46.37 0 .188 0 .559-.037-.328.133-.681.205-1.034.211-.766-.169-1.288-.603-2.14-.784.371.736.894 1.381 1.532 1.9.511-.265 1.046-.494 1.593-.681.085.253.189.5.31.735.432 0 1.089-.09 1.763-.138v.247a25.135 25.135 0 0 0-3.398 1.242c-.76-.386-1.502-.723-2.256-1.11.104-.259.256-.5.45-.705-.31-.428-.608-.718-.93-1.146l.45-.338-1.022-.64c-.072.2-.14.393-.206.604l-.687-.386c-.055.241-.104.482-.152.724l-.608-.404c-.091.253-.177.512-.262.766l-.772-.404v.741l-.474.682 1.052.277.176.429a2.6 2.6 0 0 0-.56 2.744 2.24 2.24 0 0 1 1.028-.784 4 4 0 0 0 .116 2.87c.17-.464.425-.874.93-.892l.565 1.303c-.316.26-.65.5-.997.718l-.456-.983c-.638.187-1.295.32-1.957.398V31.9c-.347.15-.724.344-1.076.495.115.15.261.259.383.41-.201.114-.396.277-.608.398.133.175.273.301.407.482l-.51.453c.115.15.297.301.413.452-.104.175-.402.187-.511.362.2.169.426.326.657.452.127.217.23.495.377.754l.741-.718c.329 1.333.67 1.973 1.04 2.298.152-.47.42-.898.778-1.248a5.96 5.96 0 0 0 1.824 1.441c-.103-.892.128-1.502.79-1.568.152.386.335.76.548 1.116-2.432 2.696-4.445 5.464-3.502 9.09.28-.152.59-.248.906-.284.042.175.072.362.079.543a3.052 3.052 0 0 0-.925-.2l-1.045.218.2.44-.668.477.577.488-.608.561.608.302-.42.657.682.26c-.085.18-.17.355-.262.536l.967.163c.736-.302 1.44-.663 2.116-1.08.79.157 1.617.308 2.48.537.006-.67.06-1.333.158-1.996.31.066.541.325.566.64a2.96 2.96 0 0 0 .358-1.955c.365.03.681.265.809.603a4.53 4.53 0 0 0 .42-2.413c.182-.15.358-.307.528-.476a7.482 7.482 0 0 0 3.15 3.088c.127-.386.407-.7.772-.88.219.09.413.24.54.44l-1.075.26-.547.753c.182.085.364.109.547.193-.116.26-.231.495-.353.754l.608.199c-.049.241-.103.483-.158.724.268 0 .608-.042.845-.073.128.302.219.603.353.893l.68-.356c.092.211.232.44.323.652.334-.151.608-.308.966-.459a93.23 93.23 0 0 0 1.216-2.642 35.902 35.902 0 0 0 1.624-.886l-1.697-2.322a1.97 1.97 0 0 1 1.216-.175A4.01 4.01 0 0 0 29 42.43c.37-.217.79-.332 1.216-.344a9.225 9.225 0 0 0-2.9-2.865 3.454 3.454 0 0 0 1.502-1.441 2.768 2.768 0 0 1-1.63-.272c-.717-.386-.717-1.037-1.824-2.117.274-.398.511-.82.712-1.26.444.132.802.452.99.868a6.504 6.504 0 0 0 .566-3.106c.413.066.79.265 1.076.573a6.808 6.808 0 0 0-.054-3.354 1.752 1.752 0 0 1 1.136.079 4.938 4.938 0 0 0-.857-2.467c.42-.223.93-.145 1.27.181a1.775 1.775 0 0 0-1.063-1.574 2.32 2.32 0 0 0 1.094-.905 1.944 1.944 0 0 1-1.574-.694.716.716 0 0 1 .747-.084c-.225-1.02-.73-1.713-1.623-1.882-.079-.356-.2-.7-.359-1.025a3.167 3.167 0 0 0-2.2.796 2.602 2.602 0 0 0-.858-.163c-.669.133-1.325.338-1.951.603-.316.416-.657.808-.858 1.14-.79.17-1.568.41-2.316.712v-.042Zm1.897 1.345c.353.054.912.332 1.216.21a.855.855 0 0 0 .091-.421 2.381 2.381 0 0 0-.881-.272c-.195.055-.274.338-.414.483h-.012Zm-.188.537c.121-.049.249-.073.377-.085.17.024.334.054.498.097-.06.036-.134.114-.207.114a4.204 4.204 0 0 1-.668-.127Z" clip-rule="evenodd"/><path fill="#1F1A17" fill-rule="evenodd" d="m17.832 37.66.638.94c-.51 1.074-.82 2.136-.401 3.137.979-.844 1.283-1.013 1.61-.826-.558 1.206-.17 2.069.487 2.955.183-.41.468-.772.827-1.043l.675 1.544-.645.56a3.994 3.994 0 0 1-.212 2.118 1.446 1.446 0 0 0-1.022-.422 4.73 4.73 0 0 1 0 1.755.98.98 0 0 0-.827-.428 10.95 10.95 0 0 0-.188 1.942c-.76-.14-1.526-.362-2.286-.501-.669.392-1.368.73-2.091 1.007l-.566-1.966.51-1.653c.39.06.767.17 1.132.32 0-.32-.134-.688-.134-1.007a1.5 1.5 0 0 0-.888.29c-.924-2.956.748-5.84 3.38-8.722Zm-4.256-11.665 2.432-.977c.352.326.668.688.936 1.086-.158.26-.286.543-.383.832l2.195 1.11c-1.526.567-1.976 1.055-2.116 1.526.936.072 1.453.223 1.532.44a3.58 3.58 0 0 0-2.177.869c.426.072.803.301 1.07.639l-.966.67c-.231-.447-.468-.893-.705-1.34a.973.973 0 0 0-1.01.634 5.704 5.704 0 0 1 .061-2.642c-.45 0-.863.23-1.106.603-.25-.862 0-1.785.644-2.412-.152-.338-.261-.682-.413-1.02v-.018h.006Zm5.879-2.14a14.17 14.17 0 0 1 2.176-.604c.274-.362.608-.79.906-1.158a9.294 9.294 0 0 1 1.885-.525c.28.012.56.073.815.181.905-.64 1.623-.892 2.073-.796.182.302.298.633.346.983a1.687 1.687 0 0 1 1.526 1.436.672.672 0 0 0-.687.295c.31.495.821.826 1.399.917a3.89 3.89 0 0 1-1.01.706c.523.229.925.669 1.107 1.206-.608-.133-1.058-.109-1.258.193.437.675.741 1.435.887 2.225a1.095 1.095 0 0 0-1.082.163 8.307 8.307 0 0 1 .036 3.125 1.557 1.557 0 0 0-1.106-.55c-.012.99-.164 1.979-.456 2.926a1.585 1.585 0 0 0-.96-.802 6.693 6.693 0 0 1-.925 1.73c.687.429.912 1.207 1.362 1.762a2.135 2.135 0 0 0 2 .73 6.83 6.83 0 0 1-1.52 1.242 11.556 11.556 0 0 1 2.876 2.684c-.456.03-.888.223-1.216.543a4.629 4.629 0 0 1 1.903 2.11 2.094 2.094 0 0 0-1.216.29c.572.766 1.143 1.569 1.715 2.335-.53.32-1.058.603-1.587.922-.395.796-.705 1.647-1.1 2.45l-2.08-.942c-.31-.64-.608-1.35-.936-1.99.401-.115.796-.163 1.216-.278a1.646 1.646 0 0 0-.84-.766 1.8 1.8 0 0 0-.808.766c-1.897-.808-2.912-2.738-3.8-4.825a1.907 1.907 0 0 0-.936 1.056c-.839-1.381-.523-2.123-.158-2.847-.365-.235-.815-.314-1.824.706a3.943 3.943 0 0 1 .547-2.811 25.129 25.129 0 0 1-1.416-2.527c-.608.108-1.01.543-1.125 1.471a8.494 8.494 0 0 1-1.593-1.308 1.94 1.94 0 0 0-.87 1.146 4.724 4.724 0 0 1-.771-2.172 1.998 1.998 0 0 1-.967-.223c.158-.796.322-1.598.48-2.412.608-.224 1.429-.181 1.873-.35.14.32.34.681.48 1.001.857-.549 1.654-1.152 2.547-1.737a2.15 2.15 0 0 0-.948-.724 4.57 4.57 0 0 1 2.085-.651c-.127-.453-.662-.645-1.483-.676.14-.271.365-.482.644-.603a40.455 40.455 0 0 1 4.864-1.984.515.515 0 0 0 0-.513 14.04 14.04 0 0 1-1.672.097 1.838 1.838 0 0 1-.261-.603c.37.096.748.156 1.13.193.213-.03.414-.097.609-.187.194-.308.303-.664.322-1.026a2.638 2.638 0 0 0-1.046-.295c-.273 0-.413.356-.56.524-.322 0-.686 0-1.009.037a4.68 4.68 0 0 1-.54-1.207l-.043-.06Zm2.784-.46c-.048 0-.11.061-.085.11a.37.37 0 0 0 .292.192c.091 0 .231-.084.322-.066.091.018.322.26.432.253.11-.006.134-.217.073-.326-.06-.108-.103 0-.164 0-.061 0-.116-.108-.207-.114-.091-.006-.225.06-.37.06-.147 0-.195-.102-.293-.096v-.012Zm.475.278c.103 0 .188.115.188.253 0 .14-.085.248-.188.248-.104 0-.183-.109-.183-.248 0-.138.091-.253.195-.253h-.012Z" clip-rule="evenodd"/><path fill="#DA251D" fill-rule="evenodd" d="M17.515 24.867c.65.302 1.325.531 2.019.7.352 0 1.033-.344 1.538-.326.383 0 .608.242 1.216.23-.043.06-.085.096-.134.156-.334 0-.705-.144-.888-.114-.833.229-1.641.524-2.432.874a9.775 9.775 0 0 1-1.307-1.52h-.012ZM25.206 47.57l.991 2.129 2.22 1.019-.894.446-.335-.663-.668.344-.347-.869-.76.085.122-.706-.608-.181.334-.766-.51-.157.455-.67v-.011Zm-11.788-.658.827-.187-.517 1.701.608 2.165-.827-.132.213-.495-.608-.29.389-.639-.517-.29.53-.524-.518-.476.554-.447-.146-.386h.012Zm2.432-22.654.735.428-3.119 1.249.201.53-.827-.228.359-.52-.03-.602.747.374.237-.76.608.404.177-.712.662.35.25-.513ZM12.409 32.1a29.835 29.835 0 0 1-.535 3.016c.267.157.571.26.881.295l-.608.543c-.115-.199-.213-.428-.322-.603-.2-.078-.39-.18-.56-.32.122-.12.36-.15.475-.38-.122-.163-.28-.283-.401-.446.158-.145.31-.307.462-.446-.11-.163-.28-.314-.39-.477.189-.145.438-.283.609-.422-.11-.12-.262-.26-.371-.38.23-.12.54-.205.766-.326V32.1h-.006Z" clip-rule="evenodd"/><path fill="#fff" d="M54.99 20.983v-8.408h1.66v8.408h-1.66Zm.785-6.857v-1.55h5.472v1.55h-5.472Zm4.614 6.857v-8.408h1.666v8.408H60.39ZM63.886 23.74V14.83h1.501v1.357l-.462 1.707.523 1.707v4.137h-1.562Zm3.69-2.63a2.966 2.966 0 0 1-1.532-.398 2.721 2.721 0 0 1-1.04-1.134 3.662 3.662 0 0 1-.37-1.683 3.646 3.646 0 0 1 .376-1.659 2.808 2.808 0 0 1 2.566-1.562 2.962 2.962 0 0 1 1.544.41c.456.272.827.67 1.064 1.14.511 1.056.511 2.28 0 3.336a2.81 2.81 0 0 1-1.064 1.146 3.015 3.015 0 0 1-1.544.404Zm-.365-1.4c.323 0 .645-.072.93-.229.256-.157.469-.38.608-.645a2.093 2.093 0 0 0 0-1.882 1.654 1.654 0 0 0-.608-.651 1.854 1.854 0 0 0-.93-.236 1.85 1.85 0 0 0-.912.236 1.698 1.698 0 0 0-.608.651c-.152.29-.23.615-.225.941a1.93 1.93 0 0 0 .225.935c.14.265.353.488.608.645.274.163.59.247.912.247v-.012ZM71.923 20.983v-6.152h1.544v4.91l-.541-.368 3.605-4.542h1.405v6.152h-1.563v-4.916l.56.362-3.648 4.554h-1.362ZM82.52 20.983v-6.152h1.586v6.152H82.52Zm.608-4.723v-1.429h4.571v1.454l-4.572-.024Zm3.69 4.723v-6.152h1.587v6.152h-1.587ZM93.122 21.11a3.704 3.704 0 0 1-1.757-.404 2.982 2.982 0 0 1-1.185-1.14 3.584 3.584 0 0 1 0-3.366c.28-.476.693-.862 1.185-1.121a3.623 3.623 0 0 1 1.757-.41 3.618 3.618 0 0 1 1.72.41c.505.259.925.657 1.217 1.14a3.55 3.55 0 0 1 0 3.365c-.292.483-.712.88-1.216 1.14a3.704 3.704 0 0 1-1.72.386Zm0-1.411c.323.006.645-.073.924-.23.268-.15.487-.373.639-.639a2.118 2.118 0 0 0 0-1.894 1.763 1.763 0 0 0-.639-.645 1.951 1.951 0 0 0-1.824 0c-.267.15-.492.374-.638.645a2.044 2.044 0 0 0 0 1.894c.152.266.371.489.638.64.274.162.584.247.9.253v-.024ZM96.898 22.732v-3.19h1.43l.315.048h3.751l.323-.048h1.854v3.19h-1.465v-2.448l.547.7h-5.995l.694-.664v2.412h-1.454Zm.56-3.015c.249-.175.444-.416.565-.694.146-.386.231-.796.255-1.206l.244-2.968h4.997v5.103h-1.538v-4.325l.608.604h-3.174l.608-.604-.176 2.316c-.024.47-.128.935-.292 1.376a3.16 3.16 0 0 1-.608.928l-1.49-.53ZM105.27 22.732v-3.19h1.429l.316.048h3.751l.328-.048h1.873v3.19h-1.459v-2.448l.541.7h-5.989l.687-.664v2.412h-1.477Zm.559-3.015c.25-.175.45-.416.572-.694a4.29 4.29 0 0 0 .249-1.206l.243-2.968h4.973v5.103h-1.538v-4.325l.608.604h-3.173l.608-.604-.183 2.316c-.024.47-.127.935-.292 1.376a3.126 3.126 0 0 1-.608.928l-1.459-.53ZM116.888 21.11a3.677 3.677 0 0 1-1.751-.404 2.851 2.851 0 0 1-1.179-1.14 3.609 3.609 0 0 1 0-3.36 2.89 2.89 0 0 1 1.143-1.146 3.336 3.336 0 0 1 1.66-.41 3.204 3.204 0 0 1 1.824.525c.516.344.918.838 1.143 1.417.243.621.304 1.297.176 1.948h-1.49c.11-.422.11-.856 0-1.278a1.686 1.686 0 0 0-1.684-1.303c-.316 0-.626.078-.9.235a1.575 1.575 0 0 0-.608.664c-.152.301-.224.639-.218.977v.265c0 .308.079.61.243.869.164.259.401.47.681.603.31.145.65.217.997.21.352 0 .705-.06 1.033-.18a3.05 3.05 0 0 0 .87-.525l.772.995a3.652 3.652 0 0 1-1.216.76 4.24 4.24 0 0 1-1.496.278Zm-2.383-2.57V17.4h4.14v1.165l-4.14-.025ZM121.235 23.74V14.83h1.502v1.357l-.462 1.707.535 1.707v4.137h-1.575Zm3.691-2.63a2.965 2.965 0 0 1-1.532-.398 2.722 2.722 0 0 1-1.04-1.134 3.684 3.684 0 0 1-.371-1.683 3.65 3.65 0 0 1 .377-1.659 2.808 2.808 0 0 1 2.566-1.562 2.956 2.956 0 0 1 1.532.404c.456.272.827.67 1.064 1.14.51 1.056.51 2.28 0 3.336a2.81 2.81 0 0 1-1.064 1.146 2.961 2.961 0 0 1-1.532.41Zm-.365-1.4c.322 0 .644-.072.93-.229.255-.157.468-.38.608-.645a2.092 2.092 0 0 0 0-1.882 1.651 1.651 0 0 0-.608-.651 1.855 1.855 0 0 0-.93-.236c-.322 0-.632.079-.912.236a1.703 1.703 0 0 0-.608.651c-.152.29-.231.615-.225.941-.006.326.073.645.225.935.14.265.353.488.608.645.274.163.59.247.912.247v-.012ZM128.178 20.983l2.39-3.534.054.82-2.34-3.438h1.823l1.97 3.016-2.055 3.148-1.842-.012Zm2.967-2.49v-1.364h3.897v1.363h-3.897Zm1.173 2.49v-6.152h1.551v6.152h-1.551Zm3.812 0-2.054-3.148 1.969-3.016h1.824l-2.292 3.45.061-.82 2.371 3.534h-1.879ZM139 20.983v-6.152h1.587v6.152H139Zm.796-2.49v-1.364h2.001v1.363h-2.001Zm3.125 2.49-2.17-3.136 2.085-3.016h1.824l-2.432 3.438.061-.82 2.505 3.534h-1.873ZM148.429 21.11a3.703 3.703 0 0 1-1.757-.404 2.895 2.895 0 0 1-1.179-1.14 3.327 3.327 0 0 1-.42-1.683 3.426 3.426 0 0 1 .414-1.677c.267-.482.663-.88 1.143-1.146a3.343 3.343 0 0 1 1.666-.41 3.201 3.201 0 0 1 1.824.525c.516.344.918.838 1.143 1.417.243.621.304 1.297.176 1.948h-1.49c.11-.422.11-.856 0-1.278a1.73 1.73 0 0 0-.608-.947 1.67 1.67 0 0 0-1.07-.356c-.316 0-.632.078-.905.235a1.598 1.598 0 0 0-.608.664c-.152.301-.225.639-.219.977v.265c0 .308.079.61.243.869.164.259.401.47.681.603.316.145.656.217 1.003.21.353 0 .705-.06 1.033-.18.317-.127.608-.302.864-.525l.772.995a3.593 3.593 0 0 1-1.216.76c-.474.181-.979.278-1.49.278Zm-2.389-2.57V17.4h4.128v1.165l-4.128-.025ZM54.99 35.386v-8.402h1.66v8.402h-1.66Zm.785-6.852v-1.55h5.472v1.55h-5.472Zm4.614 6.852v-8.402h1.666v8.402H60.39ZM63.886 38.148V29.24h1.501v1.357l-.462 1.707.523 1.7v4.145h-1.562Zm3.69-2.617a2.898 2.898 0 0 1-1.532-.404 2.648 2.648 0 0 1-1.04-1.134 3.654 3.654 0 0 1-.37-1.677 3.645 3.645 0 0 1 .376-1.659 2.808 2.808 0 0 1 2.566-1.562 2.962 2.962 0 0 1 1.544.41c.456.272.827.67 1.064 1.14a3.81 3.81 0 0 1 0 3.33 2.774 2.774 0 0 1-1.064 1.146 2.961 2.961 0 0 1-1.544.41Zm-.365-1.405c.323.006.645-.073.93-.23.262-.15.469-.374.608-.639a2.106 2.106 0 0 0 0-1.888 1.683 1.683 0 0 0-.608-.645 1.855 1.855 0 0 0-.93-.235 1.85 1.85 0 0 0-.912.235c-.267.15-.486.374-.638.64a1.96 1.96 0 0 0-.225.946c-.006.326.073.645.225.935.14.265.353.483.608.64.286.168.614.253.942.24ZM73.528 35.47a2.294 2.294 0 0 1-1.575-.524 1.8 1.8 0 0 1-.608-1.393c-.024-.58.237-1.14.7-1.496a2.972 2.972 0 0 1 1.902-.561 5.723 5.723 0 0 1 2.031.386v1.128a5.873 5.873 0 0 0-1.824-.362 1.699 1.699 0 0 0-.924.211.697.697 0 0 0-.322.603.666.666 0 0 0 .267.567c.225.15.493.23.76.211.31.006.62-.06.894-.205.25-.127.462-.313.608-.549.146-.229.219-.5.219-.772v-1.206a.947.947 0 0 0-.347-.808 1.91 1.91 0 0 0-1.118-.26c-.31 0-.62.037-.918.115-.353.09-.694.205-1.022.356l-.407-1.206a6.873 6.873 0 0 1 1.283-.447 5.52 5.52 0 0 1 1.216-.132 3.046 3.046 0 0 1 2.073.603c.498.452.76 1.104.717 1.767v3.866h-1.435l-.036-1.164.286.048c-.164.248-.371.465-.608.64-.256.18-.541.325-.84.416a3.363 3.363 0 0 1-.972.169ZM78.78 35.386V29.24h3.174a2.384 2.384 0 0 1 1.502.434c.37.266.584.7.566 1.152 0 .326-.098.652-.286.917a1.672 1.672 0 0 1-.766.603v-.265c.358.066.687.26.918.543.243.295.37.663.364 1.043.013.489-.218.953-.608 1.249a2.39 2.39 0 0 1-1.562.476h-3.301v-.006Zm1.527-.537-.608-.603h2.182a.917.917 0 0 0 .608-.193.666.666 0 0 0 .22-.536.69.69 0 0 0-.22-.55.922.922 0 0 0-.608-.186h-2.036v-1.068h1.927a.88.88 0 0 0 .608-.175.611.611 0 0 0 .2-.494.648.648 0 0 0-.2-.513.881.881 0 0 0-.608-.175h-2.073l.608-.603v5.096ZM85.547 35.386V29.24h1.55v4.91l-.546-.374 3.605-4.536h1.404v6.146h-1.58v-4.91l.559.363-3.6 4.547h-1.392ZM92.697 30.67v-1.43h5.74v1.43h-5.74Zm2.086 4.716v-5.651h1.58v5.651h-1.58ZM102.273 35.543a3.622 3.622 0 0 1-1.757-.41 2.925 2.925 0 0 1-1.18-1.14 3.307 3.307 0 0 1-.42-1.677 3.428 3.428 0 0 1 .414-1.676 2.89 2.89 0 0 1 1.143-1.146 3.343 3.343 0 0 1 1.666-.41 3.2 3.2 0 0 1 1.824.524c.523.344.924.839 1.149 1.418.237.62.298 1.296.17 1.948h-1.483a2.684 2.684 0 0 0 0-1.279 1.73 1.73 0 0 0-.608-.947 1.636 1.636 0 0 0-1.07-.356c-.316 0-.626.079-.9.236a1.595 1.595 0 0 0-.608.657 2.133 2.133 0 0 0-.219.983v.26c0 .307.079.615.243.874.164.26.402.47.681.603.31.15.657.223 1.003.217a2.874 2.874 0 0 0 1.897-.706l.778.996a3.625 3.625 0 0 1-1.216.754c-.48.187-.991.277-1.507.277Zm-2.383-2.57V31.81h4.134v1.164h-4.135ZM105.732 34.102c.292-.067.571-.17.833-.308a.983.983 0 0 0 .413-.446c.11-.272.17-.555.183-.845l.267-3.263h4.973v6.146h-1.574v-5.32l.668.604h-3.234l.681-.604-.219 2.642c-.024.495-.14.977-.346 1.424a2.043 2.043 0 0 1-.815.85c-.45.247-.942.41-1.453.489l-.377-1.37ZM114.14 35.386V29.24h1.587v5.477l-.687-.603h1.958c.285.018.571-.067.802-.236a.842.842 0 0 0 .274-.675.846.846 0 0 0-.274-.682 1.264 1.264 0 0 0-.802-.229h-2.153l-.048-1.273h2.322a2.732 2.732 0 0 1 1.861.604 2.338 2.338 0 0 1 0 3.238 2.748 2.748 0 0 1-1.867.604l-2.973-.079ZM123.619 35.543a3.284 3.284 0 0 1-1.666-.416 2.952 2.952 0 0 1-1.149-1.152 3.53 3.53 0 0 1 0-3.324c.267-.482.668-.88 1.155-1.152a3.306 3.306 0 0 1 1.672-.416c.498 0 .997.097 1.459.29a2.99 2.99 0 0 1 1.118.814l-.918.983a2.436 2.436 0 0 0-.735-.5 2.134 2.134 0 0 0-.864-.182c-.316 0-.626.079-.893.236a1.59 1.59 0 0 0-.596.64 2.144 2.144 0 0 0 0 1.887c.134.265.346.488.608.64.28.156.59.235.912.228.328 0 .65-.066.942-.205.292-.138.541-.343.73-.603l.979.935c-.298.404-.693.73-1.156.935a3.749 3.749 0 0 1-1.598.362ZM126.719 30.67v-1.43h5.733v1.43h-5.733Zm2.08 4.716v-5.651h1.586v5.651h-1.586ZM133.589 35.386V29.24h3.204a2.44 2.44 0 0 1 1.508.435c.365.271.572.7.559 1.151.007.326-.091.652-.285.917a1.676 1.676 0 0 1-.766.604v-.266c.358.066.687.26.918.543.243.295.371.663.364 1.043.013.489-.218.953-.607 1.249a2.39 2.39 0 0 1-1.563.476h-3.332v-.006Zm1.526-.537-.608-.603h2.177a.916.916 0 0 0 .608-.193.666.666 0 0 0 .219-.536.691.691 0 0 0-.219-.55.922.922 0 0 0-.608-.186h-2.037v-1.068h1.927a.872.872 0 0 0 .608-.175.612.612 0 0 0 .201-.494.649.649 0 0 0-.201-.513.872.872 0 0 0-.608-.175h-2.067l.608-.603v5.096ZM142.113 35.47a2.282 2.282 0 0 1-1.581-.524 1.801 1.801 0 0 1-.608-1.393 1.798 1.798 0 0 1 .706-1.496 2.954 2.954 0 0 1 1.896-.561 5.731 5.731 0 0 1 2.037.386v1.128a5.87 5.87 0 0 0-1.824-.362 1.7 1.7 0 0 0-.924.211.697.697 0 0 0-.322.603.69.69 0 0 0 .267.567c.225.15.493.23.76.211.31.006.621-.06.9-.205.249-.127.456-.313.608-.549.146-.229.219-.5.219-.772v-1.206a.948.948 0 0 0-.346-.808 1.912 1.912 0 0 0-1.119-.26c-.31 0-.62.037-.918.115a5.642 5.642 0 0 0-1.016.356l-.413-1.206a6.859 6.859 0 0 1 1.283-.447c.401-.09.808-.132 1.216-.132a3.045 3.045 0 0 1 2.073.603 2.19 2.19 0 0 1 .723 1.767v3.866h-1.44l-.037-1.164.292.048a2.543 2.543 0 0 1-.608.64 2.722 2.722 0 0 1-.839.416 3.218 3.218 0 0 1-.985.169ZM54.99 49.795v-8.407h1.66v8.407h-1.66Zm1.217-3.492v-1.49h1.635v1.49h-1.635Zm3.648 3.492-2.992-4.222 2.894-4.155h2.013l-3.247 4.541v-.82l3.338 4.686-2.006-.03ZM64.445 49.88a2.27 2.27 0 0 1-1.575-.53 1.752 1.752 0 0 1-.608-1.394 1.81 1.81 0 0 1 .693-1.514 2.999 2.999 0 0 1 1.897-.555c.693 0 1.386.133 2.03.386v1.128a5.873 5.873 0 0 0-1.823-.362 1.698 1.698 0 0 0-.924.211.752.752 0 0 0-.055 1.206c.225.151.492.23.76.211.31 0 .62-.066.894-.205.249-.126.462-.32.608-.554.145-.23.219-.495.219-.766v-1.225a.947.947 0 0 0-.347-.808 1.91 1.91 0 0 0-1.119-.26c-.31 0-.62.037-.918.115a5.994 5.994 0 0 0-1.021.35l-.407-1.206a6.845 6.845 0 0 1 1.282-.44 5.52 5.52 0 0 1 1.216-.133 3.11 3.11 0 0 1 2.073.603c.499.452.767 1.104.724 1.773v3.866h-1.44l-.037-1.164.291.048a2.674 2.674 0 0 1-1.447 1.056 3.28 3.28 0 0 1-.966.163ZM69.68 52.557V43.65h1.501v1.357l-.456 1.701.517 1.707v4.143H69.68Zm3.69-2.617a2.949 2.949 0 0 1-1.526-.404 2.737 2.737 0 0 1-1.046-1.134 3.751 3.751 0 0 1-.364-1.683 3.538 3.538 0 0 1 .37-1.653c.237-.47.602-.868 1.052-1.152a2.842 2.842 0 0 1 1.514-.41 2.956 2.956 0 0 1 1.544.404c.462.272.84.67 1.082 1.146.262.513.396 1.086.383 1.665a3.598 3.598 0 0 1-.383 1.665 2.735 2.735 0 0 1-1.063 1.146 2.97 2.97 0 0 1-1.563.41Zm-.359-1.405c.323.006.645-.073.925-.23.26-.15.474-.374.607-.645.158-.29.231-.615.225-.94a1.954 1.954 0 0 0-.225-.942 1.615 1.615 0 0 0-.608-.651 1.951 1.951 0 0 0-1.823 0 1.698 1.698 0 0 0-.608.651 2.02 2.02 0 0 0 0 1.882c.14.265.352.483.608.64.273.156.583.235.9.235ZM80.683 49.952a3.621 3.621 0 0 1-1.757-.41 2.89 2.89 0 0 1-1.18-1.14 3.327 3.327 0 0 1-.419-1.683 3.405 3.405 0 0 1 .414-1.67c.267-.483.662-.881 1.143-1.152a3.338 3.338 0 0 1 1.666-.405 3.256 3.256 0 0 1 1.824.52c.522.343.924.837 1.142 1.416.244.622.304 1.297.177 1.955h-1.484a2.677 2.677 0 0 0 0-1.279 1.745 1.745 0 0 0-.608-.953 1.664 1.664 0 0 0-1.07-.35c-.316 0-.632.079-.906.235a1.59 1.59 0 0 0-.608.658c-.151.301-.224.64-.218.977v.265a1.602 1.602 0 0 0 .924 1.472c.31.15.656.223 1.003.217.353 0 .705-.06 1.034-.187.316-.127.607-.301.863-.525l.778.996a3.591 3.591 0 0 1-1.216.76c-.48.187-.985.283-1.502.283Zm-2.383-2.57V46.22h4.134v1.164H78.3ZM84.143 48.51c.292-.066.572-.168.833-.307a.968.968 0 0 0 .413-.453c.11-.265.17-.548.183-.838l.267-3.263h4.974v6.146h-1.575v-5.32l.662.604h-3.228l.675-.604-.213 2.642a3.947 3.947 0 0 1-.346 1.424 2.07 2.07 0 0 1-.815.862 4.749 4.749 0 0 1-1.453.489l-.377-1.382ZM92.551 49.795V43.65h1.55v4.91l-.54-.374 3.605-4.536h1.404v6.146h-1.562v-4.91l.553.357-3.618 4.553h-1.392ZM100.315 49.795V43.65h1.55v4.91l-.547-.374 3.611-4.536h1.405v6.146h-1.563v-4.91l.554.357-3.618 4.553h-1.392Z"/></svg>