<svg xmlns="http://www.w3.org/2000/svg" fill="none" viewBox="0 0 24 16"><g clip-path="url(#a)"><path fill="#7E775E" d="M22.421 6.354 17.465 0h-5.008l2.498 4.556c-1.345.555-2.443 1.542-3.094 2.773a5.827 5.827 0 0 0-.65-.975L6.257 0h-5.01l2.497 4.556C1.54 5.466 0 7.53 0 9.939c0 3.245 2.8 5.878 6.256 5.878 2.458 0 4.582-1.332 5.605-3.268 1.023 1.936 3.149 3.268 5.604 3.268 3.454 0 6.256-2.63 6.256-5.878 0-1.35-.484-2.593-1.3-3.585Z"/></g><defs><clipPath id="a"><path fill="#fff" d="M0 0h23.721v15.815H0z"/></clipPath></defs></svg>