<svg xmlns="http://www.w3.org/2000/svg" fill="none" viewBox="0 0 193 55"><path fill="#57B9A6" d="M53.454 19.12a25.898 25.898 0 0 0-3.266-7.174 25.717 25.717 0 0 0-5.514-6.056l2.923-4.407L27.872.275l8.814 17.658 3.485-5.255a17.713 17.713 0 0 1 6.134 14.059l8.099.292a25.699 25.699 0 0 0-.95-7.909ZM35.854 41.344a17.782 17.782 0 0 1-15.3-1.7l-4.296 6.86a25.813 25.813 0 0 0 7.337 3.127 25.996 25.996 0 0 0 7.858.756 25.773 25.773 0 0 0 8.253-1.844l2.423 4.529L52.57 36.32l-19.751-.65 3.036 5.674ZM13.317 22.082a17.726 17.726 0 0 1 8.87-12.56L18.24 2.455A25.892 25.892 0 0 0 7.504 13.873a25.655 25.655 0 0 0-2.362 8.106L0 21.914l9.664 17.21 10.097-16.96-6.444-.082ZM86.392 0C71.239 0 58.955 12.264 58.955 27.39c0 15.128 12.284 27.391 27.437 27.391 2.59 0 5.099-.358 7.475-1.029-1.692-1.917-3.207-4.262-4.514-6.991 0 0-1.948-3.958-3.374-10.875-1.112-5.394-1.162-17.119-1.162-17.119s-4.222 7.93-3.771 15.894c.316 5.584 1.685 9.555 2.475 11.431a15.768 15.768 0 0 1-7.066-3.206c-7.645-6.116-9.087-16.465-3.324-26.094C77.916 8.8 89.451 5.329 89.451 5.329s4.045 8.711 9.04 13.974c6.518 6.865 4.639 17.69.484 22.254-1.18 1.296-2.888 2.455-4.905 3.312 1.42 2.896 3.063 5.187 4.914 6.864 8.818-4.555 14.844-13.745 14.844-24.341C113.829 12.264 101.545 0 86.392 0Z"/><path stroke="#57B9A6" stroke-miterlimit="10" stroke-width="2.717" d="M159.374 50.093c12.971 0 23.486-10.497 23.486-23.447 0-12.949-10.515-23.446-23.486-23.446s-23.486 10.497-23.486 23.446c0 12.95 10.515 23.447 23.486 23.447Z"/><path stroke="#57B9A6" stroke-miterlimit="10" stroke-width="2.717" d="M159.374 50.093c4.936 0 8.938-10.497 8.938-23.447 0-12.949-4.002-23.446-8.938-23.446-4.936 0-8.937 10.497-8.937 23.446 0 12.95 4.001 23.447 8.937 23.447ZM135.888 26.646h44.143M138.716 16.145h37.967M138.381 37.98h37.967"/><path fill="#57B9A6" d="M140.638 32.124c7.305 9.539 6.019 22.772 6.019 22.772s-13.13-2.23-20.435-11.77c-7.305-9.538-6.019-22.772-6.019-22.772s13.13 2.23 20.435 11.77ZM176.407 5.69a18.377 18.377 0 0 0-2.431 2.24c3.725 2.052 6.444 5.701 7.229 10.023a18.47 18.47 0 0 0 3.127-1.916c6.87-5.244 8.477-14.669 8.477-14.669s-9.532-.923-16.402 4.32v.002Z"/></svg>