<svg id="social-in" viewBox="0 0 15 15"><path fill-rule="evenodd" d="M4 0h7a3.995 3.995 0 0 1 4 4v7a3.995 3.995 0 0 1-4 4H4a3.995 3.995 0 0 1-4-4V4a3.995 3.995 0 0 1 4-4Zm0 2h7a1.966 1.966 0 0 1 1.41.59A2.025 2.025 0 0 1 13 4v7a1.966 1.966 0 0 1-.59 1.41A2.026 2.026 0 0 1 11 13H4a1.966 1.966 0 0 1-1.41-.59A2.025 2.025 0 0 1 2 11V4a1.966 1.966 0 0 1 .59-1.41A2.026 2.026 0 0 1 4 2Zm3.5 2a3.5 3.5 0 0 1 3.44 4.18 3.455 3.455 0 0 1-.96 1.79 3.528 3.528 0 0 1-1.79.96 3.411 3.411 0 0 1-2.02-.2A3.478 3.478 0 0 1 4.6 9.44a3.547 3.547 0 0 1-.59-1.95 3.5 3.5 0 0 1 3.5-3.5Zm0 2a1.489 1.489 0 0 1 1.38.92 1.506 1.506 0 0 1-1.1 2.05 1.449 1.449 0 0 1-.87-.09 1.5 1.5 0 0 1-.67-.55 1.469 1.469 0 0 1-.25-.83A1.5 1.5 0 0 1 7.49 6Z"></path></svg>