<svg xmlns="http://www.w3.org/2000/svg" fill="none" viewBox="0 0 333 129"><path fill="#7E775E" d="M100.973 206.731h7.015l58.07-71.192 59.731 71.192h7.089l-66.87-79.737-65.035 79.737Z"/><path fill="#7E775E" d="M50.487 206.731h6.99L166.528 72.128 275.706 206.73h7.014L166.529 63.484 50.487 206.731Z"/><path fill="#7E775E" d="M6.99 206.732 167.023 8.668l158.597 198.064h6.965L167.049 0 0 206.732h6.99Z"/><path fill="#7E775E" d="M25.231 206.732h6.99L166.777 40.411l133.887 166.321h6.989L166.802 31.742l-141.57 174.99Z"/><path fill="#7E775E" d="M75.742 206.731h6.99l83.574-102.885 84.441 102.885h7.039L166.281 95.227 75.742 206.73Z"/></svg>