<svg xmlns="http://www.w3.org/2000/svg" fill="none" viewBox="0 0 408 369"><path fill="#57B9A6" fill-rule="evenodd" d="M206.43 3.242c-66.733 0-120.836 54.24-120.836 121.153 0 66.914 54.103 121.153 120.836 121.153 66.732 0 120.835-54.239 120.835-121.153 0-66.914-54.103-121.153-120.835-121.153ZM83.11 124.395C83.11 56.115 138.318.757 206.43.757c68.11 0 123.32 55.358 123.32 123.638s-55.21 123.638-123.32 123.638c-68.111 0-123.32-55.358-123.32-123.638Z" clip-rule="evenodd"/><path fill="#57B9A6" fill-rule="evenodd" d="M124.078 123.85c-66.732 0-120.835 54.239-120.835 121.153 0 66.914 54.103 121.153 120.835 121.153s120.835-54.239 120.835-121.153c0-66.914-54.103-121.153-120.835-121.153ZM.758 245.003c0-68.28 55.21-123.638 123.32-123.638 68.111 0 123.32 55.358 123.32 123.638s-55.209 123.638-123.32 123.638c-68.11 0-123.32-55.358-123.32-123.638Z" clip-rule="evenodd"/><path fill="#57B9A6" fill-rule="evenodd" d="M284.629 123.85c-66.733 0-120.835 54.239-120.835 121.153 0 66.914 54.102 121.153 120.835 121.153 66.732 0 120.835-54.239 120.835-121.153 0-66.914-54.103-121.153-120.835-121.153Zm-123.32 121.153c0-68.28 55.209-123.638 123.32-123.638 68.111 0 123.32 55.358 123.32 123.638s-55.209 123.638-123.32 123.638c-68.111 0-123.32-55.358-123.32-123.638Z" clip-rule="evenodd"/><path fill="#57B9A6" d="m241.816 80.418-4.094 11.271h-1.673l4.714-12.367h1.079l-.026 1.096Zm3.432 11.271-4.103-11.271-.025-1.096h1.078l4.732 12.367h-1.682Zm-.213-4.578v1.342h-6.948v-1.342h6.948ZM233.746 90.356v1.333h-9.36v-1.333h9.36Zm-9.097 0v4.374h-1.622l-.008-4.374h1.63Zm10.524 0-.017 4.366h-1.622v-4.366h1.639Zm-3.032-11.034v1.342h-5.419v-1.342h5.419Zm1.41 0V91.69h-1.631V79.322h1.631Zm-7.39 0h1.64l-.255 4.978a17.187 17.187 0 0 1-.212 2.072 14.104 14.104 0 0 1-.4 1.724 9.205 9.205 0 0 1-.543 1.402 6.455 6.455 0 0 1-.654 1.062 4.069 4.069 0 0 1-.731.73c-.249.187-.501.32-.756.4h-.747v-1.334h.526c.148-.159.315-.388.501-.688.193-.3.383-.688.57-1.164.192-.481.359-1.067.501-1.758.147-.69.246-1.506.297-2.446l.263-4.978ZM221.856 85.115v.782c0 .928-.116 1.76-.349 2.497-.232.736-.566 1.362-1.002 1.877a4.35 4.35 0 0 1-1.571 1.18c-.606.272-1.286.408-2.039.408-.73 0-1.401-.136-2.013-.407a4.531 4.531 0 0 1-1.58-1.181c-.441-.515-.784-1.141-1.028-1.877-.243-.737-.365-1.569-.365-2.498v-.781c0-.929.119-1.758.357-2.489.243-.736.586-1.362 1.028-1.877a4.394 4.394 0 0 1 1.571-1.19 4.904 4.904 0 0 1 2.013-.407c.753 0 1.433.136 2.039.408a4.31 4.31 0 0 1 1.571 1.19c.442.514.779 1.14 1.011 1.876.238.73.357 1.56.357 2.489Zm-1.623.782v-.799c0-.736-.076-1.387-.229-1.954-.147-.566-.365-1.041-.654-1.427a2.824 2.824 0 0 0-1.062-.874 3.22 3.22 0 0 0-1.41-.298c-.509 0-.971.1-1.384.297-.408.199-.759.49-1.054.875-.288.386-.512.861-.671 1.427-.158.567-.237 1.218-.237 1.954v.799c0 .741.079 1.398.237 1.97.159.566.385 1.045.68 1.435.3.386.654.677 1.062.875a3.16 3.16 0 0 0 1.384.298c.532 0 1.005-.1 1.419-.298a2.77 2.77 0 0 0 1.044-.875c.289-.39.507-.869.654-1.435.148-.572.221-1.229.221-1.97ZM205.921 86.84h-3.305v-1.334h3.305c.64 0 1.158-.102 1.554-.306.396-.204.685-.487.866-.85.187-.362.281-.775.281-1.24a2.64 2.64 0 0 0-.281-1.197 2.072 2.072 0 0 0-.866-.9c-.396-.233-.914-.349-1.554-.349h-2.922V91.69h-1.64V79.322h4.562c.934 0 1.724.162 2.369.484.646.323 1.136.77 1.47 1.342.334.567.501 1.215.501 1.946 0 .792-.167 1.469-.501 2.03-.334.56-.824.988-1.47 1.282-.645.289-1.435.433-2.369.433ZM190.648 88.852l6.091-9.53h1.639V91.69h-1.639v-9.538l-6.091 9.538h-1.63V79.322h1.63v9.53ZM182.528 86.84h-3.304v-1.334h3.304c.64 0 1.158-.102 1.554-.306.397-.204.686-.487.867-.85.187-.362.28-.775.28-1.24a2.64 2.64 0 0 0-.28-1.197 2.069 2.069 0 0 0-.867-.9c-.396-.233-.914-.349-1.554-.349h-2.922V91.69h-1.639V79.322h4.561c.934 0 1.724.162 2.37.484.645.323 1.135.77 1.469 1.342.334.567.502 1.215.502 1.946 0 .792-.168 1.469-.502 2.03-.334.56-.824.988-1.469 1.282-.646.289-1.436.433-2.37.433ZM174.994 79.322V91.69h-1.631V80.664h-6.099V91.69h-1.639V79.322h9.369ZM354.434 250.036v12.367h-1.639v-12.367h1.639Zm7.619 0-5.368 6.804h-2.905l-.255-1.359h2.183l4.315-5.445h2.03Zm-1.647 12.367-4.647-5.776.918-1.435 5.733 7.211h-2.004ZM350.689 261.07v1.333h-6.549v-1.333h6.549Zm-6.218-11.034v12.367h-1.639v-12.367h1.639Zm5.352 5.317v1.334h-5.683v-1.334h5.683Zm.781-5.317v1.342h-6.464v-1.342h6.464ZM336.402 256.619h-3.135l-.017-1.317h2.846c.47 0 .88-.079 1.231-.237.351-.159.623-.385.816-.68.198-.3.297-.657.297-1.07 0-.453-.088-.821-.263-1.104-.17-.289-.433-.499-.79-.629-.351-.136-.799-.204-1.342-.204h-2.412v11.025h-1.64v-12.367h4.052c.634 0 1.2.065 1.699.195.498.125.92.323 1.265.595.351.266.617.606.799 1.019.181.414.271.909.271 1.487 0 .509-.13.971-.39 1.384a3.007 3.007 0 0 1-1.088 1.003c-.458.26-.996.427-1.613.501l-.586.399Zm-.077 5.784h-3.703l.926-1.333h2.777c.521 0 .963-.091 1.325-.272.368-.181.649-.436.841-.764.193-.335.289-.728.289-1.181 0-.459-.082-.855-.246-1.189a1.706 1.706 0 0 0-.773-.773c-.351-.181-.805-.272-1.359-.272h-2.336l.017-1.317h3.193l.349.476c.594.051 1.098.221 1.512.51.413.283.727.645.942 1.087.221.442.332.929.332 1.461 0 .77-.17 1.421-.51 1.954-.334.526-.807.928-1.418 1.206-.612.271-1.331.407-2.158.407ZM329.538 255.829v.781c0 .929-.116 1.762-.348 2.498-.232.736-.566 1.362-1.002 1.877-.436.515-.96.909-1.572 1.181-.606.271-1.285.407-2.038.407a4.91 4.91 0 0 1-2.013-.407 4.53 4.53 0 0 1-1.58-1.181c-.442-.515-.784-1.141-1.028-1.877-.243-.736-.365-1.569-.365-2.498v-.781c0-.929.119-1.758.357-2.489.243-.736.586-1.362 1.027-1.877a4.408 4.408 0 0 1 1.572-1.189 4.894 4.894 0 0 1 2.013-.408c.753 0 1.432.136 2.038.408a4.306 4.306 0 0 1 1.572 1.189c.441.515.778 1.141 1.011 1.877.237.731.356 1.56.356 2.489Zm-1.622.781v-.798c0-.736-.077-1.387-.229-1.954-.148-.566-.366-1.042-.654-1.427a2.82 2.82 0 0 0-1.062-.874 3.215 3.215 0 0 0-1.41-.298c-.51 0-.971.099-1.385.298a2.929 2.929 0 0 0-1.053.874c-.289.385-.512.861-.671 1.427-.159.567-.238 1.218-.238 1.954v.798c0 .742.079 1.399.238 1.971.159.566.385 1.045.68 1.436.3.385.654.676 1.061.874.414.199.875.298 1.385.298.532 0 1.005-.099 1.418-.298a2.762 2.762 0 0 0 1.045-.874c.289-.391.507-.87.654-1.436.147-.572.221-1.229.221-1.971ZM315.651 250.036v1.342h-5.657v-1.342h5.657Zm1.41 0v12.367h-1.639v-12.367h1.639Zm-7.628 0h1.631l-.28 6.056c-.04.872-.108 1.651-.204 2.336a9.557 9.557 0 0 1-.391 1.775c-.17.499-.39.912-.662 1.241a2.522 2.522 0 0 1-1.002.722c-.391.158-.861.237-1.41.237h-.442v-1.333l.34-.026a2.04 2.04 0 0 0 .815-.212c.232-.125.428-.311.586-.561.164-.249.297-.572.399-.968.102-.396.182-.88.238-1.452.062-.578.111-1.252.145-2.022l.237-5.793ZM305.67 261.07v1.333h-6.548v-1.333h6.548Zm-6.217-11.034v12.367h-1.64v-12.367h1.64Zm5.351 5.317v1.334h-5.682v-1.334h5.682Zm.781-5.317v1.342h-6.463v-1.342h6.463ZM285.752 250.036h1.639v3.865c0 .64.094 1.141.281 1.503.186.363.47.618.849.765.379.147.852.221 1.418.221a12.074 12.074 0 0 0 2.829-.349c.3-.073.595-.153.883-.237v1.342c-.277.085-.555.164-.832.237a9.267 9.267 0 0 1-.849.187c-.289.051-.601.091-.935.119-.328.029-.693.043-1.096.043-.872 0-1.622-.125-2.25-.374a2.905 2.905 0 0 1-1.436-1.223c-.334-.561-.501-1.305-.501-2.234v-3.865Zm7.483 0h1.64v12.367h-1.64v-12.367Z"/><path fill="#292929" d="M146.624 168h126v53h-126v-53Z"/><path fill="#fff" d="M249.781 208.38v1.334h-6.549v-1.334h6.549Zm-6.218-11.033v12.367h-1.639v-12.367h1.639Zm5.351 5.317v1.333h-5.682v-1.333h5.682Zm.782-5.317v1.342h-6.464v-1.342h6.464ZM231.213 206.877l6.09-9.53h1.639v12.367h-1.639v-9.539l-6.09 9.539h-1.631v-12.367h1.631v9.53ZM223.696 197.347v12.367h-1.614v-12.367h1.614Zm3.975 0v1.342h-9.556v-1.342h9.556ZM208.67 206.877l6.09-9.53h1.639v12.367h-1.639v-9.539l-6.09 9.539h-1.631v-12.367h1.631v9.53ZM200.532 203.93h-3.134l-.017-1.317h2.846c.47 0 .88-.079 1.231-.238.351-.158.623-.385.816-.679.198-.301.297-.657.297-1.071 0-.453-.088-.821-.263-1.104-.17-.289-.434-.498-.79-.628-.351-.136-.799-.204-1.342-.204h-2.413v11.025h-1.639v-12.367h4.052c.634 0 1.2.065 1.698.195.499.125.921.323 1.266.595.351.266.617.606.798 1.019.182.413.272.909.272 1.486 0 .51-.13.971-.39 1.385a2.996 2.996 0 0 1-1.088 1.002c-.458.261-.996.428-1.614.501l-.586.4Zm-.076 5.784h-3.703l.925-1.334h2.778c.521 0 .963-.09 1.325-.271.368-.182.648-.436.841-.765.192-.334.289-.728.289-1.181 0-.458-.082-.855-.247-1.189a1.702 1.702 0 0 0-.773-.773c-.351-.181-.804-.271-1.359-.271h-2.335l.017-1.317h3.193l.349.476c.594.051 1.098.22 1.511.509.414.283.728.646.943 1.087.221.442.332.929.332 1.461 0 .771-.17 1.422-.51 1.954-.334.527-.807.929-1.419 1.206-.611.272-1.33.408-2.157.408ZM189.584 203.777h-1.469v-1.045h1.41c.623 0 1.127-.088 1.512-.263.385-.176.665-.42.841-.731.175-.311.263-.671.263-1.079 0-.39-.096-.747-.289-1.07-.192-.328-.49-.589-.892-.781-.402-.199-.92-.298-1.554-.298-.476 0-.906.091-1.291.272a2.244 2.244 0 0 0-.917.739c-.227.312-.34.671-.34 1.079h-1.64c0-.527.111-1 .332-1.419.221-.424.523-.784.909-1.078.385-.301.829-.53 1.333-.688a5.392 5.392 0 0 1 1.614-.238c.662 0 1.263.076 1.801.229.538.147.999.368 1.384.663.385.294.68.659.884 1.095.203.436.305.943.305 1.521 0 .424-.099.824-.297 1.197a3.032 3.032 0 0 1-.849.986c-.368.283-.81.507-1.325.671a5.872 5.872 0 0 1-1.725.238Zm-1.469-.722h1.469c.697 0 1.317.07 1.861.212.543.142 1.002.348 1.376.62.373.272.656.609.849 1.011.198.396.297.852.297 1.367 0 .578-.113 1.09-.34 1.538-.22.447-.535.826-.942 1.138a4.305 4.305 0 0 1-1.453.705 6.653 6.653 0 0 1-1.826.238 6.233 6.233 0 0 1-1.58-.204 4.6 4.6 0 0 1-1.401-.646 3.37 3.37 0 0 1-1.011-1.121c-.249-.453-.374-.996-.374-1.631h1.639c0 .414.114.793.34 1.139.232.345.552.622.96.832.408.204.883.306 1.427.306.623 0 1.149-.097 1.58-.289.436-.198.767-.467.994-.807.232-.345.348-.733.348-1.164 0-.379-.062-.708-.187-.985a1.68 1.68 0 0 0-.535-.697 2.274 2.274 0 0 0-.875-.399 4.803 4.803 0 0 0-1.206-.136h-1.41v-1.027ZM179.026 198.442l-4.094 11.272h-1.673l4.714-12.367h1.079l-.026 1.095Zm3.432 11.272-4.103-11.272-.025-1.095h1.078l4.732 12.367h-1.682Zm-.213-4.578v1.342h-6.948v-1.342h6.948ZM169.207 204.864h-3.304v-1.334h3.304c.64 0 1.158-.102 1.554-.305a1.91 1.91 0 0 0 .867-.85c.186-.362.28-.776.28-1.24 0-.425-.094-.824-.28-1.198a2.074 2.074 0 0 0-.867-.9c-.396-.232-.914-.348-1.554-.348h-2.922v11.025h-1.639v-12.367h4.561c.934 0 1.724.161 2.37.484.645.323 1.135.77 1.469 1.342.334.566.501 1.215.501 1.945 0 .793-.167 1.469-.501 2.03-.334.561-.824.988-1.469 1.283-.646.288-1.436.433-2.37.433ZM262.887 188.38v1.334h-6.549v-1.334h6.549Zm-6.217-11.033v12.367h-1.64v-12.367h1.64Zm5.351 5.317v1.333h-5.683v-1.333h5.683Zm.781-5.317v1.342h-6.464v-1.342h6.464ZM252.575 183.14v.781c0 .929-.116 1.761-.348 2.497-.232.736-.566 1.362-1.002 1.877a4.34 4.34 0 0 1-1.572 1.181c-.605.272-1.285.408-2.038.408a4.894 4.894 0 0 1-2.013-.408 4.517 4.517 0 0 1-1.58-1.181c-.442-.515-.784-1.141-1.028-1.877-.243-.736-.365-1.568-.365-2.497v-.781c0-.929.119-1.759.357-2.489.243-.736.586-1.362 1.027-1.877a4.41 4.41 0 0 1 1.572-1.19 4.91 4.91 0 0 1 2.013-.407c.753 0 1.433.136 2.038.407a4.309 4.309 0 0 1 1.572 1.19c.442.515.778 1.141 1.011 1.877.237.73.356 1.56.356 2.489Zm-1.622.781v-.798c0-.737-.076-1.388-.229-1.954-.148-.566-.366-1.042-.654-1.427a2.823 2.823 0 0 0-1.062-.875 3.222 3.222 0 0 0-1.41-.297c-.51 0-.971.099-1.385.297a2.94 2.94 0 0 0-1.053.875c-.289.385-.512.861-.671 1.427-.158.566-.238 1.217-.238 1.954v.798c0 .742.08 1.399.238 1.971.159.566.385 1.044.68 1.435.3.385.654.677 1.061.875.414.198.875.297 1.385.297.532 0 1.005-.099 1.418-.297.414-.198.762-.49 1.045-.875.289-.391.507-.869.654-1.435.147-.572.221-1.229.221-1.971ZM236.623 183.93h-3.134l-.017-1.317h2.845c.47 0 .881-.079 1.232-.238.351-.158.623-.385.815-.679.199-.301.298-.657.298-1.071 0-.453-.088-.821-.264-1.104-.169-.289-.433-.498-.789-.628-.352-.136-.799-.204-1.343-.204h-2.412v11.025h-1.639v-12.367h4.051c.635 0 1.201.065 1.699.195.499.125.92.323 1.266.595.351.266.617.606.798 1.019.182.413.272.909.272 1.486 0 .51-.13.971-.391 1.385-.26.408-.622.742-1.087 1.002-.459.261-.996.428-1.614.501l-.586.4Zm-.076 5.784h-3.704l.926-1.334h2.778c.521 0 .962-.09 1.325-.271.368-.182.648-.436.841-.765.192-.334.289-.728.289-1.181 0-.458-.083-.855-.247-1.189a1.706 1.706 0 0 0-.773-.773c-.351-.181-.804-.271-1.359-.271h-2.336l.017-1.317h3.194l.348.476c.595.051 1.099.22 1.512.509.414.283.728.646.943 1.087.221.442.331.929.331 1.461 0 .771-.169 1.422-.509 1.954-.334.527-.807.929-1.419 1.206-.611.272-1.33.408-2.157.408ZM221.504 186.877l6.09-9.53h1.639v12.367h-1.639v-9.539l-6.09 9.539h-1.631v-12.367h1.631v9.53ZM207.735 177.347h1.64v3.864c0 .64.093 1.141.28 1.504.187.362.47.617.849.764.38.148.853.221 1.419.221.34 0 .668-.014.985-.042.323-.029.637-.068.943-.119.306-.051.606-.113.9-.187.301-.074.595-.153.884-.238v1.342c-.278.085-.555.164-.833.238a9.194 9.194 0 0 1-.849.187c-.289.051-.6.09-.934.119-.329.028-.694.042-1.096.042-.872 0-1.622-.124-2.251-.373a2.906 2.906 0 0 1-1.436-1.224c-.334-.56-.501-1.305-.501-2.234v-3.864Zm7.484 0h1.639v12.367h-1.639v-12.367ZM197.178 186.877l6.09-9.53h1.639v12.367h-1.639v-9.539l-6.09 9.539h-1.631v-12.367h1.631v9.53Zm4.349-12.597h1.274c0 .442-.102.836-.306 1.181-.204.34-.496.606-.875.798-.379.193-.829.289-1.35.289-.788 0-1.41-.209-1.869-.628-.453-.425-.68-.972-.68-1.64h1.274c0 .334.097.629.289.884.193.254.521.382.986.382.453 0 .775-.128.968-.382.192-.255.289-.55.289-.884ZM193.016 183.14v.781c0 .929-.116 1.761-.348 2.497-.233.736-.567 1.362-1.003 1.877-.436.516-.96.909-1.571 1.181-.606.272-1.286.408-2.039.408a4.9 4.9 0 0 1-2.013-.408 4.526 4.526 0 0 1-1.58-1.181c-.441-.515-.784-1.141-1.027-1.877-.244-.736-.366-1.568-.366-2.497v-.781c0-.929.119-1.759.357-2.489.244-.736.586-1.362 1.028-1.877a4.407 4.407 0 0 1 1.571-1.19 4.916 4.916 0 0 1 2.013-.407c.753 0 1.433.136 2.039.407a4.314 4.314 0 0 1 1.571 1.19c.442.515.779 1.141 1.011 1.877.238.73.357 1.56.357 2.489Zm-1.623.781v-.798c0-.737-.076-1.388-.229-1.954-.147-.566-.365-1.042-.654-1.427a2.823 2.823 0 0 0-1.062-.875 3.222 3.222 0 0 0-1.41-.297c-.509 0-.971.099-1.384.297-.408.198-.759.49-1.053.875-.289.385-.513.861-.671 1.427-.159.566-.238 1.217-.238 1.954v.798c0 .742.079 1.399.238 1.971.158.566.385 1.044.679 1.435.3.385.654.677 1.062.875.413.198.875.297 1.384.297.533 0 1.005-.099 1.419-.297a2.78 2.78 0 0 0 1.045-.875c.288-.391.506-.869.654-1.435.147-.572.22-1.229.22-1.971ZM177.921 177.347v12.367h-1.613v-12.367h1.613Zm3.976 0v1.342h-9.556v-1.342h9.556ZM169.742 185.781h1.631a5.205 5.205 0 0 1-.671 2.098 3.932 3.932 0 0 1-1.538 1.47c-.662.356-1.489.535-2.48.535a4.699 4.699 0 0 1-1.979-.408 4.407 4.407 0 0 1-1.521-1.155 5.416 5.416 0 0 1-.985-1.809c-.226-.708-.34-1.495-.34-2.362v-1.231c0-.867.114-1.651.34-2.353a5.315 5.315 0 0 1 .994-1.818 4.44 4.44 0 0 1 1.571-1.164c.612-.271 1.3-.407 2.064-.407.935 0 1.725.175 2.37.526a3.77 3.77 0 0 1 1.504 1.461c.362.618.586 1.334.671 2.149h-1.631c-.079-.577-.227-1.073-.442-1.486a2.293 2.293 0 0 0-.917-.968c-.397-.227-.915-.34-1.555-.34-.549 0-1.033.105-1.452.314-.413.21-.762.507-1.045.892a4.153 4.153 0 0 0-.628 1.384 7.026 7.026 0 0 0-.213 1.793v1.248c0 .606.063 1.175.187 1.708.13.532.326.999.586 1.401.261.402.592.719.994.951.402.227.878.34 1.427.34.696 0 1.251-.11 1.665-.331.413-.221.725-.538.934-.951.215-.414.368-.909.459-1.487ZM155.37 185.611l3.27-8.264h1.886l-4.375 10.303a8.758 8.758 0 0 1-.416.841 3.106 3.106 0 0 1-.56.713c-.221.21-.496.377-.824.501-.323.125-.725.187-1.206.187-.136 0-.298-.008-.485-.025a1.999 1.999 0 0 1-.365-.043l.051-1.308c.062.012.184.023.365.034.182.006.315.009.4.009.322 0 .577-.065.764-.196.187-.13.337-.294.45-.492.119-.204.227-.411.323-.62l.722-1.64Zm-2.777-8.264 3.44 7.704.407 1.52-1.376.102-4.306-9.326h1.835Z"/><path fill="#57B9A6" d="m144.409 246.186-4.094 11.271h-1.673l4.714-12.367h1.079l-.026 1.096Zm3.432 11.271-4.103-11.271-.025-1.096h1.078l4.731 12.367h-1.681Zm-.213-4.578v1.342h-6.948v-1.342h6.948ZM130.369 245.09v12.367h-1.64V245.09h1.64Zm7.619 0-5.368 6.804h-2.905l-.255-1.359h2.183l4.315-5.445h2.03Zm-1.648 12.367-4.646-5.776.917-1.435 5.734 7.211h-2.005ZM117.941 254.62l6.091-9.53h1.639v12.367h-1.639v-9.539l-6.091 9.539h-1.63V245.09h1.63v9.53ZM101.565 245.09h1.588l4.052 10.082 4.043-10.082h1.597l-5.028 12.367h-1.241l-5.011-12.367Zm-.518 0h1.401l.23 7.543v4.824h-1.631V245.09Zm10.906 0h1.402v12.367h-1.631v-4.824l.229-7.543ZM98.592 250.883v.781c0 .929-.116 1.761-.348 2.498-.232.736-.567 1.361-1.003 1.877a4.34 4.34 0 0 1-1.571 1.18c-.606.272-1.285.408-2.038.408-.731 0-1.402-.136-2.014-.408a4.519 4.519 0 0 1-1.58-1.18c-.441-.516-.784-1.141-1.027-1.877-.244-.737-.365-1.569-.365-2.498v-.781c0-.929.118-1.758.356-2.489.244-.736.586-1.362 1.028-1.877a4.404 4.404 0 0 1 1.571-1.189 4.898 4.898 0 0 1 2.014-.408c.753 0 1.432.136 2.038.408a4.308 4.308 0 0 1 1.571 1.189c.442.515.78 1.141 1.011 1.877.238.731.357 1.56.357 2.489Zm-1.622.781v-.798c0-.736-.077-1.388-.23-1.954-.147-.566-.365-1.042-.654-1.427a2.829 2.829 0 0 0-1.061-.875 3.225 3.225 0 0 0-1.41-.297c-.51 0-.972.099-1.385.297-.408.199-.759.49-1.053.875-.29.385-.513.861-.671 1.427-.159.566-.238 1.218-.238 1.954v.798c0 .742.08 1.399.238 1.971.158.566.385 1.045.68 1.435.3.385.653.677 1.061.875.413.198.875.298 1.385.298.532 0 1.005-.1 1.418-.298.413-.198.762-.49 1.045-.875.288-.39.507-.869.654-1.435.147-.572.22-1.229.22-1.971ZM84.73 250.407v1.334h-6.693v-1.334h6.693Zm-6.438-5.317v12.367h-1.64V245.09h1.64Zm7.865 0v12.367h-1.63V245.09h1.63ZM74.197 250.883v.781c0 .929-.116 1.761-.348 2.498-.232.736-.566 1.361-1.002 1.877a4.34 4.34 0 0 1-1.572 1.18c-.605.272-1.285.408-2.038.408-.73 0-1.402-.136-2.013-.408a4.518 4.518 0 0 1-1.58-1.18c-.442-.516-.784-1.141-1.028-1.877-.243-.737-.365-1.569-.365-2.498v-.781c0-.929.119-1.758.357-2.489.243-.736.586-1.362 1.027-1.877a4.404 4.404 0 0 1 1.572-1.189 4.898 4.898 0 0 1 2.013-.408c.753 0 1.433.136 2.038.408a4.307 4.307 0 0 1 1.572 1.189c.442.515.779 1.141 1.01 1.877.239.731.357 1.56.357 2.489Zm-1.622.781v-.798c0-.736-.076-1.388-.23-1.954-.147-.566-.364-1.042-.653-1.427a2.83 2.83 0 0 0-1.062-.875 3.225 3.225 0 0 0-1.41-.297c-.51 0-.971.099-1.385.297a2.94 2.94 0 0 0-1.053.875c-.289.385-.512.861-.67 1.427-.16.566-.239 1.218-.239 1.954v.798c0 .742.08 1.399.238 1.971.159.566.385 1.045.68 1.435.3.385.654.677 1.061.875.414.198.875.298 1.385.298.532 0 1.005-.1 1.418-.298a2.77 2.77 0 0 0 1.045-.875c.289-.39.507-.869.654-1.435.147-.572.221-1.229.221-1.971ZM55.485 245.09v12.367h-1.64V245.09h1.64Zm7.62 0-5.369 6.804h-2.905l-.255-1.359h2.183l4.315-5.445h2.03Zm-1.649 12.367-4.646-5.776.917-1.435 5.734 7.211h-2.005ZM49.939 250.62v1.342h-5.071v-1.342h5.07Zm-8.087 2.904h1.631c.091.584.241 1.082.45 1.495.216.414.53.731.943.952.414.215.969.323 1.665.323.55 0 1.025-.114 1.427-.34.402-.232.733-.55.994-.952.26-.402.453-.869.578-1.401.13-.532.195-1.101.195-1.707v-1.241c0-.526-.045-1.013-.136-1.46a4.718 4.718 0 0 0-.408-1.215 3.237 3.237 0 0 0-.68-.926 2.75 2.75 0 0 0-.934-.586 3.246 3.246 0 0 0-1.18-.204c-.634 0-1.152.113-1.555.34a2.293 2.293 0 0 0-.917.968c-.21.414-.357.909-.442 1.487h-1.63c.084-.816.308-1.532.67-2.149a3.844 3.844 0 0 1 1.504-1.461c.645-.351 1.435-.527 2.37-.527.764 0 1.452.136 2.064.408a4.355 4.355 0 0 1 1.563 1.163c.436.504.767 1.11.994 1.818.232.708.348 1.495.348 2.361v1.224c0 .866-.116 1.653-.348 2.361a5.294 5.294 0 0 1-.977 1.809 4.37 4.37 0 0 1-1.53 1.155c-.588.272-1.245.408-1.97.408-.99 0-1.817-.178-2.48-.535a3.915 3.915 0 0 1-1.537-1.47 5.377 5.377 0 0 1-.672-2.098Z"/></svg>