<svg xmlns="http://www.w3.org/2000/svg" fill="none" viewBox="0 0 72 55"><g clip-path="url(#a)"><path fill="#FD504C" d="M7.293 18.068c-19.364 8.992 5.956 36.774 5.956 36.774s9.924-11.83 12.13-21.02c2.204-9.2-5.99-21.37-18.086-15.754Zm5.688 16.765c-3.533 0-6.399-2.845-6.399-6.354 0-3.51 2.866-6.355 6.4-6.355 3.533 0 6.398 2.846 6.398 6.355 0 3.509-2.865 6.354-6.399 6.354Z"/><path fill="#FD504C" d="M26.314 55H13.357v-4.977h12.957c3.826 0 4.369-1.834 4.945-7.068.343-3.144.702-6.404 3.083-8.445 4.185-3.6 9.606-2.505 14.385-1.543 3.266.655 6.357 1.277 8.629.456l1.72 4.67c-3.6 1.311-7.534.515-11.343-.248-4.177-.838-7.786-1.568-10.108.431-.886.763-1.145 3.127-1.379 5.218C35.78 47.799 34.985 55 26.314 55Z"/><path fill="#57B9A6" d="M56.211.821c-19.656 5.36 2.983 37.389 2.983 37.389s9.924-11.83 12.129-21.021C73.528 7.989 70.755-3.144 56.21.82Zm3.609 17.637c-3.342 0-6.048-2.688-6.048-6.006 0-3.319 2.706-6.006 6.048-6.006 3.341 0 6.048 2.688 6.048 6.006s-2.707 6.006-6.048 6.006Z"/></g><defs><clipPath id="a"><path fill="#fff" d="M0 0h72v55H0z"/></clipPath></defs></svg>