<svg xmlns="http://www.w3.org/2000/svg" fill="none" viewBox="0 0 81 48"><g clip-path="url(#a)"><path fill="#FD504C" d="M40.57 22.724c5.187 0 9.392-4.218 9.392-9.42 0-5.204-4.205-9.421-9.392-9.421-5.187 0-9.392 4.217-9.392 9.42s4.205 9.42 9.392 9.42ZM28.873 48v-5.804c0-7.558-6.159-13.735-13.694-13.735C7.652 28.46 0 35.61 0 44.707v3.301h28.873V48Z"/><path fill="#57B9A6" d="M59.612 48v-7.608c0-9.578-11.506-18.01-21.056-18.01S21.694 31.03 21.694 43.594V48h37.918Z"/><path fill="#FD504C" d="M14.184 29.617c4.692 0 8.497-3.816 8.497-8.523s-3.805-8.522-8.497-8.522c-4.693 0-8.497 3.815-8.497 8.522 0 4.707 3.804 8.523 8.497 8.523ZM81 48v-3.3c0-8.748-3.009-14.992-13.222-16.247h-3.44c-7.536 0-15.038 3.691-16.281 15.398v4.15H81Z"/><path fill="#FD504C" d="M64.113 29.708c4.693 0 8.497-3.816 8.497-8.522 0-4.707-3.804-8.523-8.497-8.523s-8.497 3.816-8.497 8.523c0 4.706 3.804 8.522 8.497 8.522Z"/><path fill="#57B9A6" d="M14.482 8.398c-4.858 0-8.795 3.95-8.795 8.822v3.176l17.599-3.176c0-4.873-3.938-8.822-8.796-8.822h-.008Z"/><path fill="#57B9A6" d="M28.31 16.895H5.662v3.5H28.31v-3.5ZM40.479 0c-5.123 0-9.285 4.166-9.285 9.312v3.351l18.57-3.35C49.764 4.172 45.61 0 40.479 0Z"/><path fill="#57B9A6" d="M55.069 8.971H31.178v3.7h23.891v-3.7ZM64.155 8.398c-4.717 0-8.547 3.833-8.547 8.572v3.085l17.086-3.085c0-4.731-3.822-8.572-8.547-8.572h.008Z"/><path fill="#57B9A6" d="M79.474 16.355H55.583v3.7h23.891v-3.7Z"/></g><defs><clipPath id="a"><path fill="#fff" d="M0 0h81v48H0z"/></clipPath></defs></svg>