<svg xmlns="http://www.w3.org/2000/svg" fill="none" viewBox="0 0 70 43"><g clip-path="url(#a)"><path fill="#5CB9A6" d="M0 28.358S20.11 25.55 26.697 29c6.576 3.45 7.914 13.904 7.914 13.904s-11.208.275-19.98-1.644C5.858 39.34 0 28.358 0 28.358ZM70 21.902s-13.683.312-24.65 5.274C39.91 29.634 34.7 42.707 34.7 42.707s4.472.785 14.761-.737C64.751 39.7 70 21.902 70 21.902Z"/><path fill="#FD504C" d="M13.792 6.002s17.366 12.374 18.982 20.664c1.617 8.29 0 16.031 0 16.031s-9.54 1.891-16.197-9.774c-5.23-9.16-2.785-26.911-2.785-26.911v-.01Z"/><path fill="#FD504C" d="M33.553 30.343s5.509-9.802 11.856-15.096c6.348-5.293 12.276-7.78 12.276-7.78s-.11 15.096-6.038 26.733c-5.928 11.626-22.326 7.836-22.326 7.836l4.232-11.693Z"/><path fill="#5CB9A6" d="M31.796 42.508s-11.716-6.248-5.23-25.002C29.89 7.902 35.889 0 35.889 0s10.1 14.028 9.162 26.666c-.559 7.486-2.974 15.124-6.627 16.211-1.377.407-6.627-.36-6.627-.36v-.009Z"/></g><defs><clipPath id="a"><path fill="#fff" d="M0 0h70v43H0z"/></clipPath></defs></svg>