<svg xmlns="http://www.w3.org/2000/svg" fill="none" viewBox="0 0 56 64"><g clip-path="url(#a)"><path fill="#57B9A6" d="M42.662 43.101c1.57-1.793 2.695-3.74 3.239-5.571 1.91-6.456-1.369-18.02-11-21.737-7.382-2.85-15.463-9.55-15.463-9.55s-9.656 8.84-10.562 18.974c-1.09 12.208 5.216 21.746 15.597 24.195 2.959.697 5.818.555 8.435-.152-1.66-1.48-4.88-4.758-7.83-10.12-4.208-7.65-3.823-17.459-3.823-17.459s5.594 11.55 9.234 16.35c4.667 6.158 8.447 9.151 8.447 9.151 2.57 2.08 5.163 3.683 7.728 4.783l4.058-4.398c-2.606-.786-5.3-2.277-8.06-4.468v.002Z"/></g><defs><clipPath id="a"><path fill="#fff" d="M0 15.557 32.465 0l22.903 47.796-32.465 15.557z"/></clipPath></defs></svg>