<svg xmlns="http://www.w3.org/2000/svg" fill="none" viewBox="0 0 81 57"><g clip-path="url(#a)"><path fill="#5CB9A6" d="M27.45 17.55a5.85 5.85 0 1 0 0-11.7 5.85 5.85 0 0 0 0 11.7ZM43.06 24.15l-9.22-1.92c-2.57-.54-5.11-1.32-7.54-2.33L8.33 12.44c-1.28-.53-2.74.08-3.27 1.35-.53 1.28.08 2.74 1.35 3.27l10.9 4.53c-.03.05-.07.09-.1.15l-4.08 7.8a4.495 4.495 0 0 0 1.88 6.06l6.34 3.35-1.7 4.4-16.24-6.47c-1.29-.51-2.74.11-3.25 1.4a2.5 2.5 0 0 0 1.4 3.25l28.12 11.2a9.208 9.208 0 0 0 10.15-2.26l1.9-2.02c.95-1.01.9-2.59-.11-3.53-1.01-.95-2.59-.9-3.53.11l-1.9 2.02a4.216 4.216 0 0 1-4.65 1.03l-3.51-1.4 3.17-8.22c.82-2.13-.08-4.53-2.09-5.6l-5.91-3.13 2-3.83c.16-.3.27-.62.36-.93 2.36.91 4.79 1.64 7.26 2.15l9.22 1.92c.17.04.34.05.51.05 1.16 0 2.2-.81 2.44-1.99a2.5 2.5 0 0 0-1.94-2.96l.01.01ZM44.84 11.7a5.85 5.85 0 1 0 0-11.7 5.85 5.85 0 0 0 0 11.7Z"/><path fill="#FD504C" d="M62.24 20.29a5.851 5.851 0 0 0 0-11.7 5.851 5.851 0 0 0 0 11.7ZM78.7 26.79l-9.88-2.06c-2.14-.45-4.25-1.1-6.26-1.93l-18.59-7.72c-1.28-.53-2.74.08-3.27 1.35-.53 1.28.07 2.74 1.35 3.27l10.29 4.27c-.11.16-.23.31-.32.49l-4.08 7.8c-1.15 2.2-.31 4.9 1.88 6.06l6.34 3.36-1.7 4.4-16.24-6.47c-1.29-.52-2.74.11-3.25 1.4a2.5 2.5 0 0 0 1.4 3.25l28.12 11.2a9.208 9.208 0 0 0 10.15-2.26l1.9-2.02c.95-1.01.9-2.59-.11-3.53-1.01-.95-2.59-.9-3.53.11L71 49.78a4.198 4.198 0 0 1-4.65 1.03l-3.51-1.4 3.17-8.22c.82-2.13-.08-4.53-2.09-5.6l-5.91-3.13 2-3.83c.22-.42.35-.86.42-1.31l.23.09c2.3.96 4.71 1.7 7.16 2.21l9.88 2.06c.17.04.34.05.51.05 1.16 0 2.2-.81 2.44-1.99a2.5 2.5 0 0 0-1.94-2.96l-.01.01Z"/></g><defs><clipPath id="a"><path fill="#fff" d="M0 0h80.69v56.11H0z"/></clipPath></defs></svg>