<svg xmlns="http://www.w3.org/2000/svg" fill="none" viewBox="0 0 194 78"><path fill="#98C8CD" d="M150.086-8.008h-3.752v39.402H46.906V-8.008h-3.752v43.13h106.932v-43.13Z"/><path fill="#98C8CD" d="M178.86-8.008h-3.752V59.97H18.132V-8.008h-3.753v71.706H178.86V-8.008Z"/><path fill="#98C8CD" d="M121.327-8.008h-3.752V2.82H75.666V-8.008h-3.752V6.548h49.413V-8.008Z"/><path fill="#98C8CD" d="M189.488-8.008v82.28H3.753v-82.28H0V78h193.241V-8.008h-3.753Z"/><path fill="#98C8CD" d="M164.466 49.41V-8.008h-3.752v53.69H32.527v-53.69h-3.753V49.41h135.692Z"/><path fill="#98C8CD" d="M135.707 20.835V-8.008h-3.752v25.115H61.287V-8.008h-3.752v28.843h78.172Z"/></svg>