<svg xmlns="http://www.w3.org/2000/svg" fill="none" viewBox="0 0 4459 165"><path fill="#FD504C" d="m500.685 86.52-.113-.154 31.199-31-8.172-8.118-29.928 29.746-9.794-13.272 16.581-16.474-23.792-23.64-23.802 23.64 16.137 16.043-10.352 14.052-29.939-29.757-8.171 8.12 31.013 30.814h49.133ZM446.676 93.603l-24.805 33.688 13.348 20.313 79.454-.533 16.778-18.815-25.538-34.653h-59.237Z"/><path fill="#57B9A6" d="M6.132 93.603c7.407 14.534 24.618 20.518 35.248 32.713 6.271 7.195 7.883 27.991 7.883 27.991l20.63-.174s-.289-22.162 8.048-26.216c8.337-4.055 33.245-8.253 37.935-32.077.145-.739.29-1.488.424-2.237H6.132ZM117.426 86.52c3.068-21.925 2.851-45.8 2.851-45.8s-18.544.225-28.792 14.821C83.16 67.407 81.392 78.688 81.392 78.688s-1.064-20.704-18.038-32.61c-10.92-7.658-22.83-6.437-22.83-6.437l-.094 33.247S23.054 46.334.13 46.334c0 0-1.137 24.111 3.326 40.186h113.97Z"/><path fill="#7E775E" d="M272.278 86.52c1.87-47.997-57.853-52.79-57.853-52.79v38.255c-11.405-29.757-38.503-31.173-38.503-31.173l5.341 31.532c-15.826-24.87-43.42-23.013-43.42-23.013V86.52h134.435ZM137.853 93.603v31.912s24.03-8.304 38.08-18.835v33.626s29.35-22.695 37.873-46.704h-75.953ZM214.436 93.603v46.395s41.902 5.204 54.258-34.109c1.363-4.352 2.314-8.437 2.892-12.286h-57.16.01Z"/><path fill="#98C8CD" d="m401.189 86.52-55.094-61.166-50.343 61.166h105.437ZM289.926 93.603l-.042.051 58.38 61.126 54.712-61.177h-113.05Z"/><path fill="#7E775E" d="M626.877 86.222 585.43 10.264l-36.096 75.958h77.543ZM551.41 93.304l33.586 70.754 41.902-70.754H551.41Z"/><path fill="#98C8CD" d="M778.751 99.371a45.326 45.326 0 0 0-3.337-6.066h-62.76l-60.487 24.491 12.914 33.042 10.734-13.211s15.186 9.567 32.604 1.827c17.418-7.739 16.55-27.303 16.55-27.303l21.219 40.401h36.954l-14.629-18.969s21.571-9.166 10.238-34.212ZM779.805 50.892c-9.391-12.749-23.203-21.659-38.441-24.717-14.205-2.844-29.629-1.674-43.514 2.648.465-1.19.723-2.494.723-3.86 0-5.727-4.504-10.377-10.052-10.377-5.547 0-10.052 4.64-10.052 10.377 0 4.147 2.366 7.72 5.786 9.382a78.827 78.827 0 0 0-4.029 2.187c-10.28 6.035-22.77 17.152-28.741 29.017L644.46 81.87s22.088 6.302 32.129 1.242c17.49-8.807 23.193-29.47 23.193-29.47l14.443 32.58h55.611c-20.177-21.514-56.965-26.76-56.965-26.76l24.319-12.491s3.337 5.645 10.61 14.01c9.101 10.46 25.455 11.64 40.414 8.705.537-.113-5.062-14.268-8.399-18.805l-.01.01Z"/><path fill="#FD504C" d="M876.351 93.089c-1.239 14.103-6.911 26.472-16.281 35.3-12.387 11.66-31.117 17.193-54.154 15.992h-.083v2.258c2.097.113 4.153.164 6.178.164 20.858 0 37.924-5.748 49.629-16.772 9.815-9.248 15.734-22.202 16.995-36.932h-2.273l-.011-.01Z"/><path fill="#FD504C" d="M867.808 93.089c-1.354 11.886-6.405 22.387-14.546 29.972-11.013 10.275-27.408 15.151-47.408 14.094h-.031v2.258c1.787.092 3.543.143 5.279.143 18.213 0 33.255-5.091 43.72-14.852 8.595-8.017 13.905-19.082 15.279-31.615h-2.293Z"/><path fill="#FD504C" d="M850.751 93.089c-1.322 7.236-4.886 13.795-10.351 18.876-8.389 7.791-20.352 11.517-34.577 10.768v2.258c1.219.062 2.417.092 3.574.092 16.581 0 26.798-6.117 32.553-11.465 5.929-5.512 9.762-12.656 11.105-20.53h-2.314.01Z"/><path fill="#FD504C" d="M859.336 93.089c-1.281 9.474-5.537 17.953-12.314 24.306-9.721 9.115-23.968 13.467-41.199 12.554v2.258c1.497.072 2.975.113 4.421.113 15.837 0 29.02-4.558 38.338-13.282 7.232-6.785 11.746-15.849 13.048-25.95h-2.294ZM833.22 93.089c-1.116 2.75-2.934 5.368-5.424 7.657-5.682 5.235-13.667 7.986-21.973 7.555v2.258c.557.031 1.115.051 1.673.051 8.254 0 16.127-2.935 21.85-8.201 2.986-2.75 5.124-5.943 6.322-9.31h-2.448v-.01Z"/><path fill="#FD504C" d="M842.105 93.089c-1.271 4.947-4.009 9.515-8.028 13.251-6.994 6.488-17.035 9.741-28.254 9.177v2.258c.836.041 1.663.062 2.479.062 10.796 0 20.424-3.449 27.315-9.854 4.494-4.168 7.521-9.32 8.822-14.894h-2.345.011ZM868.893 40.145c-11.829-12.585-27.377-19.513-43.751-19.513l-19.309-.319v2.259l19.298.318c32.667 0 59.289 28.207 59.899 63.117h2.272c-.289-17.255-6.787-33.504-18.399-45.862h-.01ZM816.722 58.19c-2.304-.38-7.862-.73-10.899-.822v2.259c3.068.102 8.471.451 10.527.79 12.107 2.002 26.106 9.905 26.54 25.59h2.272c-.433-16.023-14.442-25.498-28.44-27.817Z"/><path fill="#FD504C" d="M831.381 73.74c-6.529-6.61-17.449-8.97-25.486-8.97h-.072v2.258h.072c7.572 0 17.821 2.176 23.864 8.293 2.934 2.977 4.494 6.57 4.68 10.686h2.273c-.186-4.732-1.963-8.859-5.331-12.267ZM884.812 93.089c-1.177 16.474-7.355 30.403-18.058 40.545-13.895 13.169-34.36 19.205-60.807 17.952h-.135v2.259h.052c2.304.113 4.566.164 6.777.164 23.823 0 42.532-6.292 55.673-18.733 11.157-10.572 17.573-25.076 18.761-42.187h-2.273.01ZM823.519 28.146c-.392-.041-10.475-.257-17.696-.4v2.258c7.076.143 16.859.338 17.459.38 26.209 2.822 52.708 22.807 53.307 55.613h2.273c-.599-34.14-28.111-54.926-55.332-57.862l-.011.01Z"/><path fill="#FD504C" d="M821.815 35.659c-.806-.092-9.815-.328-15.992-.483v2.248c6.146.154 15.052.4 15.733.473 22.904 2.648 46.035 20.005 46.603 48.11h2.273c-.568-29.429-24.712-47.577-48.617-50.348Z"/><path fill="#FD504C" d="M818.416 50.676c-1.632-.236-8.502-.555-12.583-.698v2.258c4.081.144 10.816.472 12.263.677 15.878 2.259 32.811 13.56 33.224 33.093h2.273c-.403-20.878-18.348-32.939-35.177-35.33Z"/><path fill="#FD504C" d="M820.11 43.173c-1.178-.144-9.143-.431-14.287-.585v2.258c5.113.154 12.985.431 13.998.564 19.721 2.495 39.526 17.214 39.918 40.597h2.273c-.382-24.687-21.178-40.217-41.902-42.834Z"/><path fill="#57B9A6" d="M954.287 75.126c2.366 2.443 3.213 7 3.42 11.106h14.69c2.387-4.916 6.199-10.757 9.887-13.6 9.535-7.37 35.966-4.568 35.966-4.568l-1.5-15.232-41.636-.113c1.157-4.496 2.087-8.181 6.984-11.969 9.535-7.37 33.042-1.765 33.042-1.765l-2.05-19.657-95.364 1.314-2.386 12.933s30.734 3.213 38.141 7.73c4.391 2.679 6.323 7.02 5.992 11.63l-45.858-.114-2.118 11.815s29.329-3.418 42.79 10.49ZM904.865 93.304a142.173 142.173 0 0 0 4.555 8.961c6.426 13.857 18.503 34.253 35.621 39.303 29.877 8.828 50.539.811 62.129-13.672 10.44-13.047 14.59-27.55 16.09-34.592H904.865Z"/><path fill="#7E775E" d="M1103.31 86.222V12.43c-10.86 3.326-45.08 16.177-56.73 48.89-3.24 9.115-4.99 17.388-5.56 24.902h62.29ZM1040.82 93.305c1.12 48.941 55.13 61.956 62.49 63.506V93.305h-62.49ZM1550.09 86.17h2.92l24.21-29.674 24.9 29.675h2.95l-27.87-33.237-27.11 33.237ZM1590.1 93.253h-2.88l-10.11 12.944-9.77-12.944h-2.84l12.59 16.67 13.01-16.67Z"/><path fill="#7E775E" d="M1612.13 93.253h-3.07l-31.43 34.458-31.94-34.458h-3.1l35.06 37.805 34.48-37.805ZM1529.05 86.17h2.91l45.45-56.105 45.51 56.106h2.93l-48.44-59.71-48.36 59.71Z"/><path fill="#7E775E" d="m1510.91 86.17 66.71-82.557 66.11 82.558h2.9L1577.63 0 1508 86.17h2.91ZM1634.77 93.253h-3.14l-53.46 55.829-55.04-55.829h-3.19l58.25 59.073 56.58-59.073Z"/><path fill="#7E775E" d="M1623.42 93.253h-3.11l-42.41 45.144-43.45-45.144h-3.14l46.61 48.439 45.5-48.439ZM1518.52 86.171h2.91l56.09-69.327 55.81 69.327h2.91l-58.71-72.94-59.01 72.94Z"/><path fill="#7E775E" d="M1560.61 86.171h2.94l13.59-16.485 14.55 16.485h3.02l-17.64-19.975-16.46 19.975ZM1643 93.253l-64.56 66.504-66.69-66.504h-3.21l69.92 69.727 67.7-69.727H1643Z"/><path fill="#7E775E" d="M1600.96 93.253h-3l-20.59 23.742-20.64-23.742h-2.99l23.63 27.191 23.59-27.19ZM1539.57 86.17h2.92l34.83-42.885 35.2 42.886h2.93l-38.14-46.478-37.74 46.478Z"/><path fill="#57B9A6" d="M1490.36 86.212c-.32-17.317-1.76-33.801-4.43-45.41-3.9-13.837-11.69-22.326-25.63-22.326-10.65 0-20.02 5.256-20.89 18.096v13.642c-3.58-3.685-7.1-9.269-16.45-9.023-10.64.288-13.57 7.637-14.76 14.925v9.947c-3.53-3.737-8.8-6.108-14.69-6.108-10.65 0-19.27 5.984-19.27 17.286 0 1.93-.02 5.05-.03 8.96h116.17l-.02.01ZM1374.18 93.295c0 14.781.17 35.341 1.33 48.992h111.9c2-13.908 3.05-31.584 3.03-48.992h-116.26Z"/><path fill="#FD504C" d="M1337.81 86.715c-.02-.144-.03-.277-.05-.421l18.85-24.563-20.91-2.68 1.28-22.253-20.67 10.347-15.55-23.537-10.63 20.981c-16.55-.39-32.92 7.473-42.62 22.264a48.572 48.572 0 0 0-7.52 19.852h97.83l-.01.01ZM1239.49 93.798c.05 15.982 7.94 31.635 22.42 41.017 22.86 14.811 53.48 8.406 68.39-14.309 5.42-8.263 8-17.532 8.01-26.708h-98.83.01Z"/><path fill="#98C8CD" d="M1215.1 86.448c1.63-2.31 3.24-4.814 4.6-7.627 6.24-12.758-1.94-18.517-8.91-32.764-4.83-9.885 5.81-21.31 9.96-25.528h-71.21c4.47 3.767 11.77 12.43 7.48 26.513-4 13.15-28.18 20.766-28.18 39.129v.287h86.25l.01-.01ZM1209.77 93.53h-79.84c4.18 13.529 18.07 16.875.35 29.675-11.86 8.571-9.78 19.862-8.11 24.758h68.52c3.76-1.981 8.74-5.409 13.35-11.157 8.95-11.148 4.7-14.443.71-25.98-2.28-6.621.74-11.63 5.02-17.306v.01Z"/><path fill="#7E775E" d="M1980.7 51.692c3.55 2.279 6.86 3.829 9.94 4.835-13.11 4.403-21.79 13.159-20.06 21.032.74 3.366 3.27 6.097 7.01 8.006h32.53c12.62-4.496 20.87-13.026 19.19-20.724-1.15-5.214-6.6-8.89-14.16-10.367 14.2-5.892 27.63-31.615 27.63-31.615l-77.01-11.568s-.46 30.537 14.93 40.401ZM2016.56 92.648h-40.32a50.624 50.624 0 0 0-8 3.89c-18.12 10.963-22.22 19.318-26.52 30.804-2.82 7.555-3.65 13.713-5.81 22.223h109.96c-.78-14.196-5.21-47.34-29.32-56.927l.01.01Z"/><path fill="#98C8CD" d="M1823.2 50.296v11.466l-16.19 15.345 7.02 8.366h54.32l14.12-20.468 17.67 17.553 7.6-7.555c1.04.575 2.2.934 3.48.934 3.93 0 7.12-3.172 7.12-7.083 0-3.91-3.19-7.082-7.12-7.082-3.94 0-7.13 3.172-7.13 7.082 0 .842.17 1.643.44 2.402l-4.39 4.363-7.74-7.688 9.58-9.516c.91.411 1.9.657 2.96.657 3.94 0 7.13-3.171 7.13-7.082s-3.19-7.083-7.13-7.083c-3.93 0-7.12 3.172-7.12 7.083 0 1.057.24 2.053.66 2.946l-9.58 9.515-6.12-6.077 19.49-19.359c.91.411 1.9.657 2.96.657 3.94 0 7.13-3.171 7.13-7.082s-3.19-7.083-7.13-7.083c-3.93 0-7.12 3.172-7.12 7.083 0 1.057.24 2.053.66 2.946l-19.49 19.359-6.65-6.61 8.22-8.171c1.05.595 2.24.965 3.54.965 3.93 0 7.12-3.172 7.12-7.083 0-3.91-3.19-7.083-7.12-7.083-3.94 0-7.13 3.172-7.13 7.083 0 .821.16 1.591.42 2.33l-8.54 8.489-5.83-5.79 5.17-5.132c.35.052.7.103 1.06.103 3.94 0 7.13-3.172 7.13-7.083 0-3.91-3.19-7.082-7.13-7.082s-7.13 3.172-7.13 7.082c0 1.694.62 3.224 1.62 4.445l-7.71 7.668 22.88 22.736h-39.45v-20.55l-5.9-6.95 15.01-14.708-9.08-9.29-8.17 8.12 5.26 5.47-7.69 7.237-7.81-6.877 5.36-5.245-8.17-8.12-8.89 9.115 14.87 13.396-19.07 16.936h17.73ZM1820.07 93.058v43.255h-11.96v13.868h22.92V93.058h-10.96ZM1857.38 93.058v43.255h-13.73v13.868h24.7V93.058h-10.97Z"/><path fill="#57B9A6" d="M1714.79 85.72h21.54c7.38-9.31 24.1-26.843 44.72-25.734l.98-17.419c-19.58-1.108-35.76 8.797-47.04 18.98l1.5-43.502-17.55-.595-1.51 43.83c-17.35-15.664-40.94-21.741-42.31-22.08l-4.28 16.916c.35.093 33.2 8.633 43.97 29.593l-.02.01ZM1787.91 106.823l-1.71-14.032h-16.61c-18.33 5.43-29.66 15.325-36.51 24.296l.84-24.296h-17.58l-.85 25.025c-4.91-7.606-12.05-14.031-21.32-19.082-4.85-2.638-9.69-4.557-13.94-5.943h-14.27l-1.77 14.022c1.44.184 29.98 4.126 38.94 25.209h-30.14v17.45h105.13v-17.45h-34.04c5.3-8.827 17.5-22.048 43.83-25.199Z"/><path fill="#FD504C" d="M2215.66 86.089c6.93-15.561 9.22-31.656 3.04-43.8-6.34-12.48-13.96-23.813-22.98-23.813-11.5 0-35.55 20.416-35.5 43.511.02 9.32 3.21 16.824 6.68 24.102h48.76ZM2212.16 93.171h-41.89c2.43 5.317 4.52 10.788 5.14 17.029 1.71 17.327-14.58 39.067-14.58 39.067h49.09s-18.59-18.743 1.54-54.813c.23-.42.46-.851.7-1.283Z"/><path fill="#57B9A6" d="M2077.14 85.808h54.2c-1.15-1.293-2.19-2.658-3-4.208-.77-1.468-1.2-2.803-1.36-4.045-1.04-8.006 9.21-11.701 10.61-19.759.71-4.126-2.32-8.191-5.76-9.792-3.44-1.601-7.23-1.489-10.88-1.93-19.1-2.31-1.44-24.748-17.4-28.402-5.54-1.273-10.98 3.09-13.62 8.725-4.61 9.854 3.43 19.903-9.63 24.984-4.2 1.632-9.05 3.048-11.23 6.846-1.76 3.07-1.18 6.97.58 10.06 3.88 6.764 8.65 10.572 7.5 17.521h-.01ZM2138.25 92.89h-63.78c-7.02 12.626-22.31 23.013 2.93 26.298 7.58.986 10.78 9.546 12.33 16.69 1.95 9.064 8.19 22.408 20.39 15.951 7.64-4.054 7.43-16.638 11.06-23.362 4.75-8.766 21.72-16.7 21.47-26.688-.08-3.356-2.12-6.302-4.29-8.776-.03-.04-.07-.072-.1-.113h-.01Z"/><path fill="#98C8CD" d="M2325.43 86.17c-2.5-5.44-5.59-10.912-9.27-16.27h.03c13.23.76 24.55-9.433 25.3-22.777.76-13.333-9.35-24.768-22.56-25.527-13.22-.76-24.55 9.433-25.3 22.777a21.9 21.9 0 0 0-.04 1.396c-16.12-12.287-33.05-16.25-43.82-8.5-11.57 8.315-12.8 27.828-4.8 48.9h80.46ZM2247.98 93.252c2.63 5.584 5.89 11.199 9.76 16.67 20.28 28.71 49.6 42.711 65.48 31.286 11.39-8.191 12.76-27.252 5.13-47.966h-80.37v.01ZM3037.96 86.334h67.42c7.78-2.124 20.96-8.256 28.73-25.938 11.51-26.258 2.93-42.645 2.93-42.645s-31.73 7.54-46.57 30.868c-9.08 14.274-11.3 19.08-11.74 20.696-.26-4.972-2.76-31.314-26.49-42.987-26.24-12.907-45.31-10.804-45.31-10.804s-2.19 34.203 16.09 55.666c3.07 3.604 10.45 10.814 14.94 15.144ZM3110.44 93.481h-76.57c-7.02 3.78-16.86 10.503-20.99 20.147-6.77 15.765 0 41.402 0 41.402s23.55-6.846 38.8-22.446c14.68-15.02 18.17-25.606 18.17-25.606s-2.36 15.237 14.57 33.188c16.94 17.951 42.91 19.961 42.91 19.961s8.29-24.436 1.55-44.313c-3.55-10.462-11.61-17.765-18.45-22.333h.01Z"/><path fill="#FD504C" d="M2944.72 86.222c3.34-2.222 8.56-5.748 14.11-9.713 37.76-27.02.92-60.086.92-60.086h-56.21l19.06 69.8h22.12ZM2962.39 93.407h-93.98v59.535s30.93-3.876 44.31-18.353c13.37-14.477 17.53-31.005 17.53-31.005l12.32 47.14h43.03s8.14-14.446.21-36.031c-4.05-11.006-14.32-17.524-23.42-21.275v-.01Z"/><path fill="#7E775E" d="m2849.08 86.304-14.72-42.207-51.85-27.674-45.25 23.28-26.52 46.601h138.34ZM2710.1 141.405h48.01l23.45-48.018h-71.46v48.018ZM2781.56 93.387l15.83 48.018h53.46V93.387h-69.29Z"/><path fill="#5CB9A6" d="M2692.27 86.253c-3.91-47.453-49.82-68.803-49.82-68.803s-23.67 25.795-17.59 68.803h67.41ZM2626.12 93.335c.15.698.27 1.376.44 2.074 9.15 39.703 57.46 58.077 57.46 58.077s8.43-25.775 8.52-60.15h-66.42Z"/><g fill="#7E775E" clip-path="url(#a)"><path d="M2374.94 86.746h44.48c19.17-5.577 32.36-16.398 30.42-25.775-1.67-8.07-14.07-12.711-30.11-12.317a18.22 18.22 0 0 0 1.38-8.879c-.94-10.125-9.99-17.581-20.18-16.636-10.19.945-17.69 9.917-16.74 20.043.43 4.569 2.51 8.578 5.59 11.537-15.1 5.94-24.81 15.162-23.12 23.304.76 3.676 3.75 6.625 8.29 8.733l-.01-.01ZM2429.93 93.911h-55.21c-17.26 10.344-26.24 27.603-20.42 41.405 6.64 15.826 30.18 21.122 52.57 11.838s35.14-29.648 28.49-45.464c-1.25-2.97-3.1-5.577-5.43-7.779Z"/></g><g fill="#7E775E" clip-path="url(#b)"><path d="M3208.97 86.67h49.3l-12.18-22.723s17.12 3.043 35.3-9.845c18.19-12.887 15.49-39.13 15.49-39.13s-33.96 2.482-48.32 18.963c-14.93 17.156-16.55 30.936-16.55 30.936l-11.93-13.832c5.27-.395 9.42-4.923 9.42-10.458s-4.56-10.499-10.17-10.499c-4.96 0-9.07 3.656-9.98 8.495l-4.66-5.41-23.13-26.835s-20.2 41.695-2.72 61.997c9.14 10.635 21.4 15.837 30.13 18.34ZM3284.75 136.028l-22.63-42.183h-50.28l-51.36 10.333 13.48 51.696 12.54-14.944h12.88c3.01 0 6.02-.468 8.81-1.599 10.05-4.061 16.02-14.477 21.51-30.075.43-1.225.81-2.357 2.9-8.069l6.76 2.015c-10.3 24.674 9.87 50.574 9.87 50.574h54.3l-18.77-17.748h-.01Z"/></g><path fill="#7E775E" d="M3541.62 68.601c-2.29 2.541-7.3 8.353-13.21 17.62h65.47c-2.81-6.45-6.09-12.24-9.91-16.735 24.26-5.647 38.76-17.682 38.76-17.682s-21.82-34.354-57.61-34.354-57.61 25.622-57.61 25.622 12.66 17.691 34.1 25.53h.01ZM3524.14 93.318c-8.15 14.277-17.1 34.561-22.74 61.355h108.04s-2.83-34.077-12.74-61.355h-72.56Z"/><path fill="#5CB9A6" d="M3832.69 83.858h83.98c1.56-1.574 2.89-3.189 3.83-4.886 1.41-2.53 2.61-5.266 2.66-8.156.11-5.617-4.86-10.842-10.5-11.068-5.28-.206-10.85 5.256-15.95 2.602-2.65-1.378-3.76-4.71-3.42-7.663.71-6.181 5.86-12.61 7.78-18.73 1.56-4.948 2.21-10.646-.53-15.059-4.04-6.51-14.15-7.046-20.44-2.643-6.3 4.402-9.33 12.168-10.58 19.728-1.32 7.982 2.08 20.438-4.72 26.167-6.36 5.36-11.64 1.286-14.97-5.266-5.03-9.905-7.67-17.63-20.66-11.705-8 3.64-6.13 13.186-2.82 19.728 2.44 4.814 5.58 10.944 6.34 16.94v.011ZM3896.94 109.799c-1.17-7.735 5.05-13.423 11.59-18.844h-76.28c-.15.535-.34 1.06-.57 1.574-3.73 8.671-15.88 14.945-22.87 20.788-5.63 4.711-11.12 10.43-13.88 17.342-2.8 7.025-.58 14.266-2.11 21.662h122.47c.08-6.028-3.1-14.729-5.94-21.179-2.4-5.462-11.5-15.315-12.41-21.333v-.01Z"/><path fill="#57B9A6" d="M3400.24 111.555c12.85 0 23.64-7.921 26.4-18.495h-2.68c-2.73 9.155-12.33 15.923-23.72 15.923-11.38 0-20.98-6.778-23.71-15.922h-2.69c2.77 10.584 13.55 18.494 26.4 18.494Z"/><path fill="#57B9A6" d="M3394.11 129.092c1.48 0 15.78-.421 17.61-.781 20.78-4.043 35.36-17.888 37.84-35.26h-2.62c-2.49 16.107-16.22 28.944-35.71 32.74-1.46.288-15.17.73-17.12.73-20.68 0-37.82-14.586-40.59-33.47h-2.61c2.78 20.304 21.08 36.041 43.2 36.041ZM3410.41 56.134c-2.31-.535-10.85-1.039-13.23-1.039-8.3 0-17.67.38-23.8 4.865-6.86 5.02-11.09 14.648-11.49 25.993h2.59c.38-10.523 4.22-19.379 10.43-23.925 5.51-4.032 14.38-4.361 22.27-4.361 2.45 0 10.68.514 12.64.967 15.02 3.466 25.31 14.328 26.17 27.319h2.6c-.85-14.215-11.96-26.075-28.18-29.819Z"/><path fill="#57B9A6" d="M3413.07 38.073c-1.36-.237-21.83-.525-22.02-.525-2.43 0-5.04-.103-7.81-.216-10.79-.422-23.03-.905-30.29 4.742-8.99 6.994-13.47 21.374-13.69 43.88h2.58c.22-21.652 4.37-35.374 12.71-41.854 4.68-3.641 12.07-4.423 19.71-4.423 2.97 0 5.99.124 8.89.237 2.79.113 5.43.216 7.91.216 1.71 0 20.37.319 21.57.483 22.43 3.878 45.03 19.379 46.01 45.34h2.59c-.89-23.883-20.01-43.005-48.15-47.88h-.01Z"/><path fill="#57B9A6" d="M3319.2 85.953c.01-19.698.44-48.117 14.96-59.771 5.05-4.043 12.86-5.133 21.3-5.133 5.18 0 10.61.412 15.78.802 4.9.37 9.53.73 13.68.73h30.65c35.65 0 64.74 28.266 65.68 63.372h2.59c-.94-36.515-31.19-65.943-68.27-65.943h-30.65c-4.06 0-8.64-.35-13.49-.72-14.04-1.07-29.95-2.283-38.89 4.896-15.47 12.405-15.91 41.586-15.92 61.767h2.58ZM3387.99 146.63c.24 0 25.69-.155 26.43-.268 27.4-4.361 55.02-22.454 57.89-53.311h-2.6c-2.89 29.355-29.4 46.584-55.64 50.76-1.12.083-25.86.247-26.09.247-29.86 0-54.46-22.433-57.21-51.007h-2.6c2.76 29.993 28.52 53.579 59.81 53.579h.01Z"/><path fill="#57B9A6" d="M3414.42 29.052c-.74-.113-26.19-.268-26.43-.268-3.3 0-6.93-.216-10.77-.452-12.38-.74-26.41-1.584-34.47 4.803-12.71 10.05-14.71 32.123-14.82 52.818h2.59c.09-20.078 1.99-41.431 13.84-50.812 4.79-3.795 12.29-4.742 20.24-4.742 4.13 0 8.4.258 12.47.504 3.9.237 7.56.453 10.93.453.22 0 24.97.164 26.02.236 27.36 4.351 54.94 22.825 55.94 54.361h2.58c-.98-33.048-29.66-52.375-58.1-56.901h-.02ZM3391.05 137.866c.19 0 20.7-.298 22.02-.525 26.71-4.628 45.29-22.104 47.87-44.29h-2.59c-2.83 23.801-24.36 38.057-45.72 41.75-1.22.164-19.88.483-21.58.483-25.28 0-46.15-18.514-48.92-42.244h-2.6c2.76 25.149 24.81 44.816 51.52 44.816v.01Z"/><path fill="#57B9A6" d="M3400.24 64.915c-14.26 0-25.98 9.761-27.01 22.084h2.6c1.04-10.914 11.59-19.513 24.41-19.513 12.83 0 23.38 8.61 24.41 19.513h2.6c-1.02-12.333-12.74-22.084-27.01-22.084ZM3481.05 93.05c-2.75 33.419-31.05 59.782-65.48 59.782h-30.65c-34.42 0-62.72-26.363-65.48-59.781h-2.6c2.77 34.838 32.23 62.353 68.08 62.353h30.65c35.85 0 65.32-27.515 68.08-62.353h-2.6Z"/><path fill="#57B9A6" d="M3397.18 120.318c2.38 0 10.92-.504 13.23-1.038 14.83-3.426 25.39-13.64 27.74-26.23h-2.64c-2.34 11.377-12.07 20.583-25.68 23.73-1.96.453-10.19.967-12.64.967-16.07 0-29.46-10.677-32.22-24.697h-2.64c2.78 15.45 17.34 27.268 34.85 27.268ZM3411.72 47.104c-1.84-.36-16.13-.772-17.61-.772-1.35 0-2.76-.02-4.2-.04-9.44-.135-20.16-.279-26.76 4.73-9.95 7.55-12.39 22.804-12.6 34.932h2.59c.19-9.875 2.07-25.674 11.58-32.884 4.91-3.724 12.81-4.248 20.52-4.248 1.56 0 3.12.02 4.63.04 1.45.021 2.87.042 4.23.042 1.95 0 15.67.442 17.12.73 20.93 4.073 35.2 18.556 36.08 36.33h2.59c-.88-19.04-15.99-34.53-38.18-38.85l.01-.01Z"/><path fill="#FD504C" d="M4021.24 76.162c-7.17-7.427-21.73-6.635-32.43 1.769-2.82 2.211-5.13 4.752-6.87 7.457h3.16a28.418 28.418 0 0 1 5.31-5.441c5.34-4.197 11.69-6.357 17.36-6.357 4.62 0 8.78 1.43 11.6 4.34 1.94 2.017 3.04 4.578 3.25 7.458h2.6c-.21-3.559-1.56-6.717-3.98-9.237v.01ZM3973.39 107.246c5.79 9.391 16.14 14.523 26.95 14.523 6.04 0 12.22-1.604 17.83-4.958 7.9-4.721 13.41-12.055 15.53-20.664.3-1.214.51-2.438.66-3.662h-2.61a29.09 29.09 0 0 1-.57 3.045c-1.96 7.941-7.05 14.709-14.35 19.07-14.45 8.64-32.95 4.721-41.23-8.712a26.833 26.833 0 0 1-3.99-13.413h-2.59a29.448 29.448 0 0 0 4.37 14.75v.021Z"/><path fill="#FD504C" d="M3943.69 85.398c-1-9.812-.07-19.543 2.85-28.594 5.09-15.81 15.6-27.628 29.59-33.285 5.87-2.366 11.98-3.498 18.13-3.498 24.2 0 48.8 17.445 60.1 45.042a80.318 80.318 0 0 1 5.36 20.335h2.61c-.87-7.159-2.72-14.328-5.57-21.302-14.7-35.928-51.31-55.204-81.6-42.964-14.72 5.945-25.75 18.33-31.07 34.88-3 9.308-3.98 19.306-2.99 29.376h2.61l-.02.01ZM3982.38 106.988c3.3 3.415 8.15 5.092 13.48 5.092 6.26 0 13.17-2.325 18.95-6.861 4.58-3.6 7.85-8.064 9.41-12.723h-2.76c-1.52 3.898-4.4 7.683-8.25 10.707-9.69 7.612-22.68 8.507-28.97 2.016-2.39-2.479-3.53-5.75-3.27-9.463.07-1.08.27-2.17.57-3.26h-2.67a19.441 19.441 0 0 0-.48 3.075c-.31 4.454 1.07 8.404 3.99 11.417Z"/><path fill="#FD504C" d="M4039.09 70.247c-5.51-10.996-14.78-19.111-26.13-22.845-10.4-3.435-21.39-2.695-30.92 2.088-13.77 6.902-21.83 20.89-22.37 35.908h2.58c.55-14.081 8.09-27.155 20.96-33.614a37.019 37.019 0 0 1 16.68-3.94c4.09 0 8.22.659 12.26 1.996 10.69 3.528 19.43 11.18 24.63 21.559a43.81 43.81 0 0 1 4.29 14.01h2.59a46.172 46.172 0 0 0-4.57-15.152v-.01ZM4060.27 92.496c.25 7.992-.8 15.871-3.19 23.287-5.09 15.809-15.6 27.628-29.59 33.285-28.97 11.705-64.06-6.943-78.22-41.555a80.34 80.34 0 0 1-4.5-15.017h-2.64a83.583 83.583 0 0 0 4.75 15.984c11.7 28.605 37.28 46.646 62.52 46.646 6.46 0 12.91-1.183 19.09-3.682 14.72-5.945 25.76-18.329 31.08-34.879 2.46-7.663 3.55-15.81 3.31-24.07h-2.61Z"/><path fill="#FD504C" d="M4014.77 34.812c-12.12-4.649-24.97-4.464-36.16.494-18.86 8.362-29.38 28.482-28.32 50.092h2.59c-1.06-20.623 8.89-39.806 26.79-47.747 5.45-2.417 11.33-3.63 17.33-3.63 5.6 0 11.3 1.059 16.85 3.188 13.76 5.266 25.31 16.57 31.72 31.012a61.276 61.276 0 0 1 4.8 17.177h2.61a63.424 63.424 0 0 0-5.04-18.216c-6.68-15.059-18.76-26.857-33.16-32.37h-.01ZM3990.65 130.471c4.31 1.419 8.72 2.129 13.08 2.129 6.17 0 12.25-1.42 17.84-4.217 13.76-6.902 21.81-20.881 22.37-35.888h-2.58c-.55 14.071-8.09 27.134-20.96 33.584-8.91 4.474-19.19 5.163-28.94 1.944-10.69-3.528-19.43-11.181-24.63-21.56a43.633 43.633 0 0 1-4.29-13.978h-2.59a46.276 46.276 0 0 0 4.56 15.13c5.51 10.996 14.78 19.112 26.13 22.845l.01.011Z"/><path fill="#FD504C" d="M3985.44 63.695c-7.9 4.721-13.41 12.055-15.53 20.664-.08.35-.15.7-.22 1.04h2.65l.09-.433c1.96-7.94 7.05-14.709 14.35-19.07 5.2-3.106 10.92-4.587 16.5-4.587 9.94 0 19.42 4.7 24.73 13.3a26.866 26.866 0 0 1 3.79 10.79h2.61a29.406 29.406 0 0 0-4.19-12.128c-9.03-14.647-29.11-18.936-44.78-9.576ZM3955.69 108.037c6.68 15.059 18.76 26.857 33.16 32.37 5.85 2.242 11.86 3.363 17.78 3.363 6.35 0 12.59-1.285 18.39-3.857 18.09-8.013 28.5-26.836 28.4-47.418h-2.59c.1 19.595-9.74 37.482-26.87 45.073-10.57 4.68-22.7 4.845-34.18.442-13.76-5.266-25.31-16.57-31.72-31.012a61.926 61.926 0 0 1-4.4-14.513h-2.62a63.835 63.835 0 0 0 4.66 15.542l-.01.01Z"/><path fill="#98C8CD" d="M2576.54 93.63h-2.59v27.176h-68.57V93.631h-2.59v29.747h73.75V93.631ZM2512.71 86.534h2.58V62.526h48.74v24.008h2.59v-26.58h-53.91v26.58Z"/><path fill="#98C8CD" d="M2596.38 93.63h-2.59v46.884h-108.26V93.631h-2.59v49.454h113.44V93.631ZM2475.61 86.534V23.1h128.1v63.434h2.59V20.529h-133.28v66.005h2.59Z"/><path fill="#98C8CD" d="M2492.87 86.534h2.59V42.808h88.41v43.726h2.58V40.237h-93.58v46.297ZM2556.7 93.63h-2.59v7.468h-28.9v-7.467h-2.59v10.039h34.08V93.63Z"/><path fill="#98C8CD" d="M2522.62 69.809v16.724h2.59V72.38h28.9v14.153h2.59V69.81h-34.08Z"/><path fill="#98C8CD" d="M2482.94 30.383v56.15h2.59V32.956h108.26v53.579h2.59v-56.15h-113.44ZM2603.71 93.63v56.748h-128.1V93.631h-2.59v59.319h133.28V93.63h-2.59Z"/><path fill="#98C8CD" d="M2586.45 133.232V93.631h-2.58v37.029h-88.41V93.63h-2.59v39.602h93.58Z"/><path fill="#98C8CD" d="M2566.62 113.524V93.631h-2.59v17.321h-48.74V93.631h-2.58v19.893h53.91ZM2502.79 50.1v36.433h2.59v-33.86h68.57v33.86h2.59V50.101h-73.75Z"/><path fill="#7E775E" d="m4084.53 73.298 13.44-9.206 14.26 21.25h95.25c-.43-6.099-2.45-12.126-6.13-17.393l-2.18-3.106 3.02-9.144 17.38-.401-16.58-15.83 12.26-15.584-5.64-4.381-13.85 17.61h-.81l-14.08-17.23-5.56 4.485 11.9 14.565V71.97h-33.29V52.068c0-3.086 2.53-5.606 5.65-5.606 3.11 0 5.64 2.51 5.64 5.606v6.027h7.15v-6.027c0-7.005-5.73-12.714-12.79-12.714-3.63 0-6.89 1.513-9.22 3.92a12.801 12.801 0 0 0-9.21-3.92c-7.05 0-12.8 5.699-12.8 12.714v6.027h7.16v-6.027c0-3.086 2.52-5.606 5.64-5.606 3.11 0 5.64 2.51 5.64 5.606V71.97h-13.88c-6.4 0-12.06 3.189-15.59 8.095l-13.44-20.016 13.81-9.463-4.07-5.853-13.72 9.401-6.41-9.566-5.96 3.95 6.48 9.659-13.53 9.278 4.07 5.852-.01-.01ZM4113.5 92.944c.18 10.831 8.79 19.553 19.38 19.553h11.66v17.97l-16.27 16.169 5.06 5.03 14.8-14.699 14.79 14.699.32-.319.32.319 14.79-14.699 14.8 14.699 5.06-5.03-16.27-16.169v-17.97h5.12c8.52 0 16.28-5.317 18.86-13.382.64-2.016 1.1-4.083 1.37-6.171H4113.5Zm61.26 37.533-11.53 11.459-11.53-11.459v-17.969h23.05v17.969h.01Z"/><path fill="#FD504C" d="M3699.7 154.673h23.32l.79-11.9 15.81-.36 2.7-15.553 16.07 3.189v-20.932l16.87 2.716v-18.32h-71.11l-4.45 61.16ZM3711.11 18.026l-28.31-.576v13.978l-16.73.01-.69 16.211h-13.24l1.39 16.149h-13.24v22.104h66.99l3.83-67.876Z"/><path fill="#57B9A6" d="M4260.78 86.274h54.21c.94-.648 1.9-1.326 2.91-2.057 21.71-15.994 20.55-56.17 20.55-56.17L4293.6 44.79c.77-1.923 1.2-4.021 1.2-6.222 0-9.402-7.67-17.013-17.12-17.013-9.45 0-17.12 7.621-17.12 17.012 0 6.573 3.75 12.272 9.25 15.1l-32.68 12.2s11.62 12.569 23.66 20.396l-.01.01ZM4272.44 93.372a75.14 75.14 0 0 0-7.64 5.78c-23.63 20.377-26.98 54.166-26.98 54.166l83.35.247s9.17-41.072-1.06-60.193h-47.67Z"/><path fill="#98C8CD" d="M4397.43 92.946h-23.76l-8.48 18.288 17.28 30.693h21.77l-17.5-30.322 10.69-18.659Z"/><path fill="#98C8CD" d="M4430.05 92.946h-23.76l-8.48 18.288 17.28 30.693h21.77l-17.5-30.322 10.69-18.659ZM4366.09 63.888l18.13-15.161 8.93 6.685-15.24 30.436h70.11l10.18-14.76-.07-21.57-31.57.288-14.04 21.632h-9.3l9.38-19.698-26.3-19.677 7.12-8.455h-10.1l-5.15 5.277-4.24-5.277h-10.27l7.91 10.41-15.55 24.552 10.07 5.318Z"/><defs><clipPath id="a"><path fill="#fff" d="M2352.53 23.056h97.498v128.678h-97.498z"/></clipPath><clipPath id="b"><path fill="#fff" d="M3160.48 6.332h143.038v149.542H3160.48z"/></clipPath></defs></svg>