<svg xmlns="http://www.w3.org/2000/svg" fill="none" viewBox="0 0 214 42"><g clip-path="url(#a)"><path fill="#2E2E2E" d="M50.16 38.553h1.219c.013 1.477 1.06 2.36 2.846 2.36 1.561 0 2.47-.68 2.47-1.753 0-1.318-1.33-1.536-2.767-1.767-1.719-.27-3.623-.718-3.623-2.794 0-1.72 1.318-2.847 3.623-2.847 2.306 0 3.769 1.22 3.782 3.243h-1.193c0-1.358-.948-2.155-2.589-2.155-1.548 0-2.384.665-2.384 1.693 0 1.259 1.278 1.49 2.688 1.707 1.732.283 3.702.666 3.702 2.834 0 1.793-1.37 2.92-3.716 2.92-2.51 0-4.058-1.319-4.058-3.447v.006ZM61.728 32.095h6.562v1.087h-5.317v2.985h4.777v1.088h-4.777v3.321h5.448v1.088h-6.7V32.1l.007-.006ZM72.13 32.095h1.233v8.481h4.816v1.088H72.13v-9.569ZM81.63 32.095h6.562v1.087h-5.316v2.985h4.776v1.088h-4.776v3.321h5.448v1.088h-6.7V32.1l.007-.006ZM91.446 36.873c0-2.972 2.076-5.114 4.948-5.114 2.154 0 4.051 1.463 4.532 3.473l-1.205.165c-.356-1.477-1.753-2.55-3.32-2.55-2.168 0-3.716 1.693-3.716 4.026 0 2.333 1.561 4.04 3.715 4.04 1.548 0 2.945-1.042 3.334-2.459l1.179.231c-.474 1.911-2.372 3.308-4.513 3.308-2.872 0-4.96-2.155-4.947-5.127l-.007.007ZM106.638 33.182h-3.162v-1.087h7.569v1.087h-3.175v8.482h-1.232v-8.482ZM114.234 32.095h6.562v1.087h-5.317v2.985h4.776v1.088h-4.776v3.321h5.448v1.088h-6.699V32.1l.006-.006ZM124.636 32.095h3.063c3.307 0 5.508 1.885 5.508 4.778s-2.194 4.79-5.508 4.79h-3.063v-9.568Zm3.07 8.481c2.562 0 4.282-1.41 4.282-3.703 0-2.294-1.733-3.69-4.282-3.69h-1.832v7.393h1.832ZM142.067 32.095h6.562v1.087h-5.317v2.985h4.776v1.088h-4.776v3.321h5.448v1.088h-6.699V32.1l.006-.006ZM151.956 38.553h1.219c.013 1.477 1.06 2.36 2.846 2.36 1.561 0 2.47-.68 2.47-1.753 0-1.318-1.331-1.536-2.767-1.767-1.719-.27-3.623-.718-3.623-2.794 0-1.72 1.318-2.847 3.623-2.847 2.306 0 3.769 1.22 3.782 3.243h-1.193c0-1.358-.948-2.155-2.589-2.155-1.548 0-2.385.665-2.385 1.693 0 1.259 1.279 1.49 2.688 1.707 1.733.283 3.703.666 3.703 2.834 0 1.793-1.371 2.92-3.716 2.92-2.51 0-4.058-1.319-4.058-3.447v.006ZM165.276 33.182h-3.162v-1.087h7.57v1.087h-3.176v8.482h-1.232v-8.482ZM174.895 32.095h1.68l3.564 9.562h-1.179l-.817-2.142h-4.869l-.816 2.142h-1.18l3.61-9.562h.007Zm2.899 6.406-2.01-5.319h-.118l-2.023 5.319h4.151ZM184.901 33.182h-3.162v-1.087h7.57v1.087h-3.176v8.482h-1.232v-8.482ZM192.498 32.095h6.561v1.087h-5.316v2.985h4.776v1.088h-4.776v3.321h5.448v1.088h-6.7V32.1l.007-.006ZM202.386 38.553h1.219c.013 1.477 1.06 2.36 2.845 2.36 1.562 0 2.471-.68 2.471-1.753 0-1.318-1.331-1.536-2.767-1.767-1.719-.27-3.623-.718-3.623-2.794 0-1.72 1.317-2.847 3.623-2.847s3.768 1.22 3.781 3.243h-1.192c0-1.358-.949-2.155-2.589-2.155-1.548 0-2.385.665-2.385 1.693 0 1.259 1.278 1.49 2.688 1.707 1.733.283 3.702.666 3.702 2.834 0 1.793-1.37 2.92-3.715 2.92-2.51 0-4.058-1.319-4.058-3.447v.006ZM67.954 9.002c.21 1.898-.264 3.941-1.199 5.477-.916 1.503-2.523 2.471-4.23 2.794-1.93.363-3.827-.27-5.672-.758l-1.436-.395v6.353c0 .382.073.712.218.995.145.284.415.508.817.679.21.086.56.178 1.034.27.474.099.883.158 1.212.191v1.24h-12.24v-1.24c.31-.033.718-.079 1.225-.138.507-.06.863-.132 1.067-.218.415-.171.685-.375.817-.62.132-.243.198-.586.198-1.02V6.681c0-.368-.066-.691-.191-.962-.125-.27-.402-.494-.83-.678a6.269 6.269 0 0 0-1.186-.343A19.633 19.633 0 0 0 46.45 4.5V3.262h12.464c2.919 0 5.1.468 6.542 1.39 1.529.983 2.3 2.604 2.497 4.357v-.007Zm-5.962 2.043c-.02-1.687-.474-3.4-1.74-4.633-.612-.593-1.442-.916-2.285-1.047-.843-.132-1.7-.093-2.55-.053v7.5c0 .362-.184 1.39 0 1.687.27.428 2.2.547 2.767.6 2.563.25 3.84-1.668 3.815-4.054h-.007ZM84.608 22.051a9.605 9.605 0 0 1-1.344 1.714c-.527.54-1.12.995-1.792 1.377a9.795 9.795 0 0 1-2.154.916c-.725.204-1.562.31-2.51.31-1.568 0-2.925-.224-4.065-.672-1.14-.449-2.082-1.048-2.826-1.8a7.085 7.085 0 0 1-1.66-2.669c-.37-1.021-.547-2.135-.547-3.334 0-1.081.198-2.122.6-3.111a8.237 8.237 0 0 1 1.692-2.65c.725-.75 1.634-1.364 2.728-1.831 1.1-.468 2.325-.699 3.682-.699 1.49 0 2.708.178 3.663.54.956.363 1.746.857 2.372 1.497a5.43 5.43 0 0 1 1.324 2.141 8.08 8.08 0 0 1 .415 2.59v.593H73.422c0 2.617.421 4.27 1.258 5.411.837 1.134 2.167 1.707 3.999 1.707.995 0 1.897-.27 2.688-.817a7.634 7.634 0 0 0 2.035-2.076l1.212.876-.006-.013Zm-6.08-6.781c0 .092-.034-.56-.093-1.226-.066-.672-.178-1.213-.336-1.641-.178-.5-.428-.877-.738-1.134-.316-.257-.711-.382-1.186-.382-.816 0-1.469.415-1.956 1.24-.488.83-.751 2.141-.797 3.202l5.112-.066-.007.007ZM214 22.051a9.61 9.61 0 0 1-1.344 1.714 8.002 8.002 0 0 1-1.791 1.377 9.803 9.803 0 0 1-2.155.916c-.724.204-1.561.31-2.51.31-1.568 0-2.925-.224-4.064-.672-1.14-.449-2.082-1.048-2.827-1.8a7.099 7.099 0 0 1-1.66-2.669c-.369-1.021-.546-2.135-.546-3.334 0-1.081.197-2.122.599-3.111a8.237 8.237 0 0 1 1.693-2.65c.725-.75 1.634-1.364 2.727-1.831 1.101-.468 2.326-.699 3.683-.699 1.489 0 2.708.178 3.663.54.955.363 1.746.857 2.372 1.497a5.435 5.435 0 0 1 1.324 2.141c.276.824.415 1.687.415 2.59v.593h-10.765c0 2.617.422 4.27 1.258 5.411.837 1.134 2.168 1.707 3.999 1.707.995 0 1.898-.27 2.688-.817a7.638 7.638 0 0 0 2.036-2.076l1.212.876-.007-.013Zm-6.08-6.781c0 .092-.033-.56-.092-1.226-.066-.672-.178-1.213-.336-1.641-.178-.5-.429-.877-.738-1.134-.316-.257-.712-.382-1.186-.382-.817 0-1.469.415-1.957 1.24-.487.83-.751 2.141-.797 3.202l5.112-.066-.006.007ZM98.179 25.122c-.679.297-1.404.567-2.18.804-.778.237-1.72.356-2.834.356-1.653 0-2.885-.402-3.682-1.206-.804-.804-1.2-1.957-1.2-3.453v-9.767h-2.865v-1.733c2.398.27 6.568-3.487 6.91-4.824.152-.145 1.167.013 1.18 0v4.369h4.473v2.188h-4.44v8.719c0 1.239.171 2.122.52 2.643.35.52.969.777 1.865.777.29 0 .685-.02 1.199-.066.513-.04.87-.092 1.067-.145v1.338h-.013ZM166.435 25.122c-.678.297-1.403.567-2.18.804-.777.237-1.72.356-2.833.356-1.653 0-2.885-.402-3.682-1.206-.804-.804-1.199-1.957-1.199-3.453v-9.767h-2.866v-1.733c2.398.27 6.568-3.487 6.91-4.824 0 0 .929-.396 1.18 0v4.369h4.473v2.188h-4.44v8.719c0 1.239.171 2.122.52 2.643.349.52.968.777 1.864.777.29 0 .686-.02 1.199-.066.514-.04.87-.092 1.068-.145v1.338h-.014ZM115.486 12.97a3.27 3.27 0 0 1-.752 2.128c-.5.613-1.159.916-1.976.916s-1.429-.197-1.963-.586c-.534-.389-.804-.969-.804-1.727 0-.369.027-.659.079-.863.053-.204.099-.402.145-.58-.487.02-1.001.191-1.541.507a4.997 4.997 0 0 0-1.43 1.266v8.745c0 .37.059.679.178.923.119.243.316.435.586.573.231.119.613.218 1.14.297.527.079.903.125 1.14.138v1.16H99.635v-1.16c.264-.02.534-.053.804-.086.27-.04.501-.085.692-.151.342-.119.573-.297.698-.54.125-.244.191-.56.191-.956V15.25c0-.382-.092-.725-.27-1.028a2.249 2.249 0 0 0-.652-.725 2.749 2.749 0 0 0-.725-.316 5.1 5.1 0 0 0-.962-.178v-.62c2.919-.712 4.895-1.687 6.996-3.367l.837.092v3.321h.066c.731-.85 1.509-1.515 2.332-1.997.824-.48 1.68-.725 2.569-.725.989 0 1.779.304 2.379.916.599.613.902 1.398.902 2.367l-.006-.02ZM131.981 11.935a7.314 7.314 0 0 1 1.799 2.63c.415 1.021.619 2.122.619 3.315a8.997 8.997 0 0 1-.613 3.334 7.365 7.365 0 0 1-1.791 2.682c-.837.798-1.838 1.404-3.005 1.832-1.166.429-2.49.64-3.985.64-1.298 0-2.484-.185-3.577-.56a8.404 8.404 0 0 1-2.892-1.674 7.616 7.616 0 0 1-1.911-2.637c-.468-1.047-.698-2.214-.698-3.512s.204-2.405.612-3.4a7.586 7.586 0 0 1 1.838-2.65c.784-.745 1.753-1.318 2.906-1.727 1.153-.408 2.437-.613 3.86-.613s2.793.205 3.927.613c1.133.409 2.101.982 2.905 1.727h.006Zm-4.071 11.039c.231-.593.409-1.318.521-2.168.112-.85.164-1.84.164-2.96 0-.744-.052-1.594-.158-2.55-.105-.955-.263-1.707-.481-2.26-.257-.673-.606-1.193-1.06-1.575-.455-.383-1.022-.574-1.713-.574-.751 0-1.357.204-1.805.62-.448.415-.798.949-1.041 1.608-.224.606-.376 1.311-.461 2.128-.086.818-.126 1.661-.126 2.538 0 1.16.04 2.115.112 2.873.073.758.257 1.522.541 2.287.243.659.593 1.18 1.047 1.562.455.382 1.034.573 1.733.573.639 0 1.186-.178 1.64-.534.455-.356.817-.876 1.08-1.568h.007ZM145.776 26.374c-.165 0-.336.007-.507.007-2.497.02-5.145.23-7.418-1.008-.106-.06-1.285-.752-1.272-.396 0-.099-.099-5.035-.099-5.035 0-.738.699-.606 1.015-.553 1.469.237 2.029 1.97 2.938 2.972a8.543 8.543 0 0 0 2.174 1.74c.804.448 1.739.672 2.807.672 2.872 0 3.774-3.177 2.556-5.43-.956-1.76-2.78-2.294-4.553-2.88a38.431 38.431 0 0 1-2.108-.752c-1.515-.606-2.648-1.47-3.379-2.596-.738-1.127-1.107-2.386-1.107-3.777 0-.883.191-1.733.573-2.543.382-.811.942-1.543 1.674-2.195.698-.606 1.594-1.1 2.687-1.483 1.094-.382 2.28-.573 3.564-.573 1.285 0 2.425.178 3.518.527 1.094.35 1.931 1.193 2.556 1.542l-.224 4.765s-.961-.257-1.264-.804c-.547-.982-.844-1.66-1.252-2.32-.698-1.12-1.351-1.792-2.833-1.792-1.146 0-2.042-.007-2.767.639-.725.646-1.093 1.45-1.093 2.405 0 .903.316 1.641.948 2.215.633.573 1.614 1.08 2.952 1.515 4.664 1.523 10.191 5.43 7.371 11.079-1.423 2.853-4.44 3.967-7.45 4.046l-.007.013Z"/><path fill="#2E2E2E" d="M186.483 11.217a3.628 3.628 0 0 0-1.39.54c-.455.29-.824.732-1.12 1.338a269.495 269.495 0 0 0-2.82 6.168 447.718 447.718 0 0 1-3.215 7.078c-.659 1.424-1.298 2.557-1.91 3.408-.613.85-1.193 1.502-1.733 1.957-.507.422-1.014.731-1.509.923-.5.19-1.001.283-1.515.283-1.008 0-1.825-.283-2.444-.844-.619-.56-.929-1.192-.929-1.898 0-.296.033-.573.106-.83.066-.257.217-.52.434-.797.172-.231.435-.435.791-.6a2.829 2.829 0 0 1 1.199-.244c.593 0 1.159.204 1.7.62.54.415 1.1.988 1.686 1.72.349-.35.784-.877 1.298-1.576.514-.698.896-1.41 1.14-2.148a437.601 437.601 0 0 0-3.354-6.9c-.975-1.95-2.068-4.119-3.274-6.518a3.005 3.005 0 0 0-1.067-1.186 3.457 3.457 0 0 0-1.416-.52v-1.16h9.743v1.16a4.88 4.88 0 0 0-1.245.236c-.474.152-.705.343-.705.574 0 .086.013.178.046.277.033.098.092.243.178.435.362.738.87 1.772 1.535 3.09.665 1.319 1.436 2.86 2.312 4.627.659-1.503 1.219-2.801 1.674-3.882a462.9 462.9 0 0 0 1.344-3.196c.105-.264.164-.475.184-.626.02-.152.026-.257.026-.31 0-.191-.092-.356-.276-.5a2.889 2.889 0 0 0-.659-.376 4.83 4.83 0 0 0-.764-.238 7.482 7.482 0 0 0-.606-.112v-1.16h6.574v1.16l-.019.027Z"/><path fill="#2E2E2E" d="M196.035 25.854h-10.027v-1.16c.277-.02.547-.046.81-.08.264-.032.494-.085.698-.157.343-.126.574-.31.699-.547.125-.238.184-.554.184-.95V6.512c0-.402-.079-.777-.25-1.12a1.919 1.919 0 0 0-.659-.79c-.211-.14-.534-.271-.962-.396-.428-.126-.145-.205-.474-.224v-.758c0-.238.165-.435.402-.495 1.904-.46 3.518-1.509 5.679-2.623a.91.91 0 0 1 .349-.092l.329-.013a.81.81 0 0 1 .843.81v21.94c0 .395.066.712.211.955.145.244.362.435.672.574.211.092.435.178.672.257.237.072.514.125.83.158v1.16h-.006Z"/><path fill="#FF0100" d="m9.948 40.464 2.8-19.645h-7.22l2.806 19.645h1.614ZM18.73 40.464l2.8-19.645h-7.215l2.8 19.645h1.614ZM27.51 40.464l2.8-19.645h-7.213l2.8 19.645h1.614ZM35.667 40.464l.461-19.645h-4.25l2.807 19.645h.982ZM1.16 40.464l2.8-19.645H.236L.211 40.464h.949ZM36.042 14.63V2.51H19.454l16.588 12.12ZM36.042 17.18H0v1.602h36.042v-1.601ZM16.588 2.51H0v12.12L16.588 2.51ZM18.024 7.632l10.212 7.486h3.478L18.024 4.982 4.335 15.118h3.472l10.217-7.486Z"/></g><defs><clipPath id="a"><path fill="#fff" d="M0 0h214v42H0z"/></clipPath></defs></svg>