<svg xmlns="http://www.w3.org/2000/svg" fill="none" viewBox="0 0 217 47"><g clip-path="url(#a)"><path fill="#363636" d="m214.757 45.086.29-1.398h1.374l-.289 1.398h-1.375Zm-2.062-4.196c0-.589-.144-1.03-.434-1.361-.289-.332-.687-.479-1.193-.479-.688 0-1.266.331-1.737.994-.47.662-.723 1.472-.723 2.466 0 .589.145 1.03.398 1.361.289.332.651.479 1.121.479.724 0 1.339-.331 1.809-.994.506-.625.759-1.472.759-2.466Zm-.687 4.196.145-.846a3.396 3.396 0 0 1-1.013.81c-.362.183-.76.257-1.158.257-.795 0-1.41-.258-1.844-.736-.434-.515-.651-1.215-.651-2.135 0-.589.072-1.14.253-1.656.181-.552.434-.994.723-1.399a3.61 3.61 0 0 1 1.158-.957c.434-.22.904-.33 1.374-.33.471 0 .905.11 1.23.33.362.221.651.553.904.994l.76-3.717h1.085l-1.917 9.459h-1.049v-.074Zm-5.498 0-.434.11c-.145.037-.253.037-.362.037-.47 0-.832-.11-1.049-.294-.217-.184-.362-.479-.362-.847 0-.073 0-.184.037-.33.036-.148.036-.295.072-.516l.868-4.122h-.977l.217-.957h.977l.398-1.877h1.121l-.398 1.877h1.158l-.181.957h-1.157l-.869 4.232c-.036.11-.036.184-.072.295 0 .073-.036.147-.036.184 0 .11.036.22.145.294.072.074.217.11.397.11.109 0 .217 0 .326-.036.109 0 .253-.037.398-.074l-.217.957Zm-9.26 0 1.953-9.459h1.23l-1.7 8.281h4.811l-.254 1.178h-6.04Zm-10.925-2.392h1.049v.22c0 .48.145.847.435 1.105.289.257.759.368 1.338.368.434 0 .76-.11 1.013-.295.253-.184.362-.441.362-.773a.918.918 0 0 0-.181-.552c-.145-.147-.434-.33-.977-.589-.072-.036-.181-.11-.362-.147-1.266-.589-1.881-1.251-1.881-2.024 0-.589.217-1.104.688-1.472.434-.368 1.049-.552 1.808-.552.76 0 1.375.184 1.809.589.434.404.651.956.651 1.656v.147h-1.049v-.037c0-.478-.109-.81-.362-1.067-.253-.22-.615-.368-1.085-.368-.398 0-.723.074-.977.258a.741.741 0 0 0-.361.662c0 .331.361.7 1.121 1.03l.072.037c.977.442 1.592.81 1.845 1.105.253.294.362.662.362 1.067 0 .662-.253 1.178-.724 1.582-.506.405-1.157.59-1.989.59-.832 0-1.483-.221-1.953-.626-.471-.442-.724-.994-.724-1.73v-.147c.073 0 .072-.037.072-.037Zm-3.87 2.392 1.411-6.883h1.085l-.289 1.289c.361-.552.723-.92 1.012-1.141.29-.221.579-.331.905-.331h.253c.072 0 .181.036.289.036l-.289 1.288h-.036c-.145 0-.253-.036-.326-.036-.542 0-1.013.184-1.374.589-.362.404-.615.993-.796 1.803l-.687 3.313h-1.158v.073Zm-.687-2.245c-.145.773-.507 1.362-1.085 1.803-.579.442-1.266.663-2.062.663-.905 0-1.556-.258-2.026-.773-.47-.515-.723-1.251-.723-2.208 0-1.288.325-2.319.976-3.129s1.519-1.214 2.532-1.214c.832 0 1.483.257 1.99.736.506.515.723 1.178.723 2.024 0 .147 0 .331-.036.552 0 .184-.036.405-.072.663h-4.992v.037c0 .184-.036.33-.036.404 0 .626.144 1.105.434 1.436.289.331.723.478 1.302.478.47 0 .832-.147 1.194-.405.325-.257.542-.625.651-1.067h1.23Zm-4.558-1.803h3.69v-.295c0-.552-.145-.957-.398-1.251a1.514 1.514 0 0 0-1.122-.479 1.99 1.99 0 0 0-1.374.516c-.362.368-.651.846-.796 1.508Zm-8.501 4.048 1.447-6.883h1.049l-.217 1.031c.362-.405.76-.662 1.158-.846a3.075 3.075 0 0 1 1.302-.295c.615 0 1.049.11 1.375.368.325.258.47.626.47 1.104 0 .11 0 .221-.036.368-.037.148-.037.295-.109.479l-.94 4.637h-1.158l.941-4.49c.036-.184.072-.294.072-.442 0-.11.036-.22.036-.33 0-.258-.072-.443-.253-.59-.181-.147-.434-.184-.76-.184-.651 0-1.193.221-1.591.663-.434.441-.724 1.067-.905 1.914l-.723 3.46h-1.158v.036Zm-6.836 0 1.447-6.883h1.049l-.217 1.031a3.451 3.451 0 0 1 1.157-.846 3.075 3.075 0 0 1 1.302-.295c.615 0 1.049.11 1.375.368.325.258.47.626.47 1.104 0 .11 0 .221-.036.368-.036.148-.036.295-.109.479l-.94 4.637h-1.158l.941-4.49c.036-.184.072-.294.072-.442 0-.11.036-.22.036-.33 0-.258-.072-.443-.253-.59-.181-.147-.434-.184-.759-.184-.651 0-1.194.221-1.592.663-.434.441-.723 1.067-.904 1.914l-.724 3.46h-1.157v.036Zm-2.315-.773c-.29.331-.615.59-.977.736-.362.148-.76.258-1.157.258-.652 0-1.158-.184-1.52-.552-.361-.368-.542-.884-.542-1.546 0-.736.217-1.288.687-1.62.47-.367 1.23-.551 2.315-.625h.072c1.23-.074 1.845-.442 1.845-1.03 0-.295-.108-.516-.289-.663-.217-.147-.543-.22-.977-.22-.615 0-1.049.073-1.302.257-.253.184-.398.478-.507.92h-1.121c.109-.736.434-1.252.904-1.62.507-.368 1.158-.552 2.026-.552.796 0 1.375.148 1.809.405.434.295.651.663.651 1.178 0 .074 0 .147-.036.258 0 .11-.036.294-.109.552l-.615 2.907c-.036.11-.036.184-.036.295v.294c0 .11.036.221.109.295.072.073.18.11.361.11h.145c.036 0 .108 0 .145-.037l-.181.81c-.109.037-.217.037-.326.074-.108 0-.253.036-.398.036-.289 0-.542-.073-.687-.22-.217-.221-.289-.405-.289-.7Zm.361-2.687c-.325.148-.795.221-1.338.258-.543.037-.94.074-1.085.147-.326.074-.579.221-.724.405a1.233 1.233 0 0 0-.253.773c0 .331.109.589.29.81.217.184.47.294.832.294.651 0 1.157-.22 1.555-.662.362-.479.615-1.141.723-2.025Zm-7.198 3.46 1.99-9.459h1.121l-1.953 9.46h-1.158Zm-7.632 0 1.989-9.459h3.075c.832 0 1.483.221 1.917.626.434.405.651 1.03.651 1.84 0 .994-.289 1.767-.904 2.245-.615.515-1.52.773-2.713.773h-1.99l-.832 3.938h-1.193v.037Zm2.315-5.042h1.844c.796 0 1.375-.147 1.773-.442.362-.294.543-.773.543-1.435 0-.516-.145-.847-.362-1.104-.253-.221-.651-.332-1.194-.332h-1.845l-.759 3.313Zm-7.741 5.042-.434.11c-.145.037-.254.037-.362.037-.47 0-.832-.11-1.049-.294-.217-.184-.362-.479-.362-.847 0-.073 0-.184.036-.33.037-.148.037-.295.073-.516l.868-4.122h-.977l.217-.957h.977l.398-1.877h1.121l-.398 1.877h1.158l-.181.957h-1.158l-.868 4.232c-.036.11-.036.184-.072.295 0 .073-.036.147-.036.184 0 .11.036.22.144.294.109.074.217.11.398.11.109 0 .217 0 .326-.036.108 0 .253-.037.398-.074l-.217.957Zm-6.403 0 1.411-6.883h1.085l-.289 1.289c.361-.552.723-.92 1.013-1.141.289-.221.578-.331.904-.331h.253c.072 0 .181.036.289.036l-.289 1.288h-.036c-.145 0-.253-.036-.326-.036-.542 0-1.013.184-1.374.589-.362.404-.615.993-.796 1.803l-.687 3.313h-1.158v.073Zm-6.909-2.724c0-1.288.362-2.318 1.049-3.128.687-.81 1.592-1.215 2.677-1.215.868 0 1.555.258 2.026.773.506.516.759 1.252.759 2.135 0 1.288-.361 2.319-1.049 3.129-.687.81-1.591 1.214-2.677 1.214-.868 0-1.555-.258-2.061-.773-.471-.515-.724-1.214-.724-2.135Zm3.617-3.349c-.361 0-.687.074-.976.258-.29.147-.543.405-.76.736a3.833 3.833 0 0 0-.506 1.178c-.145.441-.181.883-.181 1.325 0 .589.145 1.03.434 1.361.289.332.687.479 1.194.479.723 0 1.338-.331 1.772-.994.47-.662.687-1.472.687-2.503 0-.588-.144-1.03-.434-1.325-.253-.367-.687-.515-1.23-.515Zm-9.983 3.68h1.049v.222c0 .478.144.846.434 1.104.289.257.759.368 1.338.368.434 0 .76-.11 1.013-.295.253-.184.362-.441.362-.773a.918.918 0 0 0-.181-.552c-.145-.147-.434-.33-.977-.589-.072-.036-.181-.11-.361-.147-1.266-.589-1.881-1.251-1.881-2.024 0-.589.217-1.104.687-1.472.434-.368 1.049-.552 1.808-.552.76 0 1.375.184 1.809.589.434.404.651.956.651 1.656v.147h-1.049v-.037c0-.478-.108-.81-.362-1.067-.253-.22-.614-.368-1.085-.368-.398 0-.723.074-.976.258a.74.74 0 0 0-.362.662c0 .331.362.7 1.121 1.03l.073.037c.976.442 1.591.81 1.844 1.105.254.294.362.662.362 1.067 0 .662-.253 1.178-.723 1.582-.507.405-1.158.59-1.99.59-.832 0-1.483-.221-1.953-.626-.47-.442-.724-.994-.724-1.73v-.147c.073 0 .073-.037.073-.037Zm-.651.148c-.145.773-.507 1.362-1.086 1.803-.578.442-1.266.663-2.061.663-.905 0-1.556-.258-2.026-.773-.47-.515-.723-1.251-.723-2.208 0-1.288.325-2.319.976-3.129s1.519-1.214 2.532-1.214c.832 0 1.483.257 1.99.736.506.515.723 1.178.723 2.024 0 .147 0 .331-.036.552 0 .184-.036.405-.072.663h-4.992v.037c0 .184-.036.33-.036.404 0 .626.144 1.105.434 1.436.289.331.723.478 1.302.478.47 0 .832-.147 1.194-.405.325-.257.542-.625.651-1.067h1.23Zm-4.522-1.803h3.69v-.295c0-.552-.145-.957-.398-1.251a1.514 1.514 0 0 0-1.122-.479c-.542 0-1.012.184-1.374.516-.398.368-.651.846-.796 1.508Zm-9.839 4.048 1.99-9.459h3.183c.506 0 .904.037 1.193.11.254.074.507.185.724.332.325.22.543.478.687.81.145.33.253.699.253 1.14 0 .626-.144 1.178-.434 1.583a2.32 2.32 0 0 1-1.23.957c.254.147.435.294.543.515.109.221.145.516.145.884v.478l-.036.957c0 .147 0 .258-.037.331v.258c0 .258.037.478.073.589.036.147.108.22.181.331v.258h-1.483a1.068 1.068 0 0 1-.073-.332c-.036-.11-.036-.22-.036-.368v-.294c0-.11 0-.258.036-.442l.073-1.067v-.368c0-.479-.109-.81-.326-.994-.217-.184-.687-.258-1.375-.258h-1.989l-.868 4.086h-1.194v-.037Zm2.315-5.19h2.243c.723 0 1.266-.147 1.664-.478.398-.294.579-.773.579-1.362 0-.441-.145-.773-.398-.993-.29-.221-.688-.332-1.23-.332h-2.171l-.687 3.166Zm-13.962 5.19 1.446-6.883h1.05l-.218 1.031a3.46 3.46 0 0 1 1.158-.846 3.075 3.075 0 0 1 1.302-.295c.615 0 1.05.11 1.375.368.325.258.47.626.47 1.104 0 .11 0 .221-.036.368-.036.148-.036.295-.109.479l-.94 4.637h-1.158l.94-4.49c.037-.184.073-.294.073-.442 0-.11.036-.22.036-.33 0-.258-.072-.443-.253-.59-.18-.147-.434-.184-.76-.184-.65 0-1.193.221-1.591.663-.434.441-.724 1.067-.904 1.914l-.724 3.46h-1.157v.036Zm-2.641 0 1.41-6.883h1.122l-1.447 6.883h-1.085Zm1.664-8.06.29-1.399h1.12l-.289 1.399H92.35Zm-4.052 7.287c-.289.331-.614.59-.976.736-.362.148-.76.258-1.158.258-.65 0-1.157-.184-1.519-.552-.362-.368-.543-.884-.543-1.546 0-.736.218-1.288.688-1.62.47-.367 1.23-.551 2.315-.625h.072c1.23-.074 1.845-.442 1.845-1.03 0-.295-.109-.516-.29-.663-.216-.147-.542-.22-.976-.22-.615 0-1.05.073-1.302.257-.254.184-.398.478-.507.92h-1.121c.108-.736.434-1.252.904-1.62.507-.368 1.158-.552 2.026-.552.796 0 1.374.148 1.809.405.434.295.65.663.65 1.178 0 .074 0 .147-.035.258 0 .11-.037.294-.11.552l-.614 2.907c-.036.11-.036.184-.036.295v.294c0 .11.036.221.108.295.073.073.181.11.362.11h.145c.036 0 .108 0 .144-.037l-.18.81c-.109.037-.217.037-.326.074-.108 0-.253.036-.398.036-.29 0-.543-.073-.687-.22-.181-.221-.29-.405-.29-.7Zm.362-2.687c-.325.148-.796.221-1.338.258-.543.037-.94.074-1.085.147-.326.074-.58.221-.724.405a1.228 1.228 0 0 0-.253.773c0 .331.109.589.29.81.216.184.47.294.831.294.651 0 1.158-.22 1.556-.662.361-.479.615-1.141.723-2.025Zm-5.172 3.46-.435.11c-.144.037-.253.037-.361.037-.47 0-.832-.11-1.05-.294-.216-.184-.361-.479-.361-.847 0-.073 0-.184.036-.33.036-.148.036-.295.072-.516l.869-4.122h-.977l.217-.957h.977l.398-1.877h1.12l-.397 1.877h1.158l-.181.957h-1.194l-.868 4.232c-.036.11-.036.184-.073.295 0 .073-.036.147-.036.184 0 .11.037.22.145.294.108.074.217.11.398.11.108 0 .217 0 .325-.036.109 0 .254-.037.398-.074l-.18.957Zm-9.37 0 1.448-6.883h1.049l-.217 1.031a3.46 3.46 0 0 1 1.157-.846 3.075 3.075 0 0 1 1.302-.295c.615 0 1.05.11 1.375.368.326.258.47.626.47 1.104 0 .11 0 .221-.036.368-.036.148-.036.295-.109.479l-.94 4.637h-1.157l.94-4.49c.036-.184.072-.294.072-.442 0-.11.036-.22.036-.33 0-.258-.072-.443-.253-.59-.18-.147-.434-.184-.76-.184-.65 0-1.193.221-1.59.663-.435.441-.724 1.067-.905 1.914l-.724 3.46h-1.157v.036Zm-.035-6.883-1.411 6.883h-1.05l.218-1.03a4.06 4.06 0 0 1-1.158.846 3.076 3.076 0 0 1-1.302.294c-.579 0-1.049-.11-1.338-.368-.29-.257-.47-.625-.47-1.104 0-.147 0-.257.036-.405 0-.147.036-.294.072-.441l.977-4.638h1.157l-.94 4.454v.037c-.073.33-.109.552-.109.736a.72.72 0 0 0 .29.589c.18.147.434.22.76.22.65 0 1.157-.22 1.59-.662.435-.442.724-1.067.905-1.914l.724-3.423h1.049v-.074Zm-13.637 4.16c0-1.289.361-2.32 1.048-3.129.688-.81 1.592-1.215 2.677-1.215.868 0 1.556.258 2.026.773.506.516.76 1.252.76 2.135 0 1.288-.362 2.319-1.05 3.129-.687.81-1.591 1.214-2.676 1.214-.868 0-1.556-.258-2.062-.773-.507-.515-.724-1.214-.724-2.135Zm3.58-3.35c-.361 0-.687.074-.976.258-.29.147-.543.405-.76.736a3.845 3.845 0 0 0-.506 1.178c-.145.441-.181.883-.181 1.325 0 .589.145 1.03.434 1.361.29.332.687.479 1.194.479.723 0 1.338-.331 1.772-.994.47-.662.688-1.472.688-2.503 0-.588-.145-1.03-.434-1.325-.254-.367-.688-.515-1.23-.515Zm-14.36 6.073 1.953-9.459h1.773l1.013 7.803 4.196-7.803h1.844l-1.989 9.46h-1.157l1.519-7.215c.036-.184.108-.368.144-.515.037-.147.109-.294.145-.442l-4.45 8.171h-1.193l-1.085-8.281v.478c0 .11-.036.221-.036.368l-1.52 7.472h-1.157v-.037Z"/><path stroke="#363636" stroke-miterlimit="22.93" stroke-width=".15" d="m214.757 45.086.29-1.398h1.374l-.289 1.398h-1.375Zm-2.062-4.196c0-.589-.144-1.03-.434-1.361-.289-.332-.687-.479-1.193-.479-.688 0-1.266.331-1.737.994-.47.662-.723 1.472-.723 2.466 0 .589.145 1.03.398 1.361.289.332.651.479 1.121.479.724 0 1.339-.331 1.809-.994.506-.625.759-1.472.759-2.466Zm-.687 4.196.145-.846a3.396 3.396 0 0 1-1.013.81c-.362.183-.76.257-1.158.257-.795 0-1.41-.258-1.844-.736-.434-.515-.651-1.215-.651-2.135 0-.589.072-1.14.253-1.656.181-.552.434-.994.723-1.399a3.61 3.61 0 0 1 1.158-.957c.434-.22.904-.33 1.374-.33.471 0 .905.11 1.23.33.362.221.651.553.904.994l.76-3.717h1.085l-1.917 9.459h-1.049v-.074Zm-5.498 0-.434.11c-.145.037-.253.037-.362.037-.47 0-.832-.11-1.049-.294-.217-.184-.362-.479-.362-.847 0-.073 0-.184.037-.33.036-.148.036-.295.072-.516l.868-4.122h-.977l.217-.957h.977l.398-1.877h1.121l-.398 1.877h1.158l-.181.957h-1.157l-.869 4.232c-.036.11-.036.184-.072.295 0 .073-.036.147-.036.184 0 .11.036.22.145.294.072.074.217.11.397.11.109 0 .217 0 .326-.036.109 0 .253-.037.398-.074l-.217.957Zm-9.26 0 1.953-9.459h1.23l-1.7 8.281h4.811l-.254 1.178h-6.04Zm-10.925-2.392h1.05v.22c0 .48.144.847.434 1.105.289.257.759.368 1.338.368.434 0 .76-.11 1.013-.295.253-.184.362-.441.362-.773a.918.918 0 0 0-.181-.552c-.145-.147-.434-.33-.977-.589-.072-.036-.181-.11-.362-.147-1.266-.589-1.881-1.251-1.881-2.024 0-.589.217-1.104.688-1.472.434-.368 1.049-.552 1.808-.552.76 0 1.375.184 1.809.589.434.404.651.956.651 1.656v.147h-1.049v-.037c0-.478-.109-.81-.362-1.067-.253-.22-.615-.368-1.085-.368-.398 0-.723.074-.977.258a.741.741 0 0 0-.361.662c0 .331.361.7 1.121 1.03l.072.037c.977.442 1.592.81 1.845 1.105.253.294.362.662.362 1.067 0 .662-.253 1.178-.724 1.582-.506.405-1.157.59-1.989.59-.832 0-1.483-.221-1.953-.626-.471-.442-.724-.994-.724-1.73v-.147c.073 0 .072-.037.072-.037Zm-3.87 2.392 1.411-6.883h1.085l-.289 1.289c.361-.552.723-.92 1.012-1.141.29-.221.579-.331.905-.331h.253c.072 0 .181.036.289.036l-.289 1.288h-.036c-.145 0-.253-.036-.326-.036-.542 0-1.013.184-1.374.589-.362.404-.615.993-.796 1.803l-.687 3.313h-1.158v.073Zm-.687-2.245c-.145.773-.507 1.362-1.085 1.803-.579.442-1.266.663-2.062.663-.905 0-1.556-.258-2.026-.773-.47-.515-.723-1.251-.723-2.208 0-1.288.325-2.319.976-3.129s1.519-1.214 2.532-1.214c.832 0 1.483.257 1.99.736.506.515.723 1.178.723 2.024 0 .147 0 .331-.036.552 0 .184-.036.405-.072.663h-4.992v.037c0 .184-.036.33-.036.404 0 .626.144 1.105.434 1.436.289.331.723.478 1.302.478.47 0 .832-.147 1.194-.405.325-.257.542-.625.651-1.067h1.23Zm-4.558-1.803h3.69v-.295c0-.552-.145-.957-.398-1.251a1.514 1.514 0 0 0-1.122-.479 1.99 1.99 0 0 0-1.374.516c-.362.368-.651.846-.796 1.508Zm-8.501 4.048 1.447-6.883h1.049l-.217 1.031c.362-.405.76-.662 1.158-.846a3.075 3.075 0 0 1 1.302-.295c.615 0 1.049.11 1.375.368.325.258.47.626.47 1.104 0 .11 0 .221-.036.368-.037.148-.037.295-.109.479l-.94 4.637h-1.158l.941-4.49c.036-.184.072-.294.072-.442 0-.11.036-.22.036-.33 0-.258-.072-.443-.253-.59-.181-.147-.434-.184-.76-.184-.651 0-1.193.221-1.591.663-.434.441-.724 1.067-.905 1.914l-.723 3.46h-1.158v.036Zm-6.836 0 1.447-6.883h1.049l-.217 1.031a3.451 3.451 0 0 1 1.157-.846 3.075 3.075 0 0 1 1.302-.295c.615 0 1.049.11 1.375.368.325.258.47.626.47 1.104 0 .11 0 .221-.036.368-.036.148-.036.295-.109.479l-.94 4.637h-1.158l.941-4.49c.036-.184.072-.294.072-.442 0-.11.036-.22.036-.33 0-.258-.072-.443-.253-.59-.181-.147-.434-.184-.759-.184-.651 0-1.194.221-1.592.663-.434.441-.723 1.067-.904 1.914l-.724 3.46h-1.157v.036Zm-2.315-.773c-.29.331-.615.59-.977.736-.362.148-.76.258-1.157.258-.652 0-1.158-.184-1.52-.552-.361-.368-.542-.884-.542-1.546 0-.736.217-1.288.687-1.62.47-.367 1.23-.551 2.315-.625h.072c1.23-.074 1.845-.442 1.845-1.03 0-.295-.108-.516-.289-.663-.217-.147-.543-.22-.977-.22-.615 0-1.049.073-1.302.257-.253.184-.398.478-.507.92h-1.121c.109-.736.434-1.252.904-1.62.507-.368 1.158-.552 2.026-.552.796 0 1.375.148 1.809.405.434.295.651.663.651 1.178 0 .074 0 .147-.036.258 0 .11-.036.294-.109.552l-.615 2.907c-.036.11-.036.184-.036.295v.294c0 .11.036.221.109.295.072.073.18.11.361.11h.145c.036 0 .108 0 .145-.037l-.181.81c-.109.037-.217.037-.326.074-.108 0-.253.036-.398.036-.289 0-.542-.073-.687-.22-.217-.221-.289-.405-.289-.7Zm.361-2.687c-.325.148-.795.221-1.338.258-.543.037-.94.074-1.085.147-.326.074-.579.221-.724.405a1.233 1.233 0 0 0-.253.773c0 .331.109.589.29.81.217.184.47.294.832.294.651 0 1.157-.22 1.555-.662.362-.479.615-1.141.723-2.025Zm-7.198 3.46 1.99-9.459h1.121l-1.953 9.46h-1.158Zm-7.632 0 1.989-9.459h3.075c.832 0 1.483.221 1.917.626.434.405.651 1.03.651 1.84 0 .994-.289 1.767-.904 2.245-.615.515-1.52.773-2.713.773h-1.99l-.832 3.938h-1.193v.037Zm2.315-5.042h1.844c.796 0 1.375-.147 1.773-.442.362-.294.543-.773.543-1.435 0-.516-.145-.847-.362-1.104-.253-.221-.651-.332-1.194-.332h-1.845l-.759 3.313Zm-7.741 5.042-.434.11c-.145.037-.254.037-.362.037-.47 0-.832-.11-1.049-.294-.217-.184-.362-.479-.362-.847 0-.073 0-.184.036-.33.037-.148.037-.295.073-.516l.868-4.122h-.977l.217-.957h.977l.398-1.877h1.121l-.398 1.877h1.158l-.181.957h-1.158l-.868 4.232c-.036.11-.036.184-.072.295 0 .073-.036.147-.036.184 0 .11.036.22.144.294.109.074.217.11.398.11.109 0 .217 0 .326-.036.108 0 .253-.037.398-.074l-.217.957Zm-6.403 0 1.411-6.883h1.085l-.289 1.289c.361-.552.723-.92 1.013-1.141.289-.221.578-.331.904-.331h.253c.072 0 .181.036.289.036l-.289 1.288h-.036c-.145 0-.253-.036-.326-.036-.542 0-1.013.184-1.374.589-.362.404-.615.993-.796 1.803l-.687 3.313h-1.158v.073Zm-6.909-2.724c0-1.288.362-2.318 1.049-3.128.687-.81 1.592-1.215 2.677-1.215.868 0 1.555.258 2.026.773.506.516.759 1.252.759 2.135 0 1.288-.361 2.319-1.049 3.129-.687.81-1.591 1.214-2.677 1.214-.868 0-1.555-.258-2.061-.773-.471-.515-.724-1.214-.724-2.135Zm3.617-3.349c-.361 0-.687.074-.976.258-.29.147-.543.405-.76.736a3.833 3.833 0 0 0-.506 1.178c-.145.441-.181.883-.181 1.325 0 .589.145 1.03.434 1.361.289.332.687.479 1.194.479.723 0 1.338-.331 1.772-.994.47-.662.687-1.472.687-2.503 0-.588-.144-1.03-.434-1.325-.253-.367-.687-.515-1.23-.515Zm-9.983 3.68h1.049v.222c0 .478.144.846.434 1.104.289.257.759.368 1.338.368.434 0 .76-.11 1.013-.295.253-.184.362-.441.362-.773a.918.918 0 0 0-.181-.552c-.145-.147-.434-.33-.977-.589-.072-.036-.181-.11-.361-.147-1.267-.589-1.881-1.251-1.881-2.024 0-.589.217-1.104.687-1.472.434-.368 1.049-.552 1.808-.552.76 0 1.375.184 1.809.589.434.404.651.956.651 1.656v.147h-1.049v-.037c0-.478-.108-.81-.362-1.067-.253-.22-.614-.368-1.085-.368-.398 0-.723.074-.976.258a.74.74 0 0 0-.362.662c0 .331.362.7 1.121 1.03l.073.037c.976.442 1.591.81 1.844 1.105.254.294.362.662.362 1.067 0 .662-.253 1.178-.723 1.582-.507.405-1.158.59-1.99.59-.832 0-1.483-.221-1.953-.626-.47-.442-.724-.994-.724-1.73v-.147c.073 0 .073-.037.073-.037Zm-.651.148c-.145.773-.507 1.362-1.086 1.803-.578.442-1.266.663-2.061.663-.905 0-1.556-.258-2.026-.773-.47-.515-.723-1.251-.723-2.208 0-1.288.325-2.319.976-3.129s1.519-1.214 2.532-1.214c.832 0 1.483.257 1.99.736.506.515.723 1.178.723 2.024 0 .147 0 .331-.036.552 0 .184-.036.405-.072.663h-4.992v.037c0 .184-.036.33-.036.404 0 .626.144 1.105.434 1.436.289.331.723.478 1.302.478.47 0 .832-.147 1.194-.405.325-.257.542-.625.651-1.067h1.23Zm-4.522-1.803h3.69v-.295c0-.552-.145-.957-.398-1.251a1.514 1.514 0 0 0-1.122-.479c-.542 0-1.012.184-1.374.516-.398.368-.651.846-.796 1.508Zm-9.839 4.048 1.99-9.459h3.183c.506 0 .904.037 1.193.11.254.074.507.185.724.332.325.22.543.478.687.81.145.33.253.699.253 1.14 0 .626-.144 1.178-.434 1.583a2.32 2.32 0 0 1-1.23.957c.254.147.435.294.543.515.109.221.145.516.145.884v.478l-.036.957c0 .147 0 .258-.037.331v.258c0 .258.037.478.073.589.036.147.108.22.181.331v.258h-1.483a1.068 1.068 0 0 1-.073-.332c-.036-.11-.036-.22-.036-.368v-.294c0-.11 0-.258.036-.442l.073-1.067v-.368c0-.479-.109-.81-.326-.994-.217-.184-.687-.258-1.375-.258h-1.989l-.868 4.086h-1.194v-.037Zm2.315-5.19h2.243c.723 0 1.266-.147 1.664-.478.398-.294.579-.773.579-1.362 0-.441-.145-.773-.398-.993-.29-.221-.688-.332-1.23-.332h-2.171l-.687 3.166Zm-13.962 5.19 1.446-6.883h1.05l-.218 1.031a3.46 3.46 0 0 1 1.158-.846 3.075 3.075 0 0 1 1.302-.295c.615 0 1.05.11 1.375.368.325.258.47.626.47 1.104 0 .11 0 .221-.036.368-.036.148-.036.295-.109.479l-.94 4.637h-1.158l.94-4.49c.037-.184.073-.294.073-.442 0-.11.036-.22.036-.33 0-.258-.072-.443-.253-.59-.18-.147-.434-.184-.76-.184-.65 0-1.193.221-1.591.663-.434.441-.724 1.067-.904 1.914l-.724 3.46h-1.157v.036Zm-2.641 0 1.41-6.883h1.122l-1.447 6.883h-1.085Zm1.664-8.06.29-1.399h1.12l-.289 1.399H92.35Zm-4.052 7.287c-.289.331-.614.59-.976.736-.362.148-.76.258-1.158.258-.65 0-1.157-.184-1.519-.552-.362-.368-.543-.884-.543-1.546 0-.736.218-1.288.688-1.62.47-.367 1.23-.551 2.315-.625h.072c1.23-.074 1.845-.442 1.845-1.03 0-.295-.109-.516-.29-.663-.216-.147-.542-.22-.976-.22-.615 0-1.05.073-1.302.257-.254.184-.398.478-.507.92h-1.121c.108-.736.434-1.252.904-1.62.507-.368 1.158-.552 2.026-.552.796 0 1.374.148 1.809.405.434.295.65.663.65 1.178 0 .074 0 .147-.035.258 0 .11-.037.294-.11.552l-.614 2.907c-.036.11-.036.184-.036.295v.294c0 .11.036.221.108.295.073.073.181.11.362.11h.145c.036 0 .108 0 .144-.037l-.18.81c-.109.037-.217.037-.326.074-.108 0-.253.036-.398.036-.29 0-.543-.073-.687-.22-.181-.221-.29-.405-.29-.7Zm.362-2.687c-.325.148-.796.221-1.338.258-.543.037-.94.074-1.085.147-.326.074-.58.221-.724.405a1.228 1.228 0 0 0-.253.773c0 .331.109.589.29.81.216.184.47.294.831.294.651 0 1.158-.22 1.556-.662.361-.479.615-1.141.723-2.025Zm-5.172 3.46-.435.11c-.144.037-.253.037-.361.037-.47 0-.832-.11-1.05-.294-.216-.184-.361-.479-.361-.847 0-.073 0-.184.036-.33.036-.148.036-.295.072-.516l.869-4.122h-.977l.217-.957h.977l.398-1.877h1.12l-.397 1.877h1.158l-.181.957h-1.194l-.868 4.232c-.036.11-.036.184-.073.295 0 .073-.036.147-.036.184 0 .11.037.22.145.294.108.074.217.11.398.11.108 0 .217 0 .325-.036.109 0 .254-.037.398-.074l-.18.957Zm-9.37 0 1.448-6.883h1.049l-.217 1.031a3.46 3.46 0 0 1 1.157-.846 3.075 3.075 0 0 1 1.302-.295c.615 0 1.05.11 1.375.368.326.258.47.626.47 1.104 0 .11 0 .221-.036.368-.036.148-.036.295-.109.479l-.94 4.637h-1.157l.94-4.49c.036-.184.072-.294.072-.442 0-.11.036-.22.036-.33 0-.258-.072-.443-.253-.59-.18-.147-.434-.184-.76-.184-.65 0-1.193.221-1.59.663-.435.441-.724 1.067-.905 1.914l-.724 3.46h-1.157v.036Zm-.035-6.883-1.411 6.883h-1.05l.218-1.03a4.06 4.06 0 0 1-1.158.846 3.076 3.076 0 0 1-1.302.294c-.579 0-1.049-.11-1.338-.368-.29-.257-.47-.625-.47-1.104 0-.147 0-.257.036-.405 0-.147.036-.294.072-.441l.977-4.638h1.157l-.94 4.454v.037c-.073.33-.109.552-.109.736a.72.72 0 0 0 .29.589c.18.147.434.22.76.22.65 0 1.157-.22 1.59-.662.435-.442.724-1.067.905-1.914l.724-3.423h1.049v-.074Zm-13.637 4.16c0-1.289.361-2.32 1.048-3.129.688-.81 1.592-1.215 2.677-1.215.868 0 1.556.258 2.026.773.506.516.76 1.252.76 2.135 0 1.288-.362 2.319-1.05 3.129-.687.81-1.591 1.214-2.676 1.214-.868 0-1.556-.258-2.062-.773-.507-.515-.724-1.214-.724-2.135Zm3.58-3.35c-.361 0-.687.074-.976.258-.29.147-.543.405-.76.736a3.845 3.845 0 0 0-.506 1.178c-.145.441-.181.883-.181 1.325 0 .589.145 1.03.434 1.361.29.332.687.479 1.194.479.723 0 1.338-.331 1.772-.994.47-.662.688-1.472.688-2.503 0-.588-.145-1.03-.434-1.325-.254-.367-.688-.515-1.23-.515Zm-14.36 6.073 1.953-9.459h1.773l1.013 7.803 4.196-7.803h1.844l-1.989 9.46h-1.157l1.519-7.215c.036-.184.108-.368.144-.515.037-.147.109-.294.145-.442l-4.45 8.171h-1.193l-1.085-8.281v.478c0 .11-.036.221-.036.368l-1.52 7.472h-1.157v-.037Z"/><path fill="#5E80C0" fill-rule="evenodd" d="M0 0v12.44c2.532 1.546 4.666 2.944 6.837 4.343 2.532 1.656 4.81 3.202 7.958 5.116 1.266.773 1.121.626 2.387-.11 1.773-1.031 2.532-1.399 4.92-2.945 1.12-.773 1.012-.883 1.627-.258 1.266 1.289 1.628 1.804 2.894 3.092.76.773.362.515 1.628.883 2.387.773 4.051 1.289 5.932 1.804 1.266.368 1.013.515 1.773 0 1.121-.626 1.772-1.03 2.64-1.656V.037H0V0Z" clip-rule="evenodd"/><path fill="#007132" fill-rule="evenodd" d="M38.669 46.963V25.58c-4.16 2.429-7.163 4.49-10.96 6.55-.507.258-.76.369-1.882-.367C15.518 24.586 10.345 20.5 0 13.949v5.889c4.268 1.914 10.056 4.343 12.841 6.809 2.026 1.656-4.774 5.52-2.025 7.287 2.785 1.804 5.534 3.718 8.573 5.89 3.038 2.06 6.294 4.342 10.309 7.176h8.97v-.037ZM.036 22.267V47h20.257c-5.68-5.889-9.333-9.09-14.722-13.213-.507-.368-.615-1.03-.254-1.656 1.013-1.399 4.667-3.57 3.51-4.858-1.882-2.466-6.15-4.38-8.79-5.006Z" clip-rule="evenodd"/><path fill="#363636" d="M193.018 8.576h6.221v2.76h.362c.615-1.178 1.447-2.024 2.605-2.503 1.121-.478 2.749-.736 4.883-.736s3.798.184 4.992.515c1.193.332 2.206.92 2.966 1.767.796.847 1.338 1.767 1.591 2.797.254 1.03.362 2.76.362 5.226v8.134h-6.619v-8.17c0-1.436-.037-2.43-.145-2.945-.109-.515-.326-.957-.687-1.325-.652-.625-2.135-.957-4.413-.957-2.279 0-3.799.405-4.558 1.178-.398.442-.651.957-.796 1.583-.109.626-.181 1.766-.181 3.423v7.213h-6.619V8.576h.036Zm-15.084 4.6c-2.496 0-4.124.221-4.884.663a2.095 2.095 0 0 0-.94 1.14c-.181.516-.29 1.252-.29 2.246 0 1.14.109 1.987.362 2.502.253.516.724.884 1.375 1.142.796.257 2.134.404 3.979.404 2.532 0 4.16-.257 4.919-.81.398-.257.651-.625.796-1.104.145-.478.217-1.177.217-2.134 0-1.03-.108-1.84-.289-2.356-.181-.515-.543-.883-1.049-1.104-.688-.405-2.134-.589-4.196-.589Zm6.004-4.6h6.222V25.1c0 1.51-.036 2.54-.108 3.055a9.572 9.572 0 0 1-.471 1.877 5.668 5.668 0 0 1-1.447 2.282c-.687.662-1.447 1.14-2.315 1.435-1.808.626-4.702.957-8.645.957-2.785 0-4.883-.147-6.258-.441-1.374-.295-2.496-.81-3.328-1.546-1.121-.994-1.772-2.54-1.953-4.564h6.728l.072.184c.181.7.615 1.14 1.266 1.362.652.22 1.845.33 3.582.33 1.736 0 3.002-.073 3.762-.257.759-.147 1.374-.478 1.772-.92.326-.368.506-.773.615-1.251.108-.442.145-1.288.145-2.54v-1.582h-.254c-.651 1.104-1.519 1.84-2.532 2.245-1.013.368-2.604.589-4.811.589-2.206 0-4.015-.11-5.317-.332-1.266-.22-2.279-.625-3.039-1.177-.94-.663-1.555-1.546-1.917-2.687-.325-1.104-.506-2.834-.506-5.153 0-2.797.362-4.748 1.049-5.852.687-1.14 1.772-1.95 3.183-2.355 1.447-.442 3.654-.663 6.62-.663 2.315 0 3.943.184 4.955.552 1.013.368 1.881 1.141 2.605 2.245h.325V8.576Zm-27.816-7.361h6.619v5.042h-6.619V1.215Zm0 7.36h6.619v17.961h-6.619V8.576Zm-26.841 12.257h6.729c.072.773.47 1.288 1.266 1.582.759.295 2.206.442 4.268.442s3.581-.11 4.377-.368c.759-.22 1.157-.663 1.157-1.325 0-.626-.361-1.03-1.121-1.252-.326-.11-2.207-.147-5.643-.22-3.183 0-5.136-.074-5.896-.147-2.062-.295-3.473-.994-4.196-2.062-.543-.81-.832-1.913-.832-3.312 0-2.65.977-4.38 2.894-5.19 1.447-.625 4.557-.92 9.332-.92 3.003 0 5.173.11 6.548.332 1.374.22 2.423.662 3.183 1.325.47.404.796.883 1.013 1.435.217.552.325 1.399.434 2.466h-6.728c-.109-.442-.29-.736-.471-.847-.542-.33-1.953-.515-4.16-.515-2.061 0-3.472.11-4.232.331-.759.221-1.157.59-1.157 1.141 0 .736.542 1.141 1.591 1.215.832.074 3.835.11 9.007.147 2.496 0 4.269.442 5.39 1.288 1.121.847 1.664 2.282 1.664 4.343 0 1.362-.217 2.466-.651 3.313-.434.846-1.122 1.472-2.062 1.914-1.555.736-4.847 1.104-9.875 1.104-3.22 0-5.535-.11-6.945-.368-1.411-.258-2.496-.736-3.292-1.51-1.049-.956-1.555-2.392-1.592-4.342Zm-14.36-7.656c-2.207 0-3.654.184-4.449.515-.543.258-.941.7-1.194 1.289-.217.625-.362 1.509-.362 2.686 0 1.178.109 2.025.29 2.54.18.515.578.883 1.121 1.14.832.406 2.351.59 4.558.59 2.496 0 4.087-.258 4.811-.81.687-.515 1.049-1.73 1.049-3.644 0-1.177-.109-2.06-.326-2.613-.217-.552-.615-.92-1.194-1.178-.832-.33-2.278-.515-4.304-.515Zm-.073-5.079c3.003 0 5.246.11 6.729.368 1.483.258 2.64.663 3.508 1.288a4.531 4.531 0 0 1 1.773 2.54c.325 1.03.47 2.687.47 4.932 0 1.656-.036 2.944-.145 3.754-.108.846-.253 1.582-.506 2.245-.615 1.693-1.917 2.76-3.834 3.202-1.592.405-4.269.589-7.995.589-3.291 0-5.642-.11-7.089-.368-1.411-.258-2.569-.736-3.401-1.435-.832-.7-1.374-1.583-1.627-2.687-.29-1.104-.398-2.945-.398-5.558 0-1.472.072-2.613.181-3.386a6.94 6.94 0 0 1 .651-2.135c.651-1.325 1.808-2.208 3.4-2.65 1.592-.441 4.341-.699 8.283-.699ZM93.651 19.323h6.728c-.072 1.509-.217 2.65-.434 3.422a5.207 5.207 0 0 1-1.23 2.062c-.832.883-1.989 1.472-3.436 1.766-1.447.295-3.87.442-7.343.442-2.713 0-4.775-.11-6.113-.368-1.375-.221-2.496-.663-3.364-1.288-.832-.626-1.447-1.51-1.773-2.65-.325-1.141-.506-2.908-.506-5.3 0-2.172.145-3.791.47-4.895.29-1.104.832-1.988 1.628-2.613.868-.7 1.99-1.178 3.4-1.436 1.41-.257 3.617-.405 6.62-.405 3.002 0 5.136.148 6.62.405 1.482.258 2.676.736 3.508 1.436.687.588 1.194 1.288 1.483 2.134.29.847.47 2.098.507 3.791h-6.728c-.11-1.03-.543-1.73-1.339-2.135-.796-.404-2.134-.588-4.087-.588-1.954 0-3.328.184-4.088.552-.47.257-.832.662-1.049 1.288-.217.589-.326 1.472-.326 2.65s.109 1.987.326 2.54c.217.552.615.92 1.158 1.177.832.368 2.17.552 4.05.552 1.882 0 3.293-.184 4.016-.552.724-.258 1.158-.957 1.302-1.987Zm-26.08-3.975c-.036-.7-.073-1.178-.145-1.473a1.676 1.676 0 0 0-.398-.699c-.579-.589-2.098-.883-4.594-.883-2.206 0-3.69.184-4.413.589-.723.405-1.085 1.214-1.157 2.466H67.57Zm-.073 5.447h6.584c-.181 1.95-.76 3.35-1.773 4.232-.832.736-2.061 1.289-3.617 1.583-1.555.294-3.906.442-7.017.442-2.569 0-4.522-.11-5.896-.368-1.375-.258-2.46-.7-3.256-1.325-.832-.663-1.447-1.51-1.736-2.614-.326-1.104-.47-2.797-.47-5.042 0-1.693.072-2.981.18-3.864.109-.847.362-1.62.688-2.319.687-1.435 1.989-2.356 3.834-2.797 1.592-.368 4.051-.552 7.38-.552 2.93 0 5.027.11 6.22.331 2.135.368 3.618 1.178 4.414 2.43.796 1.25 1.194 3.385 1.194 6.33 0 .294 0 .883-.037 1.803H56.9c0 .92.072 1.583.18 1.95.11.406.326.737.688.994.651.479 2.134.736 4.45.736 1.482 0 2.567-.073 3.327-.184.724-.11 1.23-.294 1.52-.588.18-.258.325-.626.433-1.178Z"/></g><defs><clipPath id="a"><path fill="#fff" d="M0 0h217v47H0z"/></clipPath></defs></svg>